<svg width="81" height="31" viewBox="0 0 81 31" fill="none" xmlns="http://www.w3.org/2000/svg">
<path opacity="0.2" d="M64.3617 30.9566C73.0081 30.9566 80.0174 24.0361 80.0174 15.4992C80.0174 6.96237 73.0081 0.0418701 64.3617 0.0418701C55.7153 0.0418701 48.7061 6.96237 48.7061 15.4992C48.7061 24.0361 55.7153 30.9566 64.3617 30.9566Z" fill="#151417"/>
<path fill-rule="evenodd" clip-rule="evenodd" d="M5.14932 20.6357C7.34599 20.6357 8.61549 19.692 9.55692 18.4104L7.47436 16.9457C6.87527 17.6639 6.26192 18.1428 5.22064 18.1428C3.82277 18.1428 2.83855 16.9879 2.83855 15.5091V15.4809C2.83855 14.0444 3.82277 12.8613 5.22064 12.8613C6.17633 12.8613 6.83248 13.3261 7.40304 14.0162L9.48559 12.4247C8.60122 11.2276 7.28893 10.3825 5.24917 10.3825C2.22519 10.3825 0 12.636 0 15.5091V15.5373C0 18.4808 2.29651 20.6357 5.14932 20.6357ZM14.2682 20.4385H17.1638L17.877 18.6639H21.7426L22.4558 20.4385H25.4227L21.172 10.5093H18.5046L14.2682 20.4385ZM18.6901 16.5372L19.8169 13.7486L20.9295 16.5372H18.6901ZM30.811 20.4385H33.5783V17.4527H34.805L36.8162 20.4385H39.9971L37.615 17.002C38.856 16.4809 39.669 15.4809 39.669 13.9599V13.9317C39.669 12.9599 39.3695 12.2135 38.7847 11.636C38.1142 10.9741 37.0587 10.5797 35.5324 10.5797H30.811V20.4385ZM33.5783 15.3119V12.9317H35.4041C36.317 12.9317 36.9018 13.3261 36.9018 14.1148V14.143C36.9018 14.8612 36.3455 15.3119 35.4183 15.3119H33.5783ZM47.9244 20.4385H50.6917V12.974H53.6871V10.5797H44.9432V12.974H47.9244V20.4385ZM64.3622 20.6515C67.2443 20.6515 69.5807 18.3445 69.5807 15.4988C69.5807 12.6531 67.2443 10.3461 64.3622 10.3461C61.4801 10.3461 59.1436 12.6531 59.1436 15.4988C59.1436 18.3445 61.4801 20.6515 64.3622 20.6515Z" fill="#151417"/>
</svg>
