<?xml version="1.0" encoding="UTF-8"?> <svg xmlns="http://www.w3.org/2000/svg" width="88" height="40" viewBox="0 0 88 40" fill="none"><path d="M35.7862 12.9346H41.1938L38.328 8.32229L33.0699 16.6494H30.6776L37.0571 6.65188C37.3312 6.25298 37.8047 6.00366 38.3031 6.00366C38.8015 6.00366 39.275 6.25298 39.5242 6.62695L45.9286 16.6494H43.5363L42.4149 14.7795H36.9325L35.7862 12.9346ZM60.6065 14.8045V6.10339H58.588V15.6521C58.588 15.9015 58.6876 16.1757 58.887 16.3502C59.0864 16.5497 59.3356 16.6494 59.6346 16.6494H68.8799L70.076 14.7795L60.6065 14.8045ZM27.0642 13.2338C29.0329 13.2338 30.6278 11.6382 30.6278 9.66859C30.6278 7.69901 29.0329 6.10339 27.0642 6.10339H18.1927V16.6494H20.2112V7.97325H26.9396C27.8866 7.97325 28.6342 8.74613 28.6342 9.66859C28.6342 10.616 27.8617 11.3889 26.9396 11.3889H21.233L27.2885 16.6743H30.2291L26.1422 13.2338H27.0642ZM5.70783 16.6743H11.8381C14.7538 16.6743 17.0962 14.3058 17.0962 11.4138C17.0962 8.49681 14.7538 6.12832 11.8381 6.12832H5.70783C2.7922 6.12832 0.424805 8.49681 0.424805 11.4138C0.449725 14.3058 2.81712 16.6743 5.70783 16.6743ZM11.7135 14.8045H5.85735C3.96344 14.8045 2.44332 13.2837 2.44332 11.3889C2.44332 9.49407 3.96344 7.97325 5.85735 7.97325H11.7135C13.6075 7.97325 15.1276 9.49407 15.1276 11.3889C15.1276 13.2837 13.6075 14.8045 11.7135 14.8045ZM50.2149 16.6743H56.4698L57.6659 14.8294H50.3644C48.4705 14.8294 46.9503 13.3086 46.9503 11.4138C46.9503 9.519 48.4705 7.99818 50.3644 7.99818H56.3202L57.5164 6.12832H50.2398C47.3241 6.12832 44.9567 8.49681 44.9567 11.4138C44.9318 14.3058 47.2992 16.6743 50.2149 16.6743ZM75.0102 14.8045C73.4402 14.8045 72.1195 13.7574 71.7208 12.3113H80.3929L81.5891 10.4415H71.7208C72.1195 8.99544 73.4402 7.94831 75.0102 7.94831H80.9661L82.1622 6.07845H74.8856C71.97 6.07845 69.6026 8.44695 69.6026 11.3639C69.6026 14.2809 71.97 16.6245 74.8856 16.6245H81.1405L82.3367 14.7795L75.0102 14.8045ZM83.2338 7.25024C83.2338 6.72668 83.6574 6.32777 84.1807 6.32777C84.7041 6.32777 85.1028 6.75161 85.1028 7.25024C85.1028 7.7738 84.7041 8.1727 84.1807 8.1727C83.6574 8.1727 83.2338 7.74887 83.2338 7.25024ZM84.1807 8.42202C84.8287 8.42202 85.352 7.89845 85.352 7.25024C85.352 6.60202 84.8287 6.05353 84.1807 6.05353C83.5079 6.05353 82.9846 6.57709 82.9846 7.25024C82.9846 7.89845 83.5328 8.42202 84.1807 8.42202ZM84.0561 6.52722C84.2306 6.52722 84.3053 6.52723 84.405 6.55216C84.6293 6.62695 84.6542 6.85134 84.6542 6.92613C84.6542 6.95106 84.6542 6.97599 84.6293 7.02585C84.6293 7.07572 84.5795 7.17544 84.4549 7.25024C84.4299 7.25024 84.4299 7.27517 84.405 7.27517L84.7041 7.82366H84.405L84.1309 7.3001H84.0063V7.82366H83.7322V6.50229H84.0561V6.52722ZM84.1558 7.15051C84.2306 7.15051 84.3303 7.15051 84.3801 7.07571C84.405 7.05078 84.4299 7.00092 84.4299 6.97599C84.4299 6.90119 84.3801 6.85134 84.3303 6.80147C84.2555 6.77654 84.2057 6.77654 84.0811 6.77654H84.0063V7.17544L84.1558 7.15051Z" fill="#8B8B8B"></path><path d="M5.95587 31.5122L2.76612 24.8306V24.8056H0V33.5815H1.84408V26.501L5.13351 33.5566V33.5815H7.77503V24.8056H5.95587V31.5122Z" fill="#151417"></path><path d="M11.5883 29.7919H15.3014V28.296H11.5883V26.3015H15.5506V24.8056H9.64453V33.5815H15.6752V32.0607H11.5883V29.7919Z" fill="#151417"></path><path d="M16.5957 24.8056V26.3264H19.1874V33.5815H21.1311V26.3264H23.7228V24.8056H16.5957Z" fill="#151417"></path><path d="M25.9676 31.0132C25.9926 31.6116 26.0673 32.7335 28.0609 32.7335C29.8551 32.7335 30.1043 31.6116 30.1043 31.1878C30.1043 30.2154 29.3318 30.016 28.1107 29.7168C26.79 29.3927 26.1919 29.2431 25.7434 28.9439C25.0456 28.4702 24.8462 27.822 24.8462 27.2236C24.8462 25.4535 26.5159 24.6806 28.1606 24.6806C28.7337 24.6806 29.905 24.7804 30.6027 25.5283C31.0762 26.0519 31.1011 26.6502 31.126 26.9993H29.8801C29.8302 25.9272 28.9082 25.6779 28.0609 25.6779C26.8648 25.6779 26.1421 26.2264 26.1421 27.0741C26.1421 27.8469 26.6405 28.1212 27.712 28.3705C29.7804 28.8941 30.0047 28.9439 30.528 29.293C31.3254 29.8165 31.4002 30.6642 31.4002 31.0132C31.4002 32.559 30.204 33.7308 27.9612 33.7308C27.2884 33.7308 25.9427 33.6311 25.2699 32.7335C24.7715 32.0853 24.7715 31.3872 24.7715 30.9883H25.9676V31.0132Z" fill="#151417"></path><path d="M34.4413 24.8564V30.2416C34.4413 31.1641 34.6406 31.563 34.8151 31.8123C35.3633 32.5353 36.1857 32.66 36.8087 32.66C39.1511 32.66 39.1511 30.8151 39.1511 30.1918V24.8564H40.3224V30.2167C40.3224 30.6904 40.3224 31.6627 39.5997 32.5353C38.7524 33.6074 37.4317 33.7321 36.8087 33.7321C35.9863 33.7321 34.541 33.5077 33.7435 32.3359C33.4694 31.9619 33.2451 31.4383 33.2451 30.1419V24.8564H34.4413Z" fill="#151417"></path><path d="M42.8135 24.8564H44.0096V33.5326H42.8135V24.8564Z" fill="#151417"></path><path d="M48.6695 33.5575V25.8786H45.7539V24.8564H52.7564V25.8786H49.8657V33.5326H48.6695V33.5575Z" fill="#151417"></path><path d="M54.2021 24.8564H59.6596V25.8786H55.4232V28.5961H59.4603V29.6183H55.4232V32.5104H59.7593V33.5575H54.2021V24.8564Z" fill="#151417"></path></svg> 