<svg width="72" height="72" viewBox="0 0 72 72" fill="none" xmlns="http://www.w3.org/2000/svg">
<g clip-path="url(#clip0_1310_48531)">
<path d="M51.4078 51.6966L43.4732 45.4236L39.5059 48.9522L48.6307 55.2252L51.4078 51.6966Z" fill="white" stroke="#151417"/>
<path d="M47.2446 43.8755C41.1549 55.91 26.4559 60.7259 14.4133 54.6322C2.37074 48.5384 -2.45504 33.8426 3.63461 21.8081C9.72426 9.77367 25.5625 6.35653 36.4659 11.0515C47.3693 15.7465 53.3342 31.8411 47.2446 43.8755Z" fill="white"/>
<path d="M46.7984 43.6498C40.8336 55.4376 26.4355 60.1553 14.6391 54.186L14.1875 55.0783C26.4762 61.2966 41.4762 56.3824 47.6907 44.1013L46.7984 43.6498ZM14.6391 54.186C2.8426 48.2168 -1.88408 33.8217 4.08075 22.0339L3.18848 21.5824C-3.026 33.8635 1.89888 48.86 14.1875 55.0783L14.6391 54.186ZM4.08075 22.0339C10.0254 10.2859 25.5513 6.89611 36.2681 11.5107L36.6636 10.5923C25.5736 5.81695 9.4231 9.26142 3.18848 21.5824L4.08075 22.0339ZM36.2681 11.5107C41.5622 13.7904 45.6964 18.86 47.7546 24.8731C49.8113 30.8821 49.7727 37.7719 46.7984 43.6498L47.6907 44.1013C50.8061 37.9447 50.8299 30.77 48.7007 24.5493C46.5729 18.3328 42.273 13.0076 36.6636 10.5923L36.2681 11.5107Z" fill="#151417"/>
<path d="M26.6466 51.4034C16.6394 51.9924 8.04924 44.352 7.45988 34.3381C6.87051 24.3242 14.5051 15.7289 24.5123 15.1399C34.5195 14.5509 42.6372 23.4461 43.699 32.2052C44.7608 40.9643 36.6538 50.8144 26.6466 51.4034Z" fill="#DFCFFF"/>
<path d="M33.002 41.4416C28.5757 45.7787 21.4692 45.704 17.1292 41.2748C12.7892 36.8456 12.8591 29.739 17.2853 25.4019C21.7116 21.0648 29.1072 21.9163 33.1581 25.5687C37.209 29.2212 37.4282 37.1045 33.002 41.4416Z" fill="white" stroke="#151417" stroke-linecap="round" stroke-linejoin="round"/>
<path d="M29.273 35.5068C28.1209 37.7836 25.34 38.6947 23.0617 37.5419C20.7834 36.389 19.8704 33.6087 21.0225 31.3319C22.1746 29.0551 25.171 28.4086 27.2338 29.2969C29.2966 30.1851 30.4251 33.23 29.273 35.5068Z" fill="#151417"/>
<path d="M48.1161 20.5509C48.5728 19.6484 49.8197 19.0512 50.386 18.8655L54.3504 17.5652L58.3148 16.2648C59.4475 15.8933 57.9297 17.9594 57.7394 18.3354C56.7894 19.9016 55.3844 22.056 55.0799 22.6577C54.8896 23.0337 55.6417 23.4143 56.3938 23.7949L61.2825 26.2687C62.4859 26.8776 61.2765 27.5252 60.5214 27.7729L53.7252 30.0021C52.8191 30.2993 51.5897 29.8661 51.0883 29.6124L45.2618 26.1917L48.1161 20.5509Z" fill="#600DFF"/>
<path d="M50.386 18.8655L50.2302 18.3904L50.2302 18.3904L50.386 18.8655ZM45.2618 26.1917L44.8156 25.966L44.6035 26.3851L45.0086 26.6229L45.2618 26.1917ZM51.0883 29.6124L50.8352 30.0436L50.8487 30.0515L50.8626 30.0586L51.0883 29.6124ZM53.7252 30.0021L53.8811 30.4771L53.8811 30.4771L53.7252 30.0021ZM57.7394 18.3354L58.1669 18.5947L58.1769 18.5783L58.1855 18.5612L57.7394 18.3354ZM58.3148 16.2648L58.159 15.7897L58.159 15.7897L58.3148 16.2648ZM54.3504 17.5652L54.5062 18.0403L54.5062 18.0403L54.3504 17.5652ZM50.2302 18.3904C49.9092 18.4956 49.4163 18.7094 48.9377 19.02C48.466 19.3262 47.9559 19.7601 47.67 20.3252L48.5622 20.7767C48.733 20.4392 49.0747 20.1233 49.4822 19.8588C49.8828 19.5988 50.2964 19.4211 50.5418 19.3406L50.2302 18.3904ZM47.67 20.3252L44.8156 25.966L45.7079 26.4175L48.5622 20.7767L47.67 20.3252ZM45.0086 26.6229L50.8352 30.0436L51.3415 29.1812L45.5149 25.7605L45.0086 26.6229ZM50.8626 30.0586C51.1487 30.2034 51.6222 30.3904 52.1509 30.5029C52.6717 30.6137 53.3068 30.6655 53.8811 30.4771L53.5694 29.527C53.2375 29.6358 52.8049 29.6197 52.3591 29.5248C51.9213 29.4316 51.5293 29.2752 51.3141 29.1663L50.8626 30.0586ZM53.8811 30.4771L60.6772 28.248L60.3655 27.2978L53.5694 29.527L53.8811 30.4771ZM60.6772 28.248C60.8873 28.1791 61.1306 28.082 61.3599 27.962C61.5824 27.8456 61.8252 27.6904 62.0051 27.4939C62.1838 27.2988 62.372 26.9763 62.2573 26.5851C62.1536 26.2314 61.8456 25.9932 61.5083 25.8225L61.0568 26.7148C61.3212 26.8486 61.3133 26.9197 61.2977 26.8664C61.271 26.7756 61.3353 26.7447 61.2676 26.8186C61.2012 26.8911 61.0753 26.9823 60.8963 27.076C60.724 27.1661 60.533 27.2429 60.3655 27.2978L60.6772 28.248ZM61.5083 25.8225L56.6196 23.3488L56.1681 24.241L61.0568 26.7148L61.5083 25.8225ZM56.6196 23.3488C56.23 23.1516 55.8969 22.9814 55.6795 22.8216C55.6285 22.7842 55.5911 22.7524 55.5648 22.7265C55.5379 22.6999 55.5299 22.6865 55.5303 22.6873C55.541 22.7055 55.5715 22.7935 55.526 22.8834L54.6338 22.4319C54.4931 22.7098 54.5463 22.9865 54.668 23.1937C54.7751 23.3761 54.9399 23.5192 55.0874 23.6275C55.3865 23.8473 55.8056 24.0576 56.1681 24.241L56.6196 23.3488ZM55.526 22.8834C55.665 22.6088 56.0756 21.9454 56.5911 21.124C57.0974 20.3173 57.6893 19.3821 58.1669 18.5947L57.3119 18.0761C56.8395 18.8549 56.2539 19.78 55.7441 20.5924C55.2434 21.3902 54.7992 22.1049 54.6338 22.4319L55.526 22.8834ZM58.1855 18.5612C58.2191 18.4947 58.3253 18.3325 58.4922 18.0671C58.6443 17.8252 58.8272 17.5264 58.9693 17.2455C59.0403 17.1053 59.1069 16.9583 59.1544 16.8175C59.198 16.6884 59.2444 16.5117 59.2273 16.3314C59.218 16.2345 59.1883 16.1132 59.1081 15.9988C59.0235 15.8781 58.9058 15.7979 58.778 15.7563C58.5541 15.6833 58.3246 15.7353 58.159 15.7897L58.4706 16.7399C58.5882 16.7013 58.5591 16.7367 58.4682 16.7071C58.407 16.6871 58.3389 16.6436 58.2892 16.5727C58.2438 16.5079 58.234 16.4493 58.2318 16.4261C58.2286 16.3931 58.2373 16.4076 58.2069 16.4976C58.1805 16.5758 58.1369 16.6758 58.0771 16.794C57.9575 17.0302 57.7962 17.2953 57.6455 17.5349C57.5097 17.751 57.3548 17.9881 57.2933 18.1097L58.1855 18.5612ZM58.159 15.7897L54.1945 17.0901L54.5062 18.0403L58.4707 16.7399L58.159 15.7897ZM54.1945 17.0901L50.2302 18.3904L50.5418 19.3406L54.5062 18.0403L54.1945 17.0901Z" fill="#151417"/>
<path d="M55.0545 23.5058C55.3153 23.4148 55.4528 23.1297 55.3618 22.869C55.2708 22.6083 54.9857 22.4707 54.725 22.5617L55.0545 23.5058ZM24.8945 32.9735C24.6338 33.0645 24.4962 33.3496 24.5872 33.6104C24.6782 33.8711 24.9634 34.0087 25.2241 33.9177L24.8945 32.9735ZM54.725 22.5617L24.8945 32.9735L25.2241 33.9177L55.0545 23.5058L54.725 22.5617Z" fill="#151417"/>
<path d="M69.124 20.5312L62.7746 22.8392" stroke="#151417" stroke-linecap="round"/>
<path d="M70.3232 16.697L64.729 18.9753" stroke="#151417" stroke-linecap="round"/>
<path d="M73 15.8304L72.0992 16.1148" stroke="#151417" stroke-linecap="round"/>
<path d="M59.8298 56.5729L50.2345 48.7924C49.869 48.496 49.5334 48.7287 49.4113 48.8822C48.1038 50.4725 45.4155 53.7453 45.1224 54.1135C44.8294 54.4818 45.0506 54.7285 45.1979 54.8058C48.6195 57.7486 55.7981 63.6536 57.1395 63.7315C58.8161 63.8289 59.9906 63.1404 61.0141 61.0673C61.8329 59.4088 61.5051 57.9314 59.8298 56.5729Z" fill="#151417" stroke="#151417" stroke-linecap="round"/>
</g>
<defs>
<clipPath id="clip0_1310_48531">
<rect width="72" height="72" fill="white"/>
</clipPath>
</defs>
</svg>
