<svg width="139" height="20" viewBox="0 0 139 20" fill="none" xmlns="http://www.w3.org/2000/svg">
<path d="M26.512 15.24C30.032 15.24 31.536 12.84 31.904 11.272L29.488 10.584C29.264 11.4 28.48 12.712 26.512 12.712C24.816 12.712 23.248 11.48 23.248 9.352C23.248 6.968 24.96 5.88 26.48 5.88C28.48 5.88 29.2 7.208 29.376 7.992L31.76 7.24C31.392 5.608 29.888 3.416 26.48 3.416C23.312 3.416 20.624 5.816 20.624 9.352C20.624 12.888 23.248 15.24 26.512 15.24ZM38.2664 15.24C41.7864 15.24 43.2904 12.84 43.6584 11.272L41.2424 10.584C41.0184 11.4 40.2344 12.712 38.2664 12.712C36.5704 12.712 35.0024 11.48 35.0024 9.352C35.0024 6.968 36.7144 5.88 38.2344 5.88C40.2344 5.88 40.9544 7.208 41.1304 7.992L43.5144 7.24C43.1464 5.608 41.6424 3.416 38.2344 3.416C35.0664 3.416 32.3784 5.816 32.3784 9.352C32.3784 12.888 35.0024 15.24 38.2664 15.24ZM47.3328 8.744V5.848H48.8048C49.7648 5.848 50.4208 6.392 50.4208 7.304C50.4208 8.184 49.7648 8.744 48.8048 8.744H47.3328ZM49.0608 10.92C51.3648 10.92 52.9488 9.432 52.9488 7.288C52.9488 5.176 51.3648 3.656 49.0608 3.656H44.7888V15H47.3168V10.92H49.0608ZM60.7346 15H63.4866L59.2626 3.656H56.3346L52.0626 15H54.7186L55.5346 12.696H59.9186L60.7346 15ZM57.7586 6.472L59.1186 10.392H56.3666L57.7586 6.472Z" fill="white"/>
<path d="M74.384 15.224C76.976 15.224 78.784 13.704 79.36 11.576L78.176 11.144C77.712 12.776 76.4 13.992 74.384 13.992C72.224 13.992 70.144 12.408 70.144 9.32C70.144 6.248 72.224 4.664 74.384 4.664C76.32 4.664 77.664 5.688 78.096 7.464L79.344 7.032C78.784 4.856 76.96 3.432 74.384 3.432C71.584 3.432 68.8 5.528 68.8 9.32C68.8 13.112 71.504 15.224 74.384 15.224ZM84.0175 7.112C81.8095 7.112 80.1775 8.808 80.1775 11.16C80.1775 13.528 81.8095 15.224 84.0175 15.224C86.2255 15.224 87.8575 13.528 87.8575 11.16C87.8575 8.808 86.2255 7.112 84.0175 7.112ZM84.0175 8.264C85.3935 8.264 86.5775 9.304 86.5775 11.16C86.5775 13.032 85.3935 14.072 84.0175 14.072C82.6415 14.072 81.4575 13.032 81.4575 11.16C81.4575 9.304 82.6415 8.264 84.0175 8.264ZM90.5985 7.336H89.3505V15H90.6305V10.36C90.6305 9.16 91.3825 8.264 92.5345 8.264C93.7505 8.264 94.3105 9.08 94.3105 10.136V15H95.5905V10.344C95.5905 9.192 96.3585 8.264 97.4945 8.264C98.6945 8.264 99.2545 9.08 99.2545 10.136V15H100.535V9.992C100.535 8.072 99.2865 7.112 97.8945 7.112C96.8065 7.112 95.8465 7.592 95.3025 8.68C94.9185 7.672 94.0065 7.112 92.9505 7.112C91.9585 7.112 91.0305 7.624 90.5985 8.424V7.336ZM103.729 18.04V13.816C104.129 14.536 105.009 15.224 106.321 15.224C108.529 15.224 109.841 13.448 109.841 11.16C109.841 8.872 108.609 7.112 106.353 7.112C104.993 7.112 104.097 7.832 103.697 8.616V7.336H102.449V18.04H103.729ZM106.129 14.072C104.657 14.072 103.697 12.856 103.697 11.16C103.697 9.464 104.641 8.264 106.129 8.264C107.617 8.264 108.561 9.464 108.561 11.16C108.561 12.856 107.601 14.072 106.129 14.072ZM112.624 15V3.432H111.344V15H112.624ZM115.925 15V7.336H114.645V15H115.925ZM114.325 4.312C114.325 4.84 114.757 5.272 115.285 5.272C115.813 5.272 116.245 4.84 116.245 4.312C116.245 3.784 115.813 3.352 115.285 3.352C114.757 3.352 114.325 3.784 114.325 4.312ZM117.402 12.968C117.402 14.136 118.346 15.224 119.93 15.224C121.306 15.224 122.138 14.472 122.474 13.848C122.474 14.44 122.538 14.824 122.57 15H123.818C123.77 14.76 123.722 14.36 123.722 13.72V9.848C123.722 8.36 122.81 7.112 120.634 7.112C118.986 7.112 117.706 8.104 117.546 9.56L118.762 9.848C118.874 8.872 119.546 8.2 120.666 8.2C121.866 8.2 122.442 8.856 122.442 9.72C122.442 10.056 122.314 10.296 121.754 10.376L119.69 10.68C118.346 10.872 117.402 11.624 117.402 12.968ZM120.09 14.136C119.21 14.136 118.682 13.528 118.682 12.904C118.682 12.152 119.21 11.736 119.946 11.624L122.442 11.256V11.768C122.442 13.4 121.418 14.136 120.09 14.136ZM126.934 10.488C126.934 9.288 127.622 8.264 128.854 8.264C130.246 8.264 130.758 9.16 130.758 10.28V15H132.038V10.088C132.038 8.424 131.142 7.112 129.302 7.112C128.294 7.112 127.398 7.592 126.902 8.488V7.336H125.654V15H126.934V10.488ZM135.733 4.904H134.533V6.168C134.533 6.888 134.197 7.336 133.413 7.336H132.917V8.488H134.453V12.904C134.453 14.296 135.269 15.08 136.533 15.08C137.029 15.08 137.397 14.984 137.541 14.936V13.848C137.413 13.88 137.125 13.928 136.901 13.928C136.085 13.928 135.733 13.528 135.733 12.728V8.488H137.541V7.336H135.733V4.904Z" fill="white"/>
<circle cx="8" cy="9" r="8" fill="white"/>
<path d="M6.28286 11.7843L4.17772 9.59878C3.94076 9.35278 3.94076 8.95593 4.17772 8.70993C4.41267 8.46602 4.79506 8.46451 5.03182 8.70657C5.03271 8.70748 5.0336 8.7084 5.03449 8.70932L6.7857 10.5223L10.9648 6.18368C11.1995 5.94009 11.5814 5.93859 11.8178 6.18032C11.8194 6.18195 11.821 6.18359 11.8225 6.18524C12.0597 6.43323 12.0591 6.8317 11.821 7.07883L7.28854 11.7843C7.01295 12.0704 6.56441 12.0721 6.2867 11.7882C6.28541 11.7869 6.28414 11.7856 6.28286 11.7843Z" fill="#600DFF"/>
</svg>
