<svg width="72" height="72" viewBox="0 0 72 72" fill="none" xmlns="http://www.w3.org/2000/svg">
<g clip-path="url(#clip0_3422_70117)">
<path d="M25.7998 19.6078L25.5764 14.4982L35.0403 14.3404L34.5439 19.3791L25.7998 19.6078Z" fill="#151417"/>
<path d="M48.4737 21.8417L46.3196 25.2634C46.9449 26.2941 48.2745 28.2905 48.5908 28.031C48.9861 27.7065 51.2821 22.8452 51.3175 22.4853C51.353 22.1254 50.6686 21.6945 49.9843 21.2637C49.2999 20.8329 48.7491 21.5054 48.4737 21.8417Z" fill="#151417"/>
<path d="M9.82748 23.1217L12.7829 26.32C13.6936 25.683 15.5221 24.3369 15.5505 24.0489C15.5859 23.689 11.9107 20.4197 11.1909 20.3488C10.4711 20.2779 10.0402 20.9622 9.60942 21.6466L9.60941 21.6466C9.26475 22.1941 9.61118 22.8581 9.82748 23.1217Z" fill="#151417"/>
<path d="M25.7998 19.6078L25.5764 14.4982L35.0403 14.3404L34.5439 19.3791L25.7998 19.6078Z" stroke="#151417" stroke-width="1.02857" stroke-linecap="round"/>
<path d="M48.4737 21.8417L46.3196 25.2634C46.9449 26.2941 48.2745 28.2905 48.5908 28.031C48.9861 27.7065 51.2821 22.8452 51.3175 22.4853C51.353 22.1254 50.6686 21.6945 49.9843 21.2637C49.2999 20.8329 48.7491 21.5054 48.4737 21.8417Z" stroke="#151417" stroke-width="1.02857" stroke-linecap="round"/>
<path d="M9.82748 23.1217L12.7829 26.32C13.6936 25.683 15.5221 24.3369 15.5505 24.0489C15.5859 23.689 11.9107 20.4197 11.1909 20.3488C10.4711 20.2779 10.0402 20.9622 9.60942 21.6466L9.60941 21.6466C9.26475 22.1941 9.61118 22.8581 9.82748 23.1217Z" stroke="#151417" stroke-width="1.02857" stroke-linecap="round"/>
<path d="M54.1018 40.8367C54.9905 54.2006 44.6654 65.7687 31.0402 66.6747C17.415 67.5807 5.64924 57.4816 4.7606 44.1177C3.87196 30.7538 15.909 19.8021 27.8222 18.2797C39.7354 16.7573 53.2132 27.4728 54.1018 40.8367Z" fill="white" stroke="#151417" stroke-linecap="round" stroke-linejoin="round"/>
<path d="M48.4727 49.2626C45.0053 59.5348 33.7042 64.9963 23.2311 61.461C12.758 57.9258 7.07874 46.7326 10.5462 36.4603C14.0136 26.188 26.4049 21.7171 35.7878 24.2618C45.1708 26.8066 51.9402 38.9903 48.4727 49.2626Z" fill="white" stroke="#151417" stroke-width="1.02857" stroke-linecap="round" stroke-linejoin="round"/>
<path d="M37.171 10.5244L22.633 10.5457C21.5533 10.4393 21.4706 11.2791 21.4469 11.5191C21.376 12.2389 21.4148 12.9254 21.5941 13.7139C21.8476 14.8291 22.591 14.6601 23.3227 14.611C27.557 14.6648 36.709 14.4763 37.8607 14.5898C39.0124 14.7033 39.3712 14.0118 39.4067 13.6519C39.4658 13.0521 39.5262 11.7013 39.295 11.0971C39.0638 10.4929 37.7827 10.4636 37.171 10.5244Z" fill="#600DFF"/>
<path d="M22.633 10.5457L22.5826 11.0575L22.6081 11.06L22.6338 11.06L22.633 10.5457ZM37.171 10.5244L37.1718 11.0387L37.1969 11.0387L37.2219 11.0362L37.171 10.5244ZM39.295 11.0971L39.7753 10.9133L39.7753 10.9133L39.295 11.0971ZM23.3227 14.611L23.3292 14.0968L23.3087 14.0965L23.2883 14.0979L23.3227 14.611ZM21.5941 13.7139L21.0926 13.8279L21.0926 13.8279L21.5941 13.7139ZM22.6338 11.06L37.1718 11.0387L37.1703 10.0102L22.6323 10.0314L22.6338 11.06ZM37.2219 11.0362C37.4962 11.0089 37.9199 11.003 38.2861 11.0678C38.4696 11.1002 38.6124 11.1459 38.709 11.1976C38.7555 11.2225 38.7831 11.2445 38.7983 11.2597C38.8122 11.2737 38.8146 11.2807 38.8147 11.2809L39.7753 10.9133C39.6585 10.6081 39.4225 10.4128 39.1942 10.2907C38.9665 10.1688 38.7074 10.0977 38.4652 10.0549C37.9802 9.96919 37.4575 9.9791 37.1201 10.0127L37.2219 11.0362ZM38.8147 11.2809C38.8943 11.4889 38.939 11.8945 38.9454 12.3829C38.9516 12.8491 38.9229 13.3174 38.8949 13.6015L39.9185 13.7023C39.9496 13.3866 39.9806 12.8796 39.9739 12.3694C39.9675 11.8814 39.9269 11.3095 39.7753 10.9133L38.8147 11.2809ZM38.8949 13.6015C38.8888 13.6632 38.845 13.7989 38.718 13.9075C38.6046 14.0045 38.3736 14.1235 37.9111 14.078L37.8103 15.1016C38.4994 15.1695 39.0237 14.9996 39.3866 14.6892C39.7357 14.3905 39.8891 14.0005 39.9185 13.7023L38.8949 13.6015ZM37.9111 14.078C37.5913 14.0465 36.7712 14.0376 35.6983 14.0385C34.6098 14.0394 33.2234 14.0507 31.7431 14.0638C28.7785 14.09 25.4393 14.1236 23.3292 14.0968L23.3161 15.1253C25.4404 15.1523 28.7943 15.1185 31.7522 15.0923C33.2332 15.0792 34.6154 15.068 35.6991 15.0671C36.7984 15.0662 37.5542 15.0764 37.8103 15.1016L37.9111 14.078ZM23.2883 14.0979C23.0746 14.1122 22.9305 14.1293 22.7641 14.1343C22.6097 14.139 22.5029 14.1288 22.4244 14.1057C22.3566 14.0858 22.308 14.0559 22.2634 14.0023C22.2132 13.9421 22.1469 13.8256 22.0956 13.5999L21.0926 13.8279C21.168 14.1598 21.2897 14.4404 21.4731 14.6606C21.662 14.8875 21.8926 15.0214 22.1338 15.0924C22.3643 15.1603 22.5964 15.1684 22.7951 15.1624C22.9818 15.1568 23.2049 15.1344 23.3571 15.1242L23.2883 14.0979ZM22.0956 13.5999C21.9283 12.8641 21.8933 12.2331 21.9587 11.5695L20.9351 11.4686C20.8587 12.2447 20.9013 12.9867 21.0926 13.8279L22.0956 13.5999ZM21.9587 11.5695C21.9709 11.4464 21.9919 11.3022 22.0653 11.1974C22.095 11.155 22.1337 11.1191 22.1955 11.093C22.2605 11.0656 22.3789 11.0375 22.5826 11.0575L22.6834 10.0339C21.9843 9.96503 21.5017 10.2088 21.2226 10.6076C20.9787 10.9561 20.9466 11.3518 20.9351 11.4686L21.9587 11.5695Z" fill="#151417"/>
<mask id="mask0_3422_70117" style="mask-type:alpha" maskUnits="userSpaceOnUse" x="8" y="23" width="42" height="41">
<path d="M48.0706 50.0209C44.6091 60.2938 33.334 65.7578 22.8869 62.2251C12.4399 58.6924 6.77704 47.5008 10.2386 37.228C13.7001 26.9551 26.0625 22.4813 35.4222 25.0238C44.782 27.5663 51.5321 39.7481 48.0706 50.0209Z" fill="white" stroke="#151417" stroke-width="1.02857" stroke-linecap="round" stroke-linejoin="round"/>
</mask>
<g mask="url(#mask0_3422_70117)">
<path d="M28.7557 42.7859C28.4549 42.5095 28.9008 30.0249 29.2523 24.2179C29.127 24.1027 31.0873 24.0353 31.0873 24.0353C37.2766 23.9183 42.7274 27.9213 45.5296 32.3627C47.7298 35.8501 49.1392 39.9863 48.8201 43.2255C47.7388 43.2728 29.1317 43.1314 28.7557 42.7859Z" fill="#DFCFFF"/>
</g>
<path d="M29.6059 56.2585C29.5985 55.9746 29.3623 55.7504 29.0784 55.7579C28.7944 55.7653 28.5703 56.0015 28.5777 56.2854L29.6059 56.2585ZM28.6539 59.2001C28.6613 59.484 28.8975 59.7082 29.1815 59.7008C29.4654 59.6933 29.6896 59.4572 29.6821 59.1732L28.6539 59.2001ZM28.5777 56.2854L28.6539 59.2001L29.6821 59.1732L29.6059 56.2585L28.5777 56.2854Z" fill="#151417"/>
<path d="M30.4252 25.8135C30.4178 25.5295 30.1816 25.3054 29.8977 25.3128C29.6138 25.3202 29.3896 25.5564 29.397 25.8404L30.4252 25.8135ZM29.4733 28.755C29.4807 29.039 29.7169 29.2631 30.0008 29.2557C30.2847 29.2483 30.5089 29.0121 30.5015 28.7282L29.4733 28.755ZM29.397 25.8404L29.4733 28.755L30.5015 28.7282L30.4252 25.8135L29.397 25.8404Z" fill="#151417"/>
<path d="M11.5334 42.0372C11.2495 42.0446 11.0253 42.2808 11.0328 42.5647C11.0402 42.8487 11.2764 43.0728 11.5603 43.0654L11.5334 42.0372ZM14.475 42.9891C14.7589 42.9817 14.9831 42.7455 14.9757 42.4616C14.9683 42.1777 14.7321 41.9535 14.4481 41.9609L14.475 42.9891ZM11.5603 43.0654L14.475 42.9891L14.4481 41.9609L11.5334 42.0372L11.5603 43.0654Z" fill="#151417"/>
<path d="M36.143 34.9955L27.8758 41.449C26.3011 42.6782 27.1968 44.6526 28.6718 44.4346C29.5305 44.3077 31.1404 42.7397 31.8348 41.839C33.8707 39.617 37.7643 35.1596 37.6181 34.7775C37.3291 34.0222 36.5265 34.7911 36.143 34.9955Z" fill="#151417" stroke="#151417" stroke-width="0.685714" stroke-linecap="round"/>
<path d="M43.7112 42.5992C43.4272 42.6066 43.2031 42.8428 43.2105 43.1267C43.2179 43.4107 43.4541 43.6348 43.7381 43.6274L43.7112 42.5992ZM46.6527 43.5512C46.9367 43.5437 47.1608 43.3075 47.1534 43.0236C47.146 42.7397 46.9098 42.5155 46.6259 42.5229L46.6527 43.5512ZM43.7381 43.6274L46.6527 43.5512L46.6259 42.5229L43.7112 42.5992L43.7381 43.6274Z" fill="#151417"/>
</g>
<defs>
<clipPath id="clip0_3422_70117">
<rect width="72" height="72" fill="white"/>
</clipPath>
</defs>
</svg>
