<?xml version="1.0" encoding="UTF-8"?> <svg xmlns="http://www.w3.org/2000/svg" width="57" height="56" viewBox="0 0 57 56" fill="none"><rect width="56" height="56" transform="translate(0.0400391)" fill="white"></rect><ellipse cx="28.7891" cy="43.8959" rx="21.8604" ry="6.05511" stroke="#151417" stroke-linecap="round" stroke-dasharray="2 3"></ellipse><ellipse cx="28.7837" cy="43.3527" rx="10.1626" ry="2.71011" fill="#151417"></ellipse><path d="M14.6992 22.3982C16.2561 28.8977 24.1529 38.3948 28.0596 42.9654C28.6517 43.6668 29.2053 43.2577 29.4081 42.9654C33.959 37.9457 42.0999 27.8359 43.0608 21.1094C44.1742 13.316 38.3135 5.93301 28.0596 6.0502C17.8057 6.1674 13.0571 15.5431 14.6992 22.3982Z" fill="white" stroke="#151417" stroke-linecap="round"></path><path d="M18.9515 18.628C19.3273 17.1827 19.7908 13.3672 25.7146 11.0838C26.6762 10.774 28.6251 10.4924 30.786 10.9436C31.9173 11.1798 33.1067 11.6168 34.2428 12.3558C35.9929 13.494 37.0851 14.8499 37.7627 16.2764C38.6853 18.2189 38.7988 20.2891 38.7129 21.8365C38.5137 25.4256 35.054 30.9136 28.7514 30.8742C27.9787 30.8694 27.1479 30.8572 26.3224 30.5948C20.0605 28.6043 18.9545 23.6243 18.8371 20.5112C18.8037 19.6275 18.8684 18.9476 18.9515 18.628Z" fill="white"></path><path d="M25.7146 11.0838C19.7908 13.3672 19.3273 17.1827 18.9515 18.628C18.8684 18.9476 18.8037 19.6275 18.8371 20.5112C19.3381 20.0762 20.5771 19.2524 21.5251 19.4374C22.7103 19.6686 23.0571 20.2467 24.2133 21.2584C25.3696 22.2701 26.4101 23.3396 27.8843 21.8365C29.0637 20.634 28.0674 18.9074 27.4218 18.1944C26.6703 17.4429 25.4389 15.7837 26.5258 15.1594C27.8843 14.3789 29.1851 14.5524 30.11 13.7141C30.85 13.0435 30.869 11.5877 30.786 10.9436C28.6251 10.4924 26.6762 10.774 25.7146 11.0838Z" fill="#600DFF"></path><path d="M38.7129 21.8365C38.7988 20.2891 38.6853 18.2189 37.7627 16.2764C36.9846 16.2702 35.3881 16.5121 35.2263 17.5296C34.9866 19.0359 36.0356 19.4663 36.0934 20.9693C36.1512 22.4724 34.2428 23.534 33.463 23.9466C30.786 25.363 29.0116 25.6231 28.3468 27.4441C27.8149 28.901 28.3949 30.3379 28.7514 30.8742C35.054 30.9136 38.5137 25.4256 38.7129 21.8365Z" fill="#600DFF"></path><path d="M25.7146 11.0838C19.7908 13.3672 19.3273 17.1827 18.9515 18.628C18.8684 18.9476 18.8037 19.6275 18.8371 20.5112C19.3381 20.0762 20.5771 19.2524 21.5251 19.4374C22.7103 19.6686 23.0571 20.2467 24.2133 21.2584C25.3696 22.2701 26.4101 23.3396 27.8843 21.8365C29.0637 20.634 28.0674 18.9074 27.4218 18.1944C26.6703 17.4429 25.4389 15.7837 26.5258 15.1594C27.8843 14.3789 29.1851 14.5524 30.11 13.7141C30.85 13.0435 30.869 11.5877 30.786 10.9436C28.6251 10.4924 26.6762 10.774 25.7146 11.0838Z" stroke="#600DFF" stroke-linecap="round"></path><path d="M38.7129 21.8365C38.7988 20.2891 38.6853 18.2189 37.7627 16.2764C36.9846 16.2702 35.3881 16.5121 35.2263 17.5296C34.9866 19.0359 36.0356 19.4663 36.0934 20.9693C36.1512 22.4724 34.2428 23.534 33.463 23.9466C30.786 25.363 29.0116 25.6231 28.3468 27.4441C27.8149 28.901 28.3949 30.3379 28.7514 30.8742C35.054 30.9136 38.5137 25.4256 38.7129 21.8365Z" stroke="#600DFF" stroke-linecap="round"></path><path d="M25.7146 11.0838C19.7908 13.3672 19.3273 17.1827 18.9515 18.628C18.8684 18.9476 18.8037 19.6275 18.8371 20.5112C18.9545 23.6243 20.0605 28.6043 26.3224 30.5948C27.1479 30.8572 27.9787 30.8694 28.7514 30.8742C35.054 30.9136 38.5137 25.4256 38.7129 21.8365C38.7988 20.2891 38.6853 18.2189 37.7627 16.2764C37.0851 14.8499 35.9929 13.494 34.2428 12.3558C33.1067 11.6168 31.9173 11.1798 30.786 10.9436C28.6251 10.4924 26.6762 10.774 25.7146 11.0838Z" stroke="#151417" stroke-linecap="round"></path></svg> 