<?xml version="1.0" encoding="UTF-8"?> <svg xmlns="http://www.w3.org/2000/svg" width="57" height="56" viewBox="0 0 57 56" fill="none"><rect width="56" height="56" transform="translate(0.0800781)" fill="white"></rect><path d="M44.634 10.3274L27.7284 7.84437C25.2639 7.48238 25.2215 8.71117 24.9403 10.6279C23.5849 19.9261 20.8384 39.209 20.493 41.3934C20.1476 43.5778 21.0075 43.8301 22.4216 44.0378L38.8137 46.4454C41.6623 46.8638 41.8127 45.8404 42.0209 44.4223C43.8911 31.6896 46.324 15.3345 46.6382 12.9859C46.8896 11.107 45.9778 10.5248 44.634 10.3274Z" fill="white" stroke="#151417"></path><rect x="26.8879" y="12.4412" width="17.4577" height="25.229" rx="1" transform="rotate(8.35567 26.8879 12.4412)" fill="#600DFF"></rect><line x1="34.2677" y1="11.5658" x2="37.345" y2="12.0177" stroke="#151417" stroke-linecap="round"></line><circle cx="31.4085" cy="41.7148" r="1.56858" transform="rotate(8.35567 31.4085 41.7148)" fill="#151417"></circle><path d="M23.898 15.5562C28.2646 18.4601 28.3498 23.4809 27.7151 26.5223C27.5982 27.0824 28.8459 27.6981 30.3627 28.0147C30.7536 28.0963 30.6517 28.2369 30.2963 28.5962C29.2243 29.6797 27.5638 29.5822 26.8084 29.5652C26.3652 29.5552 26.227 29.4518 26.1591 29.5736C24.5915 31.4549 21.2449 33.9698 16.3426 32.9467C11.006 31.8329 7.16314 25.6092 9.55635 19.7778C11.9605 13.9198 18.967 12.277 23.898 15.5562Z" fill="white" stroke="#151417" stroke-linecap="round"></path><path d="M12.4968 22.2282C12.2276 22.1666 11.9594 22.3348 11.8978 22.604C11.8361 22.8732 12.0044 23.1414 12.2736 23.203L12.4968 22.2282ZM14.0946 22.5558L14.3192 23.0025L14.0946 22.5558ZM23.1845 20.6728C23.4416 20.572 23.5682 20.2818 23.4673 20.0247C23.3664 19.7677 23.0762 19.6411 22.8192 19.742L23.1845 20.6728ZM12.2736 23.203C12.5342 23.2627 12.836 23.3299 13.1784 23.3186C13.531 23.3069 13.8978 23.2144 14.3192 23.0025L13.87 22.1091C13.5588 22.2655 13.3332 22.3129 13.1454 22.3191C12.9473 22.3257 12.7607 22.2887 12.4968 22.2282L12.2736 23.203ZM14.3192 23.0025C15.2854 22.5168 15.9239 22.176 16.5999 22.2127L16.6542 21.2142C15.6504 21.1597 14.7352 21.6741 13.87 22.1091L14.3192 23.0025ZM16.5999 22.2127C17.5234 22.2629 17.8703 22.1776 19.7069 21.7437L19.4769 20.7705C17.618 21.2096 17.4105 21.2553 16.6542 21.2142L16.5999 22.2127ZM19.7069 21.7437C21.2126 21.3879 22.6465 20.884 23.1845 20.6728L22.8192 19.742C22.3157 19.9396 20.9276 20.4277 19.4769 20.7705L19.7069 21.7437Z" fill="#151417"></path><path d="M11.9721 26.4622C11.8268 26.6971 11.8995 27.0052 12.1343 27.1505C12.3692 27.2957 12.6773 27.2231 12.8225 26.9882L11.9721 26.4622ZM14.4298 26.245L14.3922 25.7465L14.4298 26.245ZM25.0767 24.2435C25.3455 24.18 25.5118 23.9106 25.4484 23.6419C25.3849 23.3732 25.1155 23.2068 24.8468 23.2703L25.0767 24.2435ZM12.8225 26.9882C12.7657 27.0802 12.7068 27.0943 12.7712 27.0608C12.8135 27.0387 12.8958 27.0036 13.0332 26.9637C13.307 26.8843 13.761 26.797 14.4675 26.7436L14.3922 25.7465C13.6421 25.8031 13.1153 25.8987 12.7546 26.0033C12.5747 26.0555 12.4264 26.1127 12.3086 26.1742C12.2128 26.2242 12.0643 26.3131 11.9721 26.4622L12.8225 26.9882ZM14.4675 26.7436C15.3499 26.677 15.9729 26.6486 16.4967 26.5447C17.0561 26.4337 17.5086 26.2382 18.0985 25.864L17.5628 25.0196C17.0498 25.345 16.7122 25.4824 16.3021 25.5638C15.8562 25.6522 15.3302 25.6756 14.3922 25.7465L14.4675 26.7436ZM18.0985 25.864C18.5643 25.5685 19.0429 25.4507 19.5433 25.3837C19.8008 25.3492 20.044 25.3302 20.3111 25.3032C20.5684 25.2773 20.8395 25.2445 21.104 25.182L20.8741 24.2088C20.6767 24.2555 20.4598 24.2831 20.2107 24.3083C19.9713 24.3324 19.6894 24.3552 19.4105 24.3925C18.8384 24.4692 18.1997 24.6155 17.5628 25.0196L18.0985 25.864ZM21.104 25.182C21.1058 25.1816 21.1076 25.1812 21.1095 25.1807C21.1113 25.1803 21.1131 25.1799 21.1149 25.1794C21.1168 25.179 21.1186 25.1786 21.1204 25.1781C21.1223 25.1777 21.1241 25.1773 21.126 25.1768C21.1278 25.1764 21.1297 25.176 21.1316 25.1755C21.1334 25.1751 21.1353 25.1746 21.1372 25.1742C21.1391 25.1737 21.1409 25.1733 21.1428 25.1728C21.1447 25.1724 21.1466 25.172 21.1485 25.1715C21.1504 25.1711 21.1523 25.1706 21.1543 25.1702C21.1562 25.1697 21.1581 25.1692 21.16 25.1688C21.162 25.1683 21.1639 25.1679 21.1658 25.1674C21.1678 25.167 21.1697 25.1665 21.1717 25.166C21.1736 25.1656 21.1756 25.1651 21.1775 25.1646C21.1795 25.1642 21.1815 25.1637 21.1835 25.1633C21.1854 25.1628 21.1874 25.1623 21.1894 25.1618C21.1914 25.1614 21.1934 25.1609 21.1954 25.1604C21.1974 25.16 21.1994 25.1595 21.2014 25.159C21.2034 25.1585 21.2054 25.1581 21.2075 25.1576C21.2095 25.1571 21.2115 25.1566 21.2136 25.1561C21.2156 25.1557 21.2176 25.1552 21.2197 25.1547C21.2217 25.1542 21.2238 25.1537 21.2258 25.1532C21.2279 25.1528 21.23 25.1523 21.232 25.1518C21.2341 25.1513 21.2362 25.1508 21.2383 25.1503C21.2403 25.1498 21.2424 25.1493 21.2445 25.1488C21.2466 25.1483 21.2487 25.1478 21.2508 25.1473C21.2529 25.1468 21.255 25.1463 21.2571 25.1458C21.2593 25.1453 21.2614 25.1448 21.2635 25.1443C21.2656 25.1438 21.2678 25.1433 21.2699 25.1428C21.272 25.1423 21.2742 25.1418 21.2763 25.1413C21.2785 25.1408 21.2806 25.1403 21.2828 25.1398C21.2849 25.1393 21.2871 25.1388 21.2893 25.1383C21.2915 25.1377 21.2936 25.1372 21.2958 25.1367C21.298 25.1362 21.3002 25.1357 21.3024 25.1352C21.3046 25.1346 21.3068 25.1341 21.309 25.1336C21.3112 25.1331 21.3134 25.1326 21.3156 25.132C21.3178 25.1315 21.32 25.131 21.3222 25.1305C21.3245 25.1299 21.3267 25.1294 21.3289 25.1289C21.3312 25.1284 21.3334 25.1278 21.3357 25.1273C21.3379 25.1268 21.3402 25.1262 21.3424 25.1257C21.3447 25.1252 21.3469 25.1246 21.3492 25.1241C21.3515 25.1236 21.3537 25.123 21.356 25.1225C21.3583 25.1219 21.3606 25.1214 21.3629 25.1209C21.3651 25.1203 21.3674 25.1198 21.3697 25.1192C21.372 25.1187 21.3743 25.1182 21.3766 25.1176C21.379 25.1171 21.3813 25.1165 21.3836 25.116C21.3859 25.1154 21.3882 25.1149 21.3906 25.1143C21.3929 25.1138 21.3952 25.1132 21.3976 25.1127C21.3999 25.1121 21.4022 25.1116 21.4046 25.111C21.4069 25.1105 21.4093 25.1099 21.4116 25.1093C21.414 25.1088 21.4164 25.1082 21.4187 25.1077C21.4211 25.1071 21.4235 25.1065 21.4259 25.106C21.4282 25.1054 21.4306 25.1049 21.433 25.1043C21.4354 25.1037 21.4378 25.1032 21.4402 25.1026C21.4426 25.102 21.445 25.1015 21.4474 25.1009C21.4498 25.1003 21.4522 25.0998 21.4546 25.0992C21.457 25.0986 21.4595 25.098 21.4619 25.0975C21.4643 25.0969 21.4668 25.0963 21.4692 25.0957C21.4716 25.0952 21.4741 25.0946 21.4765 25.094C21.479 25.0934 21.4814 25.0929 21.4839 25.0923C21.4863 25.0917 21.4888 25.0911 21.4912 25.0905C21.4937 25.09 21.4962 25.0894 21.4986 25.0888C21.5011 25.0882 21.5036 25.0876 21.5061 25.087C21.5086 25.0864 21.511 25.0859 21.5135 25.0853C21.516 25.0847 21.5185 25.0841 21.521 25.0835C21.5235 25.0829 21.526 25.0823 21.5285 25.0817C21.5311 25.0811 21.5336 25.0805 21.5361 25.0799C21.5386 25.0793 21.5411 25.0788 21.5437 25.0782C21.5462 25.0776 21.5487 25.077 21.5513 25.0764C21.5538 25.0758 21.5563 25.0752 21.5589 25.0746C21.5614 25.074 21.564 25.0734 21.5665 25.0728C21.5691 25.0721 21.5716 25.0715 21.5742 25.0709C21.5768 25.0703 21.5793 25.0697 21.5819 25.0691C21.5845 25.0685 21.5871 25.0679 21.5896 25.0673C21.5922 25.0667 21.5948 25.0661 21.5974 25.0655C21.6 25.0648 21.6026 25.0642 21.6052 25.0636C21.6078 25.063 21.6104 25.0624 21.613 25.0618C21.6156 25.0612 21.6182 25.0605 21.6208 25.0599C21.6234 25.0593 21.626 25.0587 21.6287 25.0581C21.6313 25.0575 21.6339 25.0568 21.6365 25.0562C21.6392 25.0556 21.6418 25.055 21.6444 25.0543C21.6471 25.0537 21.6497 25.0531 21.6524 25.0525C21.655 25.0518 21.6577 25.0512 21.6603 25.0506C21.663 25.05 21.6656 25.0493 21.6683 25.0487C21.671 25.0481 21.6736 25.0474 21.6763 25.0468C21.679 25.0462 21.6816 25.0456 21.6843 25.0449C21.687 25.0443 21.6897 25.0437 21.6924 25.043C21.6951 25.0424 21.6978 25.0418 21.7004 25.0411C21.7031 25.0405 21.7058 25.0398 21.7085 25.0392C21.7112 25.0386 21.714 25.0379 21.7167 25.0373C21.7194 25.0366 21.7221 25.036 21.7248 25.0354C21.7275 25.0347 21.7302 25.0341 21.733 25.0334C21.7357 25.0328 21.7384 25.0321 21.7412 25.0315C21.7439 25.0309 21.7466 25.0302 21.7494 25.0296C21.7521 25.0289 21.7548 25.0283 21.7576 25.0276C21.7603 25.027 21.7631 25.0263 21.7659 25.0257C21.7686 25.025 21.7714 25.0244 21.7741 25.0237C21.7769 25.0231 21.7797 25.0224 21.7824 25.0217C21.7852 25.0211 21.788 25.0204 21.7907 25.0198C21.7935 25.0191 21.7963 25.0185 21.7991 25.0178C21.8019 25.0172 21.8047 25.0165 21.8074 25.0158C21.8102 25.0152 21.813 25.0145 21.8158 25.0139C21.8186 25.0132 21.8214 25.0125 21.8242 25.0119C21.827 25.0112 21.8299 25.0105 21.8327 25.0099C21.8355 25.0092 21.8383 25.0085 21.8411 25.0079C21.8439 25.0072 21.8467 25.0065 21.8496 25.0059C21.8524 25.0052 21.8552 25.0045 21.8581 25.0039C21.8609 25.0032 21.8637 25.0025 21.8666 25.0019C21.8694 25.0012 21.8722 25.0005 21.8751 24.9999C21.8779 24.9992 21.8808 24.9985 21.8836 24.9978C21.8865 24.9972 21.8893 24.9965 21.8922 24.9958C21.8951 24.9951 21.8979 24.9945 21.9008 24.9938C21.9037 24.9931 21.9065 24.9924 21.9094 24.9917C21.9123 24.9911 21.9151 24.9904 21.918 24.9897C21.9209 24.989 21.9238 24.9884 21.9267 24.9877C21.9295 24.987 21.9324 24.9863 21.9353 24.9856C21.9382 24.9849 21.9411 24.9843 21.944 24.9836C21.9469 24.9829 21.9498 24.9822 21.9527 24.9815C21.9556 24.9808 21.9585 24.9801 21.9614 24.9795C21.9643 24.9788 21.9672 24.9781 21.9702 24.9774C21.9731 24.9767 21.976 24.976 21.9789 24.9753C21.9818 24.9746 21.9848 24.9739 21.9877 24.9733C21.9906 24.9726 21.9935 24.9719 21.9965 24.9712C21.9994 24.9705 22.0023 24.9698 22.0053 24.9691C22.0082 24.9684 22.0112 24.9677 22.0141 24.967C22.017 24.9663 22.02 24.9656 22.0229 24.9649C22.0259 24.9642 22.0288 24.9635 22.0318 24.9628C22.0347 24.9621 22.0377 24.9614 22.0407 24.9607C22.0436 24.96 22.0466 24.9593 22.0496 24.9586C22.0525 24.9579 22.0555 24.9572 22.0585 24.9565C22.0614 24.9558 22.0644 24.9551 22.0674 24.9544C22.0704 24.9537 22.0733 24.953 22.0763 24.9523C22.0793 24.9516 22.0823 24.9509 22.0853 24.9502C22.0883 24.9495 22.0913 24.9488 22.0942 24.9481C22.0972 24.9474 22.1002 24.9467 22.1032 24.946C22.1062 24.9452 22.1092 24.9445 22.1122 24.9438C22.1152 24.9431 22.1182 24.9424 22.1213 24.9417C22.1243 24.941 22.1273 24.9403 22.1303 24.9396C22.1333 24.9389 22.1363 24.9381 22.1393 24.9374C22.1423 24.9367 22.1454 24.936 22.1484 24.9353C22.1514 24.9346 22.1544 24.9339 22.1575 24.9331C22.1605 24.9324 22.1635 24.9317 22.1666 24.931C22.1696 24.9303 22.1726 24.9296 22.1757 24.9288C22.1787 24.9281 22.1817 24.9274 22.1848 24.9267C22.1878 24.926 22.1909 24.9253 22.1939 24.9245C22.197 24.9238 22.2 24.9231 22.2031 24.9224C22.2061 24.9217 22.2092 24.9209 22.2122 24.9202C22.2153 24.9195 22.2183 24.9188 22.2214 24.918C22.2244 24.9173 22.2275 24.9166 22.2306 24.9159C22.2336 24.9151 22.2367 24.9144 22.2398 24.9137C22.2428 24.913 22.2459 24.9122 22.249 24.9115C22.2521 24.9108 22.2551 24.9101 22.2582 24.9093C22.2613 24.9086 22.2644 24.9079 22.2674 24.9072C22.2705 24.9064 22.2736 24.9057 22.2767 24.905C22.2798 24.9042 22.2829 24.9035 22.286 24.9028C22.289 24.9021 22.2921 24.9013 22.2952 24.9006C22.2983 24.8999 22.3014 24.8991 22.3045 24.8984C22.3076 24.8977 22.3107 24.8969 22.3138 24.8962C22.3169 24.8955 22.32 24.8947 22.3231 24.894C22.3262 24.8933 22.3293 24.8925 22.3324 24.8918C22.3355 24.8911 22.3387 24.8903 22.3418 24.8896C22.3449 24.8889 22.348 24.8881 22.3511 24.8874C22.3542 24.8867 22.3573 24.8859 22.3605 24.8852C22.3636 24.8844 22.3667 24.8837 22.3698 24.883C22.3729 24.8822 22.3761 24.8815 22.3792 24.8808C22.3823 24.88 22.3854 24.8793 22.3886 24.8785C22.3917 24.8778 22.3948 24.8771 22.398 24.8763C22.4011 24.8756 22.4042 24.8748 22.4074 24.8741C22.4105 24.8734 22.4136 24.8726 22.4168 24.8719C22.4199 24.8711 22.4231 24.8704 22.4262 24.8697C22.4294 24.8689 22.4325 24.8682 22.4356 24.8674C22.4388 24.8667 22.4419 24.8659 22.4451 24.8652C22.4482 24.8644 22.4514 24.8637 22.4545 24.863C22.4577 24.8622 22.4608 24.8615 22.464 24.8607C22.4672 24.86 22.4703 24.8592 22.4735 24.8585C22.4766 24.8577 22.4798 24.857 22.4829 24.8562C22.4861 24.8555 22.4893 24.8548 22.4924 24.854C22.4956 24.8533 22.4988 24.8525 22.5019 24.8518C22.5051 24.851 22.5083 24.8503 22.5114 24.8495C22.5146 24.8488 22.5178 24.848 22.5209 24.8473C22.5241 24.8465 22.5273 24.8458 22.5305 24.845C22.5336 24.8443 22.5368 24.8435 22.54 24.8428C22.5432 24.842 22.5463 24.8413 22.5495 24.8405C22.5527 24.8398 22.5559 24.839 22.559 24.8383C22.5622 24.8375 22.5654 24.8368 22.5686 24.836C22.5718 24.8353 22.575 24.8345 22.5782 24.8338C22.5813 24.833 22.5845 24.8322 22.5877 24.8315C22.5909 24.8307 22.5941 24.83 22.5973 24.8292C22.6005 24.8285 22.6037 24.8277 22.6069 24.827C22.61 24.8262 22.6132 24.8255 22.6164 24.8247C22.6196 24.824 22.6228 24.8232 22.626 24.8224C22.6292 24.8217 22.6324 24.8209 22.6356 24.8202C22.6388 24.8194 22.642 24.8187 22.6452 24.8179C22.6484 24.8172 22.6516 24.8164 22.6548 24.8156C22.658 24.8149 22.6612 24.8141 22.6644 24.8134C22.6676 24.8126 22.6708 24.8119 22.674 24.8111C22.6772 24.8103 22.6804 24.8096 22.6837 24.8088C22.6869 24.8081 22.6901 24.8073 22.6933 24.8066C22.6965 24.8058 22.6997 24.805 22.7029 24.8043C22.7061 24.8035 22.7093 24.8028 22.7125 24.802C22.7157 24.8012 22.719 24.8005 22.7222 24.7997C22.7254 24.799 22.7286 24.7982 22.7318 24.7975C22.735 24.7967 22.7382 24.7959 22.7415 24.7952C22.7447 24.7944 22.7479 24.7937 22.7511 24.7929C22.7543 24.7921 22.7575 24.7914 22.7608 24.7906C22.764 24.7899 22.7672 24.7891 22.7704 24.7883C22.7736 24.7876 22.7769 24.7868 22.7801 24.7861C22.7833 24.7853 22.7865 24.7845 22.7897 24.7838C22.793 24.783 22.7962 24.7822 22.7994 24.7815C22.8026 24.7807 22.8059 24.78 22.8091 24.7792C22.8123 24.7784 22.8155 24.7777 22.8187 24.7769C22.822 24.7762 22.8252 24.7754 22.8284 24.7746C22.8316 24.7739 22.8349 24.7731 22.8381 24.7723C22.8413 24.7716 22.8445 24.7708 22.8478 24.7701C22.851 24.7693 22.8542 24.7685 22.8575 24.7678C22.8607 24.767 22.8639 24.7662 22.8671 24.7655C22.8704 24.7647 22.8736 24.764 22.8768 24.7632C22.88 24.7624 22.8833 24.7617 22.8865 24.7609C22.8897 24.7601 22.893 24.7594 22.8962 24.7586C22.8994 24.7579 22.9027 24.7571 22.9059 24.7563C22.9091 24.7556 22.9123 24.7548 22.9156 24.754C22.9188 24.7533 22.922 24.7525 22.9253 24.7518C22.9285 24.751 22.9317 24.7502 22.935 24.7495C22.9382 24.7487 22.9414 24.7479 22.9446 24.7472C22.9479 24.7464 22.9511 24.7456 22.9543 24.7449C22.9576 24.7441 22.9608 24.7434 22.964 24.7426C22.9673 24.7418 22.9705 24.7411 22.9737 24.7403C22.9769 24.7395 22.9802 24.7388 22.9834 24.738C22.9866 24.7373 22.9899 24.7365 22.9931 24.7357C22.9963 24.735 22.9996 24.7342 23.0028 24.7334C23.006 24.7327 23.0092 24.7319 23.0125 24.7311C23.0157 24.7304 23.0189 24.7296 23.0222 24.7289C23.0254 24.7281 23.0286 24.7273 23.0319 24.7266C23.0351 24.7258 23.0383 24.725 23.0415 24.7243C23.0448 24.7235 23.048 24.7228 23.0512 24.722C23.0545 24.7212 23.0577 24.7205 23.0609 24.7197C23.0641 24.7189 23.0674 24.7182 23.0706 24.7174C23.0738 24.7167 23.077 24.7159 23.0803 24.7151C23.0835 24.7144 23.0867 24.7136 23.0899 24.7128C23.0932 24.7121 23.0964 24.7113 23.0996 24.7106C23.1028 24.7098 23.1061 24.709 23.1093 24.7083C23.1125 24.7075 23.1157 24.7067 23.119 24.706C23.1222 24.7052 23.1254 24.7045 23.1286 24.7037C23.1319 24.7029 23.1351 24.7022 23.1383 24.7014C23.1415 24.7007 23.1447 24.6999 23.148 24.6991C23.1512 24.6984 23.1544 24.6976 23.1576 24.6969C23.1608 24.6961 23.1641 24.6953 23.1673 24.6946C23.1705 24.6938 23.1737 24.6931 23.1769 24.6923C23.1801 24.6915 23.1834 24.6908 23.1866 24.69C23.1898 24.6893 23.193 24.6885 23.1962 24.6877C23.1994 24.687 23.2026 24.6862 23.2059 24.6855C23.2091 24.6847 23.2123 24.6839 23.2155 24.6832C23.2187 24.6824 23.2219 24.6817 23.2251 24.6809C23.2283 24.6802 23.2315 24.6794 23.2347 24.6786C23.238 24.6779 23.2412 24.6771 23.2444 24.6764C23.2476 24.6756 23.2508 24.6748 23.254 24.6741C23.2572 24.6733 23.2604 24.6726 23.2636 24.6718C23.2668 24.6711 23.27 24.6703 23.2732 24.6695C23.2764 24.6688 23.2796 24.668 23.2828 24.6673C23.286 24.6665 23.2892 24.6658 23.2924 24.665C23.2956 24.6643 23.2988 24.6635 23.302 24.6627C23.3052 24.662 23.3084 24.6612 23.3116 24.6605C23.3148 24.6597 23.318 24.659 23.3211 24.6582C23.3243 24.6575 23.3275 24.6567 23.3307 24.656C23.3339 24.6552 23.3371 24.6545 23.3403 24.6537C23.3435 24.6529 23.3467 24.6522 23.3498 24.6514C23.353 24.6507 23.3562 24.6499 23.3594 24.6492C23.3626 24.6484 23.3658 24.6477 23.3689 24.6469C23.3721 24.6462 23.3753 24.6454 23.3785 24.6447C23.3816 24.6439 23.3848 24.6432 23.388 24.6424C23.3912 24.6417 23.3943 24.6409 23.3975 24.6402C23.4007 24.6394 23.4039 24.6387 23.407 24.6379C23.4102 24.6372 23.4134 24.6364 23.4165 24.6357C23.4197 24.6349 23.4229 24.6342 23.426 24.6334C23.4292 24.6327 23.4324 24.6319 23.4355 24.6312C23.4387 24.6305 23.4419 24.6297 23.445 24.629C23.4482 24.6282 23.4513 24.6275 23.4545 24.6267C23.4576 24.626 23.4608 24.6252 23.464 24.6245C23.4671 24.6237 23.4703 24.623 23.4734 24.6223C23.4766 24.6215 23.4797 24.6208 23.4829 24.62C23.486 24.6193 23.4891 24.6185 23.4923 24.6178C23.4954 24.617 23.4986 24.6163 23.5017 24.6156C23.5049 24.6148 23.508 24.6141 23.5111 24.6133C23.5143 24.6126 23.5174 24.6119 23.5205 24.6111C23.5237 24.6104 23.5268 24.6096 23.5299 24.6089C23.5331 24.6082 23.5362 24.6074 23.5393 24.6067C23.5425 24.6059 23.5456 24.6052 23.5487 24.6045C23.5518 24.6037 23.555 24.603 23.5581 24.6022C23.5612 24.6015 23.5643 24.6008 23.5674 24.6C23.5706 24.5993 23.5737 24.5986 23.5768 24.5978C23.5799 24.5971 23.583 24.5964 23.5861 24.5956C23.5892 24.5949 23.5923 24.5942 23.5955 24.5934C23.5986 24.5927 23.6017 24.5919 23.6048 24.5912C23.6079 24.5905 23.611 24.5898 23.6141 24.589C23.6172 24.5883 23.6203 24.5876 23.6234 24.5868C23.6265 24.5861 23.6295 24.5854 23.6326 24.5846C23.6357 24.5839 23.6388 24.5832 23.6419 24.5824C23.645 24.5817 23.6481 24.581 23.6512 24.5803C23.6542 24.5795 23.6573 24.5788 23.6604 24.5781C23.6635 24.5773 23.6666 24.5766 23.6696 24.5759C23.6727 24.5752 23.6758 24.5744 23.6789 24.5737C23.6819 24.573 23.685 24.5723 23.6881 24.5715C23.6911 24.5708 23.6942 24.5701 23.6973 24.5694C23.7003 24.5686 23.7034 24.5679 23.7064 24.5672C23.7095 24.5665 23.7125 24.5658 23.7156 24.565C23.7187 24.5643 23.7217 24.5636 23.7248 24.5629C23.7278 24.5621 23.7309 24.5614 23.7339 24.5607C23.7369 24.56 23.74 24.5593 23.743 24.5586C23.7461 24.5578 23.7491 24.5571 23.7521 24.5564C23.7552 24.5557 23.7582 24.555 23.7612 24.5543C23.7643 24.5535 23.7673 24.5528 23.7703 24.5521C23.7733 24.5514 23.7764 24.5507 23.7794 24.55C23.7824 24.5492 23.7854 24.5485 23.7884 24.5478C23.7915 24.5471 23.7945 24.5464 23.7975 24.5457C23.8005 24.545 23.8035 24.5443 23.8065 24.5436C23.8095 24.5428 23.8125 24.5421 23.8155 24.5414C23.8185 24.5407 23.8215 24.54 23.8245 24.5393C23.8275 24.5386 23.8305 24.5379 23.8335 24.5372C23.8365 24.5365 23.8395 24.5358 23.8424 24.5351C23.8454 24.5344 23.8484 24.5337 23.8514 24.5329C23.8544 24.5322 23.8574 24.5315 23.8603 24.5308C23.8633 24.5301 23.8663 24.5294 23.8692 24.5287C23.8722 24.528 23.8752 24.5273 23.8781 24.5266C23.8811 24.5259 23.8841 24.5252 23.887 24.5245C23.89 24.5238 23.8929 24.5231 23.8959 24.5224C23.8988 24.5217 23.9018 24.521 23.9047 24.5203C23.9077 24.5197 23.9106 24.519 23.9136 24.5183C23.9165 24.5176 23.9195 24.5169 23.9224 24.5162C23.9253 24.5155 23.9283 24.5148 23.9312 24.5141C23.9341 24.5134 23.937 24.5127 23.94 24.512C23.9429 24.5113 23.9458 24.5106 23.9487 24.51C23.9516 24.5093 23.9546 24.5086 23.9575 24.5079C23.9604 24.5072 23.9633 24.5065 23.9662 24.5058C23.9691 24.5051 23.972 24.5045 23.9749 24.5038C23.9778 24.5031 23.9807 24.5024 23.9836 24.5017C23.9865 24.501 23.9894 24.5003 23.9923 24.4997C23.9952 24.499 23.998 24.4983 24.0009 24.4976C24.0038 24.4969 24.0067 24.4963 24.0096 24.4956C24.0124 24.4949 24.0153 24.4942 24.0182 24.4935C24.021 24.4929 24.0239 24.4922 24.0268 24.4915C24.0296 24.4908 24.0325 24.4902 24.0353 24.4895C24.0382 24.4888 24.0411 24.4881 24.0439 24.4875C24.0468 24.4868 24.0496 24.4861 24.0524 24.4855C24.0553 24.4848 24.0581 24.4841 24.061 24.4834C24.0638 24.4828 24.0666 24.4821 24.0695 24.4814C24.0723 24.4808 24.0751 24.4801 24.0779 24.4794C24.0808 24.4788 24.0836 24.4781 24.0864 24.4774C24.0892 24.4768 24.092 24.4761 24.0948 24.4754C24.0976 24.4748 24.1004 24.4741 24.1032 24.4734C24.1061 24.4728 24.1088 24.4721 24.1116 24.4715C24.1144 24.4708 24.1172 24.4701 24.12 24.4695C24.1228 24.4688 24.1256 24.4682 24.1284 24.4675C24.1312 24.4669 24.1339 24.4662 24.1367 24.4655C24.1395 24.4649 24.1422 24.4642 24.145 24.4636C24.1478 24.4629 24.1505 24.4623 24.1533 24.4616C24.1561 24.461 24.1588 24.4603 24.1616 24.4597C24.1643 24.459 24.1671 24.4584 24.1698 24.4577C24.1726 24.4571 24.1753 24.4564 24.178 24.4558C24.1808 24.4551 24.1835 24.4545 24.1862 24.4538C24.189 24.4532 24.1917 24.4526 24.1944 24.4519C24.1971 24.4513 24.1999 24.4506 24.2026 24.45C24.2053 24.4493 24.208 24.4487 24.2107 24.4481C24.2134 24.4474 24.2161 24.4468 24.2188 24.4461C24.2215 24.4455 24.2242 24.4449 24.2269 24.4442C24.2296 24.4436 24.2323 24.443 24.235 24.4423C24.2376 24.4417 24.2403 24.4411 24.243 24.4404C24.2457 24.4398 24.2483 24.4392 24.251 24.4385C24.2537 24.4379 24.2563 24.4373 24.259 24.4367C24.2617 24.436 24.2643 24.4354 24.267 24.4348C24.2696 24.4341 24.2723 24.4335 24.2749 24.4329C24.2776 24.4323 24.2802 24.4316 24.2828 24.431C24.2855 24.4304 24.2881 24.4298 24.2907 24.4292C24.2933 24.4285 24.296 24.4279 24.2986 24.4273C24.3012 24.4267 24.3038 24.4261 24.3064 24.4254C24.309 24.4248 24.3116 24.4242 24.3143 24.4236C24.3169 24.423 24.3194 24.4224 24.322 24.4218C24.3246 24.4211 24.3272 24.4205 24.3298 24.4199C24.3324 24.4193 24.335 24.4187 24.3376 24.4181C24.3401 24.4175 24.3427 24.4169 24.3453 24.4163C24.3478 24.4157 24.3504 24.4151 24.353 24.4145C24.3555 24.4139 24.3581 24.4132 24.3606 24.4126C24.3632 24.412 24.3657 24.4114 24.3683 24.4108C24.3708 24.4102 24.3733 24.4096 24.3759 24.409C24.3784 24.4084 24.3809 24.4078 24.3835 24.4072C24.386 24.4067 24.3885 24.4061 24.391 24.4055C24.3935 24.4049 24.396 24.4043 24.3985 24.4037C24.4011 24.4031 24.4036 24.4025 24.4061 24.4019C24.4086 24.4013 24.411 24.4007 24.4135 24.4001C24.416 24.3996 24.4185 24.399 24.421 24.3984C24.4235 24.3978 24.4259 24.3972 24.4284 24.3966C24.4309 24.396 24.4333 24.3955 24.4358 24.3949C24.4383 24.3943 24.4407 24.3937 24.4432 24.3931C24.4456 24.3926 24.4481 24.392 24.4505 24.3914C24.4529 24.3908 24.4554 24.3903 24.4578 24.3897C24.4602 24.3891 24.4627 24.3885 24.4651 24.388C24.4675 24.3874 24.4699 24.3868 24.4723 24.3863C24.4748 24.3857 24.4772 24.3851 24.4796 24.3845C24.482 24.384 24.4844 24.3834 24.4868 24.3828C24.4892 24.3823 24.4915 24.3817 24.4939 24.3812C24.4963 24.3806 24.4987 24.38 24.5011 24.3795C24.5034 24.3789 24.5058 24.3783 24.5082 24.3778C24.5105 24.3772 24.5129 24.3767 24.5152 24.3761C24.5176 24.3756 24.52 24.375 24.5223 24.3744C24.5246 24.3739 24.527 24.3733 24.5293 24.3728C24.5316 24.3722 24.534 24.3717 24.5363 24.3711C24.5386 24.3706 24.5409 24.37 24.5433 24.3695C24.5456 24.369 24.5479 24.3684 24.5502 24.3679C24.5525 24.3673 24.5548 24.3668 24.5571 24.3662C24.5594 24.3657 24.5617 24.3651 24.5639 24.3646C24.5662 24.3641 24.5685 24.3635 24.5708 24.363C24.573 24.3625 24.5753 24.3619 24.5776 24.3614C24.5798 24.3609 24.5821 24.3603 24.5843 24.3598C24.5866 24.3593 24.5888 24.3587 24.5911 24.3582C24.5933 24.3577 24.5956 24.3571 24.5978 24.3566C24.6 24.3561 24.6023 24.3556 24.6045 24.355C24.6067 24.3545 24.6089 24.354 24.6111 24.3535C24.6133 24.3529 24.6155 24.3524 24.6177 24.3519C24.6199 24.3514 24.6221 24.3509 24.6243 24.3503C24.6265 24.3498 24.6287 24.3493 24.6309 24.3488C24.633 24.3483 24.6352 24.3478 24.6374 24.3473C24.6395 24.3468 24.6417 24.3462 24.6438 24.3457C24.646 24.3452 24.6482 24.3447 24.6503 24.3442C24.6524 24.3437 24.6546 24.3432 24.6567 24.3427C24.6588 24.3422 24.661 24.3417 24.6631 24.3412C24.6652 24.3407 24.6673 24.3402 24.6694 24.3397C24.6715 24.3392 24.6737 24.3387 24.6758 24.3382C24.6779 24.3377 24.6799 24.3372 24.682 24.3367C24.6841 24.3362 24.6862 24.3357 24.6883 24.3352C24.6904 24.3347 24.6924 24.3343 24.6945 24.3338C24.6966 24.3333 24.6986 24.3328 24.7007 24.3323C24.7027 24.3318 24.7048 24.3313 24.7068 24.3309C24.7089 24.3304 24.7109 24.3299 24.7129 24.3294C24.715 24.3289 24.717 24.3285 24.719 24.328C24.721 24.3275 24.723 24.327 24.725 24.3266C24.727 24.3261 24.729 24.3256 24.731 24.3251C24.733 24.3247 24.735 24.3242 24.737 24.3237C24.739 24.3233 24.741 24.3228 24.7429 24.3223C24.7449 24.3219 24.7469 24.3214 24.7488 24.3209C24.7508 24.3205 24.7527 24.32 24.7547 24.3195C24.7566 24.3191 24.7586 24.3186 24.7605 24.3182C24.7624 24.3177 24.7644 24.3173 24.7663 24.3168C24.7682 24.3163 24.7701 24.3159 24.7721 24.3154C24.774 24.315 24.7759 24.3145 24.7778 24.3141C24.7797 24.3136 24.7816 24.3132 24.7834 24.3128C24.7853 24.3123 24.7872 24.3119 24.7891 24.3114C24.791 24.311 24.7928 24.3105 24.7947 24.3101C24.7966 24.3097 24.7984 24.3092 24.8003 24.3088C24.8021 24.3083 24.8039 24.3079 24.8058 24.3075C24.8076 24.307 24.8095 24.3066 24.8113 24.3062C24.8131 24.3057 24.8149 24.3053 24.8167 24.3049C24.8185 24.3045 24.8203 24.304 24.8221 24.3036C24.8239 24.3032 24.8257 24.3028 24.8275 24.3023C24.8293 24.3019 24.8311 24.3015 24.8329 24.3011C24.8346 24.3007 24.8364 24.3002 24.8382 24.2998C24.8399 24.2994 24.8417 24.299 24.8434 24.2986C24.8452 24.2982 24.8469 24.2978 24.8486 24.2973C24.8504 24.2969 24.8521 24.2965 24.8538 24.2961C24.8556 24.2957 24.8573 24.2953 24.859 24.2949C24.8607 24.2945 24.8624 24.2941 24.8641 24.2937C24.8658 24.2933 24.8675 24.2929 24.8692 24.2925C24.8708 24.2921 24.8725 24.2917 24.8742 24.2913C24.8758 24.2909 24.8775 24.2905 24.8792 24.2901C24.8808 24.2897 24.8825 24.2894 24.8841 24.289C24.8858 24.2886 24.8874 24.2882 24.889 24.2878C24.8906 24.2874 24.8923 24.287 24.8939 24.2867C24.8955 24.2863 24.8971 24.2859 24.8987 24.2855C24.9003 24.2851 24.9019 24.2848 24.9035 24.2844C24.9051 24.284 24.9067 24.2836 24.9082 24.2833C24.9098 24.2829 24.9114 24.2825 24.9129 24.2822C24.9145 24.2818 24.9161 24.2814 24.9176 24.2811C24.9192 24.2807 24.9207 24.2803 24.9222 24.28C24.9238 24.2796 24.9253 24.2792 24.9268 24.2789C24.9283 24.2785 24.9298 24.2782 24.9313 24.2778C24.9328 24.2775 24.9343 24.2771 24.9358 24.2767C24.9373 24.2764 24.9388 24.276 24.9403 24.2757C24.9418 24.2753 24.9432 24.275 24.9447 24.2747C24.9462 24.2743 24.9476 24.274 24.9491 24.2736C24.9505 24.2733 24.952 24.2729 24.9534 24.2726C24.9548 24.2723 24.9563 24.2719 24.9577 24.2716C24.9591 24.2713 24.9605 24.2709 24.9619 24.2706C24.9633 24.2703 24.9647 24.2699 24.9661 24.2696C24.9675 24.2693 24.9689 24.2689 24.9703 24.2686C24.9717 24.2683 24.973 24.268 24.9744 24.2676C24.9758 24.2673 24.9771 24.267 24.9785 24.2667C24.9798 24.2664 24.9811 24.266 24.9825 24.2657C24.9838 24.2654 24.9851 24.2651 24.9865 24.2648C24.9878 24.2645 24.9891 24.2642 24.9904 24.2639C24.9917 24.2636 24.993 24.2632 24.9943 24.2629C24.9956 24.2626 24.9969 24.2623 24.9981 24.262C24.9994 24.2617 25.0007 24.2614 25.0019 24.2611C25.0032 24.2608 25.0045 24.2605 25.0057 24.2602C25.0069 24.26 25.0082 24.2597 25.0094 24.2594C25.0106 24.2591 25.0119 24.2588 25.0131 24.2585C25.0143 24.2582 25.0155 24.2579 25.0167 24.2576C25.0179 24.2574 25.0191 24.2571 25.0203 24.2568C25.0215 24.2565 25.0226 24.2562 25.0238 24.256C25.025 24.2557 25.0261 24.2554 25.0273 24.2551C25.0285 24.2549 25.0296 24.2546 25.0307 24.2543C25.0319 24.2541 25.033 24.2538 25.0341 24.2535C25.0353 24.2533 25.0364 24.253 25.0375 24.2527C25.0386 24.2525 25.0397 24.2522 25.0408 24.252C25.0419 24.2517 25.043 24.2514 25.044 24.2512C25.0451 24.2509 25.0462 24.2507 25.0472 24.2504C25.0483 24.2502 25.0494 24.2499 25.0504 24.2497C25.0514 24.2494 25.0525 24.2492 25.0535 24.2489C25.0545 24.2487 25.0556 24.2485 25.0566 24.2482C25.0576 24.248 25.0586 24.2477 25.0596 24.2475C25.0606 24.2473 25.0616 24.247 25.0626 24.2468C25.0636 24.2466 25.0645 24.2463 25.0655 24.2461C25.0665 24.2459 25.0674 24.2457 25.0684 24.2454C25.0693 24.2452 25.0703 24.245 25.0712 24.2448C25.0721 24.2445 25.0731 24.2443 25.074 24.2441C25.0749 24.2439 25.0758 24.2437 25.0767 24.2435L24.8468 23.2703C24.8459 23.2705 24.845 23.2707 24.8441 23.2709C24.8431 23.2711 24.8422 23.2713 24.8413 23.2716C24.8403 23.2718 24.8394 23.272 24.8385 23.2722C24.8375 23.2725 24.8365 23.2727 24.8356 23.2729C24.8346 23.2731 24.8336 23.2734 24.8327 23.2736C24.8317 23.2738 24.8307 23.2741 24.8297 23.2743C24.8287 23.2745 24.8277 23.2748 24.8267 23.275C24.8256 23.2753 24.8246 23.2755 24.8236 23.2757C24.8226 23.276 24.8215 23.2762 24.8205 23.2765C24.8194 23.2767 24.8184 23.277 24.8173 23.2772C24.8163 23.2775 24.8152 23.2777 24.8141 23.278C24.813 23.2782 24.812 23.2785 24.8109 23.2787C24.8098 23.279 24.8087 23.2793 24.8076 23.2795C24.8064 23.2798 24.8053 23.2801 24.8042 23.2803C24.8031 23.2806 24.802 23.2809 24.8008 23.2811C24.7997 23.2814 24.7985 23.2817 24.7974 23.2819C24.7962 23.2822 24.7951 23.2825 24.7939 23.2828C24.7927 23.283 24.7915 23.2833 24.7904 23.2836C24.7892 23.2839 24.788 23.2842 24.7868 23.2844C24.7856 23.2847 24.7844 23.285 24.7832 23.2853C24.7819 23.2856 24.7807 23.2859 24.7795 23.2862C24.7783 23.2864 24.777 23.2867 24.7758 23.287C24.7745 23.2873 24.7733 23.2876 24.772 23.2879C24.7708 23.2882 24.7695 23.2885 24.7682 23.2888C24.7669 23.2891 24.7657 23.2894 24.7644 23.2897C24.7631 23.29 24.7618 23.2903 24.7605 23.2907C24.7592 23.291 24.7579 23.2913 24.7565 23.2916C24.7552 23.2919 24.7539 23.2922 24.7526 23.2925C24.7512 23.2928 24.7499 23.2932 24.7485 23.2935C24.7472 23.2938 24.7458 23.2941 24.7445 23.2944C24.7431 23.2948 24.7417 23.2951 24.7404 23.2954C24.739 23.2957 24.7376 23.2961 24.7362 23.2964C24.7348 23.2967 24.7334 23.297 24.732 23.2974C24.7306 23.2977 24.7292 23.298 24.7278 23.2984C24.7263 23.2987 24.7249 23.2991 24.7235 23.2994C24.722 23.2997 24.7206 23.3001 24.7192 23.3004C24.7177 23.3008 24.7162 23.3011 24.7148 23.3014C24.7133 23.3018 24.7118 23.3021 24.7104 23.3025C24.7089 23.3028 24.7074 23.3032 24.7059 23.3035C24.7044 23.3039 24.7029 23.3042 24.7014 23.3046C24.6999 23.305 24.6984 23.3053 24.6969 23.3057C24.6954 23.306 24.6938 23.3064 24.6923 23.3068C24.6908 23.3071 24.6892 23.3075 24.6877 23.3078C24.6861 23.3082 24.6846 23.3086 24.683 23.3089C24.6815 23.3093 24.6799 23.3097 24.6783 23.3101C24.6767 23.3104 24.6752 23.3108 24.6736 23.3112C24.672 23.3116 24.6704 23.3119 24.6688 23.3123C24.6672 23.3127 24.6656 23.3131 24.664 23.3135C24.6623 23.3138 24.6607 23.3142 24.6591 23.3146C24.6575 23.315 24.6558 23.3154 24.6542 23.3158C24.6525 23.3161 24.6509 23.3165 24.6492 23.3169C24.6476 23.3173 24.6459 23.3177 24.6443 23.3181C24.6426 23.3185 24.6409 23.3189 24.6392 23.3193C24.6375 23.3197 24.6359 23.3201 24.6342 23.3205C24.6325 23.3209 24.6308 23.3213 24.6291 23.3217C24.6273 23.3221 24.6256 23.3225 24.6239 23.3229C24.6222 23.3233 24.6205 23.3237 24.6187 23.3241C24.617 23.3245 24.6153 23.325 24.6135 23.3254C24.6118 23.3258 24.61 23.3262 24.6082 23.3266C24.6065 23.327 24.6047 23.3274 24.6029 23.3279C24.6012 23.3283 24.5994 23.3287 24.5976 23.3291C24.5958 23.3296 24.594 23.33 24.5922 23.3304C24.5904 23.3308 24.5886 23.3313 24.5868 23.3317C24.585 23.3321 24.5832 23.3325 24.5814 23.333C24.5795 23.3334 24.5777 23.3338 24.5759 23.3343C24.574 23.3347 24.5722 23.3351 24.5703 23.3356C24.5685 23.336 24.5666 23.3364 24.5648 23.3369C24.5629 23.3373 24.561 23.3378 24.5592 23.3382C24.5573 23.3387 24.5554 23.3391 24.5535 23.3395C24.5516 23.34 24.5497 23.3404 24.5478 23.3409C24.5459 23.3413 24.544 23.3418 24.5421 23.3422C24.5402 23.3427 24.5383 23.3431 24.5364 23.3436C24.5345 23.344 24.5325 23.3445 24.5306 23.345C24.5287 23.3454 24.5267 23.3459 24.5248 23.3463C24.5228 23.3468 24.5209 23.3473 24.5189 23.3477C24.5169 23.3482 24.515 23.3486 24.513 23.3491C24.511 23.3496 24.5091 23.35 24.5071 23.3505C24.5051 23.351 24.5031 23.3515 24.5011 23.3519C24.4991 23.3524 24.4971 23.3529 24.4951 23.3533C24.4931 23.3538 24.4911 23.3543 24.4891 23.3548C24.4871 23.3552 24.485 23.3557 24.483 23.3562C24.481 23.3567 24.4789 23.3572 24.4769 23.3576C24.4748 23.3581 24.4728 23.3586 24.4707 23.3591C24.4687 23.3596 24.4666 23.3601 24.4646 23.3606C24.4625 23.361 24.4604 23.3615 24.4584 23.362C24.4563 23.3625 24.4542 23.363 24.4521 23.3635C24.45 23.364 24.4479 23.3645 24.4458 23.365C24.4437 23.3655 24.4416 23.366 24.4395 23.3665C24.4374 23.367 24.4353 23.3675 24.4332 23.368C24.431 23.3685 24.4289 23.369 24.4268 23.3695C24.4247 23.37 24.4225 23.3705 24.4204 23.371C24.4182 23.3715 24.4161 23.372 24.4139 23.3725C24.4118 23.373 24.4096 23.3735 24.4074 23.3741C24.4053 23.3746 24.4031 23.3751 24.4009 23.3756C24.3988 23.3761 24.3966 23.3766 24.3944 23.3771C24.3922 23.3777 24.39 23.3782 24.3878 23.3787C24.3856 23.3792 24.3834 23.3797 24.3812 23.3803C24.379 23.3808 24.3768 23.3813 24.3745 23.3818C24.3723 23.3824 24.3701 23.3829 24.3679 23.3834C24.3656 23.3839 24.3634 23.3845 24.3612 23.385C24.3589 23.3855 24.3567 23.386 24.3544 23.3866C24.3522 23.3871 24.3499 23.3876 24.3477 23.3882C24.3454 23.3887 24.3431 23.3892 24.3409 23.3898C24.3386 23.3903 24.3363 23.3909 24.334 23.3914C24.3317 23.3919 24.3294 23.3925 24.3272 23.393C24.3249 23.3936 24.3226 23.3941 24.3203 23.3947C24.318 23.3952 24.3156 23.3957 24.3133 23.3963C24.311 23.3968 24.3087 23.3974 24.3064 23.3979C24.3041 23.3985 24.3017 23.399 24.2994 23.3996C24.2971 23.4001 24.2947 23.4007 24.2924 23.4012C24.29 23.4018 24.2877 23.4023 24.2853 23.4029C24.283 23.4035 24.2806 23.404 24.2782 23.4046C24.2759 23.4051 24.2735 23.4057 24.2711 23.4063C24.2688 23.4068 24.2664 23.4074 24.264 23.4079C24.2616 23.4085 24.2592 23.4091 24.2568 23.4096C24.2544 23.4102 24.252 23.4108 24.2496 23.4113C24.2472 23.4119 24.2448 23.4125 24.2424 23.413C24.24 23.4136 24.2376 23.4142 24.2352 23.4148C24.2327 23.4153 24.2303 23.4159 24.2279 23.4165C24.2255 23.417 24.223 23.4176 24.2206 23.4182C24.2181 23.4188 24.2157 23.4194 24.2132 23.4199C24.2108 23.4205 24.2083 23.4211 24.2059 23.4217C24.2034 23.4223 24.201 23.4228 24.1985 23.4234C24.196 23.424 24.1935 23.4246 24.1911 23.4252C24.1886 23.4258 24.1861 23.4263 24.1836 23.4269C24.1811 23.4275 24.1786 23.4281 24.1761 23.4287C24.1736 23.4293 24.1711 23.4299 24.1686 23.4305C24.1661 23.4311 24.1636 23.4317 24.1611 23.4323C24.1586 23.4328 24.1561 23.4334 24.1535 23.434C24.151 23.4346 24.1485 23.4352 24.146 23.4358C24.1434 23.4364 24.1409 23.437 24.1383 23.4376C24.1358 23.4382 24.1333 23.4388 24.1307 23.4394C24.1282 23.44 24.1256 23.4406 24.123 23.4412C24.1205 23.4419 24.1179 23.4425 24.1153 23.4431C24.1128 23.4437 24.1102 23.4443 24.1076 23.4449C24.1051 23.4455 24.1025 23.4461 24.0999 23.4467C24.0973 23.4473 24.0947 23.4479 24.0921 23.4485C24.0895 23.4492 24.0869 23.4498 24.0843 23.4504C24.0817 23.451 24.0791 23.4516 24.0765 23.4522C24.0739 23.4529 24.0713 23.4535 24.0687 23.4541C24.066 23.4547 24.0634 23.4553 24.0608 23.456C24.0582 23.4566 24.0555 23.4572 24.0529 23.4578C24.0503 23.4584 24.0476 23.4591 24.045 23.4597C24.0423 23.4603 24.0397 23.4609 24.037 23.4616C24.0344 23.4622 24.0317 23.4628 24.0291 23.4634C24.0264 23.4641 24.0238 23.4647 24.0211 23.4653C24.0184 23.466 24.0157 23.4666 24.0131 23.4672C24.0104 23.4679 24.0077 23.4685 24.005 23.4691C24.0023 23.4698 23.9997 23.4704 23.997 23.471C23.9943 23.4717 23.9916 23.4723 23.9889 23.4729C23.9862 23.4736 23.9835 23.4742 23.9808 23.4749C23.9781 23.4755 23.9754 23.4761 23.9726 23.4768C23.9699 23.4774 23.9672 23.4781 23.9645 23.4787C23.9618 23.4793 23.959 23.48 23.9563 23.4806C23.9536 23.4813 23.9509 23.4819 23.9481 23.4826C23.9454 23.4832 23.9426 23.4839 23.9399 23.4845C23.9371 23.4852 23.9344 23.4858 23.9316 23.4865C23.9289 23.4871 23.9261 23.4878 23.9234 23.4884C23.9206 23.4891 23.9179 23.4897 23.9151 23.4904C23.9123 23.491 23.9096 23.4917 23.9068 23.4923C23.904 23.493 23.9012 23.4936 23.8985 23.4943C23.8957 23.495 23.8929 23.4956 23.8901 23.4963C23.8873 23.4969 23.8845 23.4976 23.8817 23.4983C23.8789 23.4989 23.8761 23.4996 23.8733 23.5002C23.8705 23.5009 23.8677 23.5016 23.8649 23.5022C23.8621 23.5029 23.8593 23.5036 23.8565 23.5042C23.8537 23.5049 23.8508 23.5056 23.848 23.5062C23.8452 23.5069 23.8424 23.5076 23.8395 23.5082C23.8367 23.5089 23.8339 23.5096 23.831 23.5102C23.8282 23.5109 23.8254 23.5116 23.8225 23.5122C23.8197 23.5129 23.8168 23.5136 23.814 23.5143C23.8111 23.5149 23.8083 23.5156 23.8054 23.5163C23.8026 23.517 23.7997 23.5176 23.7969 23.5183C23.794 23.519 23.7911 23.5197 23.7883 23.5203C23.7854 23.521 23.7825 23.5217 23.7796 23.5224C23.7768 23.5231 23.7739 23.5237 23.771 23.5244C23.7681 23.5251 23.7652 23.5258 23.7624 23.5265C23.7595 23.5271 23.7566 23.5278 23.7537 23.5285C23.7508 23.5292 23.7479 23.5299 23.745 23.5306C23.7421 23.5312 23.7392 23.5319 23.7363 23.5326C23.7334 23.5333 23.7305 23.534 23.7276 23.5347C23.7246 23.5354 23.7217 23.5361 23.7188 23.5367C23.7159 23.5374 23.713 23.5381 23.71 23.5388C23.7071 23.5395 23.7042 23.5402 23.7013 23.5409C23.6983 23.5416 23.6954 23.5423 23.6925 23.543C23.6895 23.5437 23.6866 23.5444 23.6837 23.5451C23.6807 23.5457 23.6778 23.5464 23.6748 23.5471C23.6719 23.5478 23.6689 23.5485 23.666 23.5492C23.663 23.5499 23.6601 23.5506 23.6571 23.5513C23.6541 23.552 23.6512 23.5527 23.6482 23.5534C23.6453 23.5541 23.6423 23.5548 23.6393 23.5555C23.6364 23.5562 23.6334 23.5569 23.6304 23.5576C23.6274 23.5583 23.6245 23.559 23.6215 23.5597C23.6185 23.5604 23.6155 23.5611 23.6125 23.5619C23.6095 23.5626 23.6066 23.5633 23.6036 23.564C23.6006 23.5647 23.5976 23.5654 23.5946 23.5661C23.5916 23.5668 23.5886 23.5675 23.5856 23.5682C23.5826 23.5689 23.5796 23.5696 23.5766 23.5703C23.5736 23.5711 23.5706 23.5718 23.5676 23.5725C23.5645 23.5732 23.5615 23.5739 23.5585 23.5746C23.5555 23.5753 23.5525 23.576 23.5495 23.5768C23.5464 23.5775 23.5434 23.5782 23.5404 23.5789C23.5374 23.5796 23.5343 23.5803 23.5313 23.581C23.5283 23.5818 23.5252 23.5825 23.5222 23.5832C23.5192 23.5839 23.5161 23.5846 23.5131 23.5853C23.5101 23.5861 23.507 23.5868 23.504 23.5875C23.5009 23.5882 23.4979 23.5889 23.4948 23.5897C23.4918 23.5904 23.4887 23.5911 23.4857 23.5918C23.4826 23.5925 23.4796 23.5933 23.4765 23.594C23.4735 23.5947 23.4704 23.5954 23.4673 23.5962C23.4643 23.5969 23.4612 23.5976 23.4581 23.5983C23.4551 23.5991 23.452 23.5998 23.4489 23.6005C23.4459 23.6012 23.4428 23.602 23.4397 23.6027C23.4366 23.6034 23.4336 23.6041 23.4305 23.6049C23.4274 23.6056 23.4243 23.6063 23.4212 23.607C23.4182 23.6078 23.4151 23.6085 23.412 23.6092C23.4089 23.61 23.4058 23.6107 23.4027 23.6114C23.3996 23.6122 23.3965 23.6129 23.3934 23.6136C23.3903 23.6143 23.3872 23.6151 23.3841 23.6158C23.381 23.6165 23.3779 23.6173 23.3748 23.618C23.3717 23.6187 23.3686 23.6195 23.3655 23.6202C23.3624 23.6209 23.3593 23.6217 23.3562 23.6224C23.3531 23.6231 23.35 23.6239 23.3469 23.6246C23.3438 23.6254 23.3406 23.6261 23.3375 23.6268C23.3344 23.6276 23.3313 23.6283 23.3282 23.629C23.325 23.6298 23.3219 23.6305 23.3188 23.6312C23.3157 23.632 23.3125 23.6327 23.3094 23.6335C23.3063 23.6342 23.3032 23.6349 23.3 23.6357C23.2969 23.6364 23.2938 23.6372 23.2906 23.6379C23.2875 23.6386 23.2844 23.6394 23.2812 23.6401C23.2781 23.6409 23.2749 23.6416 23.2718 23.6424C23.2687 23.6431 23.2655 23.6438 23.2624 23.6446C23.2592 23.6453 23.2561 23.6461 23.2529 23.6468C23.2498 23.6476 23.2466 23.6483 23.2435 23.649C23.2403 23.6498 23.2372 23.6505 23.234 23.6513C23.2309 23.652 23.2277 23.6528 23.2246 23.6535C23.2214 23.6543 23.2183 23.655 23.2151 23.6557C23.2119 23.6565 23.2088 23.6572 23.2056 23.658C23.2024 23.6587 23.1993 23.6595 23.1961 23.6602C23.193 23.661 23.1898 23.6617 23.1866 23.6625C23.1835 23.6632 23.1803 23.664 23.1771 23.6647C23.1739 23.6655 23.1708 23.6662 23.1676 23.667C23.1644 23.6677 23.1613 23.6685 23.1581 23.6692C23.1549 23.67 23.1517 23.6707 23.1485 23.6715C23.1454 23.6722 23.1422 23.673 23.139 23.6737C23.1358 23.6745 23.1327 23.6752 23.1295 23.676C23.1263 23.6767 23.1231 23.6775 23.1199 23.6782C23.1167 23.679 23.1135 23.6797 23.1104 23.6805C23.1072 23.6812 23.104 23.682 23.1008 23.6828C23.0976 23.6835 23.0944 23.6843 23.0912 23.685C23.088 23.6858 23.0848 23.6865 23.0816 23.6873C23.0785 23.688 23.0753 23.6888 23.0721 23.6895C23.0689 23.6903 23.0657 23.691 23.0625 23.6918C23.0593 23.6926 23.0561 23.6933 23.0529 23.6941C23.0497 23.6948 23.0465 23.6956 23.0433 23.6963C23.0401 23.6971 23.0369 23.6979 23.0337 23.6986C23.0305 23.6994 23.0273 23.7001 23.0241 23.7009C23.0209 23.7016 23.0177 23.7024 23.0144 23.7032C23.0112 23.7039 23.008 23.7047 23.0048 23.7054C23.0016 23.7062 22.9984 23.7069 22.9952 23.7077C22.992 23.7085 22.9888 23.7092 22.9856 23.71C22.9824 23.7107 22.9791 23.7115 22.9759 23.7123C22.9727 23.713 22.9695 23.7138 22.9663 23.7145C22.9631 23.7153 22.9599 23.716 22.9566 23.7168C22.9534 23.7176 22.9502 23.7183 22.947 23.7191C22.9438 23.7198 22.9406 23.7206 22.9373 23.7214C22.9341 23.7221 22.9309 23.7229 22.9277 23.7236C22.9245 23.7244 22.9213 23.7252 22.918 23.7259C22.9148 23.7267 22.9116 23.7275 22.9084 23.7282C22.9052 23.729 22.9019 23.7297 22.8987 23.7305C22.8955 23.7313 22.8923 23.732 22.889 23.7328C22.8858 23.7335 22.8826 23.7343 22.8794 23.7351C22.8761 23.7358 22.8729 23.7366 22.8697 23.7373C22.8665 23.7381 22.8632 23.7389 22.86 23.7396C22.8568 23.7404 22.8536 23.7412 22.8503 23.7419C22.8471 23.7427 22.8439 23.7434 22.8407 23.7442C22.8374 23.745 22.8342 23.7457 22.831 23.7465C22.8278 23.7473 22.8245 23.748 22.8213 23.7488C22.8181 23.7495 22.8148 23.7503 22.8116 23.7511C22.8084 23.7518 22.8052 23.7526 22.8019 23.7534C22.7987 23.7541 22.7955 23.7549 22.7922 23.7556C22.789 23.7564 22.7858 23.7572 22.7826 23.7579C22.7793 23.7587 22.7761 23.7595 22.7729 23.7602C22.7696 23.761 22.7664 23.7618 22.7632 23.7625C22.7599 23.7633 22.7567 23.764 22.7535 23.7648C22.7503 23.7656 22.747 23.7663 22.7438 23.7671C22.7406 23.7679 22.7373 23.7686 22.7341 23.7694C22.7309 23.7701 22.7276 23.7709 22.7244 23.7717C22.7212 23.7724 22.718 23.7732 22.7147 23.774C22.7115 23.7747 22.7083 23.7755 22.705 23.7763C22.7018 23.777 22.6986 23.7778 22.6953 23.7785C22.6921 23.7793 22.6889 23.7801 22.6856 23.7808C22.6824 23.7816 22.6792 23.7824 22.676 23.7831C22.6727 23.7839 22.6695 23.7846 22.6663 23.7854C22.663 23.7862 22.6598 23.7869 22.6566 23.7877C22.6534 23.7885 22.6501 23.7892 22.6469 23.79C22.6437 23.7907 22.6404 23.7915 22.6372 23.7923C22.634 23.793 22.6308 23.7938 22.6275 23.7946C22.6243 23.7953 22.6211 23.7961 22.6179 23.7968C22.6146 23.7976 22.6114 23.7984 22.6082 23.7991C22.6049 23.7999 22.6017 23.8007 22.5985 23.8014C22.5953 23.8022 22.592 23.8029 22.5888 23.8037C22.5856 23.8045 22.5824 23.8052 22.5792 23.806C22.5759 23.8068 22.5727 23.8075 22.5695 23.8083C22.5663 23.809 22.563 23.8098 22.5598 23.8106C22.5566 23.8113 22.5534 23.8121 22.5502 23.8128C22.5469 23.8136 22.5437 23.8144 22.5405 23.8151C22.5373 23.8159 22.5341 23.8166 22.5308 23.8174C22.5276 23.8182 22.5244 23.8189 22.5212 23.8197C22.518 23.8204 22.5148 23.8212 22.5115 23.822C22.5083 23.8227 22.5051 23.8235 22.5019 23.8242C22.4987 23.825 22.4955 23.8258 22.4923 23.8265C22.489 23.8273 22.4858 23.828 22.4826 23.8288C22.4794 23.8296 22.4762 23.8303 22.473 23.8311C22.4698 23.8318 22.4666 23.8326 22.4634 23.8333C22.4601 23.8341 22.4569 23.8349 22.4537 23.8356C22.4505 23.8364 22.4473 23.8371 22.4441 23.8379C22.4409 23.8387 22.4377 23.8394 22.4345 23.8402C22.4313 23.8409 22.4281 23.8417 22.4249 23.8424C22.4217 23.8432 22.4185 23.8439 22.4153 23.8447C22.4121 23.8455 22.4089 23.8462 22.4057 23.847C22.4025 23.8477 22.3993 23.8485 22.3961 23.8492C22.3929 23.85 22.3897 23.8507 22.3865 23.8515C22.3833 23.8523 22.3801 23.853 22.3769 23.8538C22.3737 23.8545 22.3705 23.8553 22.3674 23.856C22.3642 23.8568 22.361 23.8575 22.3578 23.8583C22.3546 23.859 22.3514 23.8598 22.3482 23.8605C22.345 23.8613 22.3419 23.8621 22.3387 23.8628C22.3355 23.8636 22.3323 23.8643 22.3291 23.8651C22.3259 23.8658 22.3228 23.8666 22.3196 23.8673C22.3164 23.8681 22.3132 23.8688 22.3101 23.8696C22.3069 23.8703 22.3037 23.8711 22.3005 23.8718C22.2974 23.8726 22.2942 23.8733 22.291 23.8741C22.2878 23.8748 22.2847 23.8756 22.2815 23.8763C22.2783 23.8771 22.2752 23.8778 22.272 23.8786C22.2688 23.8793 22.2657 23.8801 22.2625 23.8808C22.2593 23.8815 22.2562 23.8823 22.253 23.883C22.2499 23.8838 22.2467 23.8845 22.2435 23.8853C22.2404 23.886 22.2372 23.8868 22.2341 23.8875C22.2309 23.8883 22.2278 23.889 22.2246 23.8897C22.2215 23.8905 22.2183 23.8912 22.2152 23.892C22.212 23.8927 22.2089 23.8935 22.2057 23.8942C22.2026 23.895 22.1994 23.8957 22.1963 23.8964C22.1931 23.8972 22.19 23.8979 22.1869 23.8987C22.1837 23.8994 22.1806 23.9002 22.1775 23.9009C22.1743 23.9016 22.1712 23.9024 22.1681 23.9031C22.1649 23.9039 22.1618 23.9046 22.1587 23.9053C22.1555 23.9061 22.1524 23.9068 22.1493 23.9075C22.1461 23.9083 22.143 23.909 22.1399 23.9098C22.1368 23.9105 22.1337 23.9112 22.1305 23.912C22.1274 23.9127 22.1243 23.9134 22.1212 23.9142C22.1181 23.9149 22.115 23.9157 22.1118 23.9164C22.1087 23.9171 22.1056 23.9179 22.1025 23.9186C22.0994 23.9193 22.0963 23.9201 22.0932 23.9208C22.0901 23.9215 22.087 23.9223 22.0839 23.923C22.0808 23.9237 22.0777 23.9245 22.0746 23.9252C22.0715 23.9259 22.0684 23.9267 22.0653 23.9274C22.0622 23.9281 22.0591 23.9288 22.056 23.9296C22.0529 23.9303 22.0499 23.931 22.0468 23.9318C22.0437 23.9325 22.0406 23.9332 22.0375 23.934C22.0344 23.9347 22.0314 23.9354 22.0283 23.9361C22.0252 23.9369 22.0221 23.9376 22.0191 23.9383C22.016 23.939 22.0129 23.9398 22.0098 23.9405C22.0068 23.9412 22.0037 23.9419 22.0006 23.9427C21.9976 23.9434 21.9945 23.9441 21.9915 23.9448C21.9884 23.9456 21.9853 23.9463 21.9823 23.947C21.9792 23.9477 21.9762 23.9484 21.9731 23.9492C21.9701 23.9499 21.967 23.9506 21.964 23.9513C21.9609 23.952 21.9579 23.9528 21.9549 23.9535C21.9518 23.9542 21.9488 23.9549 21.9457 23.9556C21.9427 23.9564 21.9397 23.9571 21.9366 23.9578C21.9336 23.9585 21.9306 23.9592 21.9275 23.9599C21.9245 23.9606 21.9215 23.9614 21.9185 23.9621C21.9154 23.9628 21.9124 23.9635 21.9094 23.9642C21.9064 23.9649 21.9034 23.9656 21.9004 23.9664C21.8973 23.9671 21.8943 23.9678 21.8913 23.9685C21.8883 23.9692 21.8853 23.9699 21.8823 23.9706C21.8793 23.9713 21.8763 23.972 21.8733 23.9727C21.8703 23.9735 21.8673 23.9742 21.8643 23.9749C21.8613 23.9756 21.8583 23.9763 21.8554 23.977C21.8524 23.9777 21.8494 23.9784 21.8464 23.9791C21.8434 23.9798 21.8404 23.9805 21.8375 23.9812C21.8345 23.9819 21.8315 23.9826 21.8285 23.9833C21.8256 23.984 21.8226 23.9847 21.8196 23.9854C21.8167 23.9861 21.8137 23.9868 21.8107 23.9875C21.8078 23.9882 21.8048 23.9889 21.8019 23.9896C21.7989 23.9903 21.796 23.991 21.793 23.9917C21.7901 23.9924 21.7871 23.9931 21.7842 23.9938C21.7812 23.9945 21.7783 23.9952 21.7754 23.9959C21.7724 23.9966 21.7695 23.9973 21.7665 23.998C21.7636 23.9987 21.7607 23.9994 21.7578 24C21.7548 24.0007 21.7519 24.0014 21.749 24.0021C21.7461 24.0028 21.7431 24.0035 21.7402 24.0042C21.7373 24.0049 21.7344 24.0056 21.7315 24.0062C21.7286 24.0069 21.7257 24.0076 21.7228 24.0083C21.7199 24.009 21.717 24.0097 21.7141 24.0104C21.7112 24.011 21.7083 24.0117 21.7054 24.0124C21.7025 24.0131 21.6996 24.0138 21.6967 24.0145C21.6939 24.0151 21.691 24.0158 21.6881 24.0165C21.6852 24.0172 21.6823 24.0179 21.6795 24.0185C21.6766 24.0192 21.6737 24.0199 21.6709 24.0206C21.668 24.0212 21.6651 24.0219 21.6623 24.0226C21.6594 24.0233 21.6566 24.024 21.6537 24.0246C21.6509 24.0253 21.648 24.026 21.6452 24.0266C21.6423 24.0273 21.6395 24.028 21.6366 24.0287C21.6338 24.0293 21.631 24.03 21.6281 24.0307C21.6253 24.0313 21.6225 24.032 21.6197 24.0327C21.6168 24.0333 21.614 24.034 21.6112 24.0347C21.6084 24.0353 21.6056 24.036 21.6027 24.0367C21.5999 24.0373 21.5971 24.038 21.5943 24.0387C21.5915 24.0393 21.5887 24.04 21.5859 24.0406C21.5831 24.0413 21.5803 24.042 21.5775 24.0426C21.5747 24.0433 21.5719 24.0439 21.5692 24.0446C21.5664 24.0453 21.5636 24.0459 21.5608 24.0466C21.558 24.0472 21.5553 24.0479 21.5525 24.0485C21.5497 24.0492 21.547 24.0498 21.5442 24.0505C21.5414 24.0512 21.5387 24.0518 21.5359 24.0525C21.5332 24.0531 21.5304 24.0538 21.5277 24.0544C21.5249 24.0551 21.5222 24.0557 21.5194 24.0563C21.5167 24.057 21.514 24.0576 21.5112 24.0583C21.5085 24.0589 21.5058 24.0596 21.503 24.0602C21.5003 24.0609 21.4976 24.0615 21.4949 24.0622C21.4922 24.0628 21.4895 24.0634 21.4867 24.0641C21.484 24.0647 21.4813 24.0654 21.4786 24.066C21.4759 24.0666 21.4732 24.0673 21.4705 24.0679C21.4678 24.0685 21.4651 24.0692 21.4625 24.0698C21.4598 24.0704 21.4571 24.0711 21.4544 24.0717C21.4517 24.0723 21.4491 24.073 21.4464 24.0736C21.4437 24.0742 21.441 24.0749 21.4384 24.0755C21.4357 24.0761 21.4331 24.0768 21.4304 24.0774C21.4277 24.078 21.4251 24.0786 21.4224 24.0793C21.4198 24.0799 21.4172 24.0805 21.4145 24.0811C21.4119 24.0818 21.4092 24.0824 21.4066 24.083C21.404 24.0836 21.4014 24.0842 21.3987 24.0849C21.3961 24.0855 21.3935 24.0861 21.3909 24.0867C21.3883 24.0873 21.3857 24.088 21.3831 24.0886C21.3804 24.0892 21.3778 24.0898 21.3752 24.0904C21.3726 24.091 21.3701 24.0916 21.3675 24.0923C21.3649 24.0929 21.3623 24.0935 21.3597 24.0941C21.3571 24.0947 21.3546 24.0953 21.352 24.0959C21.3494 24.0965 21.3468 24.0971 21.3443 24.0977C21.3417 24.0983 21.3392 24.0989 21.3366 24.0995C21.3341 24.1001 21.3315 24.1007 21.329 24.1014C21.3264 24.102 21.3239 24.1026 21.3213 24.1032C21.3188 24.1038 21.3163 24.1043 21.3137 24.1049C21.3112 24.1055 21.3087 24.1061 21.3062 24.1067C21.3036 24.1073 21.3011 24.1079 21.2986 24.1085C21.2961 24.1091 21.2936 24.1097 21.2911 24.1103C21.2886 24.1109 21.2861 24.1115 21.2836 24.1121C21.2811 24.1126 21.2786 24.1132 21.2762 24.1138C21.2737 24.1144 21.2712 24.115 21.2687 24.1156C21.2663 24.1162 21.2638 24.1167 21.2613 24.1173C21.2589 24.1179 21.2564 24.1185 21.2539 24.1191C21.2515 24.1197 21.249 24.1202 21.2466 24.1208C21.2441 24.1214 21.2417 24.122 21.2393 24.1225C21.2368 24.1231 21.2344 24.1237 21.232 24.1243C21.2295 24.1248 21.2271 24.1254 21.2247 24.126C21.2223 24.1266 21.2199 24.1271 21.2175 24.1277C21.2151 24.1283 21.2127 24.1288 21.2103 24.1294C21.2079 24.13 21.2055 24.1305 21.2031 24.1311C21.2007 24.1317 21.1983 24.1322 21.1959 24.1328C21.1936 24.1333 21.1912 24.1339 21.1888 24.1345C21.1864 24.135 21.1841 24.1356 21.1817 24.1361C21.1794 24.1367 21.177 24.1372 21.1747 24.1378C21.1723 24.1384 21.17 24.1389 21.1676 24.1395C21.1653 24.14 21.163 24.1406 21.1606 24.1411C21.1583 24.1417 21.156 24.1422 21.1537 24.1428C21.1513 24.1433 21.149 24.1439 21.1467 24.1444C21.1444 24.1449 21.1421 24.1455 21.1398 24.146C21.1375 24.1466 21.1352 24.1471 21.1329 24.1477C21.1307 24.1482 21.1284 24.1487 21.1261 24.1493C21.1238 24.1498 21.1215 24.1504 21.1193 24.1509C21.117 24.1514 21.1147 24.152 21.1125 24.1525C21.1102 24.153 21.108 24.1536 21.1057 24.1541C21.1035 24.1546 21.1013 24.1551 21.099 24.1557C21.0968 24.1562 21.0946 24.1567 21.0923 24.1573C21.0901 24.1578 21.0879 24.1583 21.0857 24.1588C21.0835 24.1594 21.0812 24.1599 21.079 24.1604C21.0768 24.1609 21.0746 24.1614 21.0725 24.162C21.0703 24.1625 21.0681 24.163 21.0659 24.1635C21.0637 24.164 21.0615 24.1645 21.0594 24.165C21.0572 24.1656 21.055 24.1661 21.0529 24.1666C21.0507 24.1671 21.0486 24.1676 21.0464 24.1681C21.0443 24.1686 21.0421 24.1691 21.04 24.1696C21.0378 24.1701 21.0357 24.1706 21.0336 24.1711C21.0315 24.1716 21.0293 24.1721 21.0272 24.1726C21.0251 24.1731 21.023 24.1736 21.0209 24.1741C21.0188 24.1746 21.0167 24.1751 21.0146 24.1756C21.0125 24.1761 21.0104 24.1766 21.0083 24.1771C21.0062 24.1776 21.0042 24.1781 21.0021 24.1786C21 24.1791 20.998 24.1795 20.9959 24.18C20.9939 24.1805 20.9918 24.181 20.9898 24.1815C20.9877 24.182 20.9857 24.1825 20.9836 24.1829C20.9816 24.1834 20.9796 24.1839 20.9775 24.1844C20.9755 24.1849 20.9735 24.1853 20.9715 24.1858C20.9695 24.1863 20.9675 24.1868 20.9655 24.1872C20.9635 24.1877 20.9615 24.1882 20.9595 24.1886C20.9575 24.1891 20.9555 24.1896 20.9535 24.19C20.9516 24.1905 20.9496 24.191 20.9476 24.1914C20.9457 24.1919 20.9437 24.1924 20.9418 24.1928C20.9398 24.1933 20.9379 24.1937 20.9359 24.1942C20.934 24.1947 20.932 24.1951 20.9301 24.1956C20.9282 24.196 20.9263 24.1965 20.9243 24.1969C20.9224 24.1974 20.9205 24.1978 20.9186 24.1983C20.9167 24.1987 20.9148 24.1992 20.9129 24.1996C20.911 24.2001 20.9091 24.2005 20.9073 24.201C20.9054 24.2014 20.9035 24.2019 20.9016 24.2023C20.8998 24.2027 20.8979 24.2032 20.8961 24.2036C20.8942 24.2041 20.8924 24.2045 20.8905 24.2049C20.8887 24.2054 20.8868 24.2058 20.885 24.2062C20.8832 24.2067 20.8813 24.2071 20.8795 24.2075C20.8777 24.208 20.8759 24.2084 20.8741 24.2088L21.104 25.182Z" fill="#151417"></path><path d="M8.94504 15.2978C7.77753 15.8233 6.70066 16.9251 6.67895 18.8319" stroke="#151417" stroke-linecap="round"></path><path d="M9.09501 12.1544C7.57611 12.5228 3.66743 14.3469 3.61131 19.2146" stroke="#151417" stroke-linecap="round"></path></svg> 