<?xml version="1.0" encoding="UTF-8"?> <svg xmlns="http://www.w3.org/2000/svg" width="56" height="56" viewBox="0 0 56 56" fill="none"><path d="M28.5129 32.1265L36.4137 37.8663" stroke="#151417" stroke-linecap="round"></path><path d="M28.4632 24.3059V31.8978C28.4632 32.0645 28.3801 32.2202 28.2416 32.3131L20.7524 37.3344" stroke="#151417" stroke-linecap="round"></path><path d="M37.543 19.647C39.0569 13.8229 35.1125 10.0068 32.2031 8.71087C28.7902 7.19072 22.4594 7.68803 19.949 13.8323C17.4386 19.9766 21.8963 24.3633 24.9796 25.7382C28.0628 27.1131 35.6507 26.927 37.543 19.647Z" fill="#600DFF" stroke="#600DFF"></path><path d="M23.1933 42.1859C24.7072 36.3619 20.7628 32.5457 17.8534 31.2498C14.4405 29.7297 8.10968 30.227 5.59931 36.3713C3.08894 42.5156 7.54659 46.9022 10.6299 48.2771C13.7131 49.652 21.301 49.466 23.1933 42.1859Z" fill="white" stroke="#151417"></path><path d="M51.5399 42.1859C53.0538 36.3619 49.1094 32.5457 46.2 31.2498C42.7871 29.7297 36.4563 30.227 33.9459 36.3713C31.4355 42.5156 35.8932 46.9022 38.9764 48.2771C42.0597 49.652 49.6475 49.466 51.5399 42.1859Z" fill="white" stroke="#151417"></path><path d="M25.3505 18.0379C23.929 18.8859 23.2861 20.3361 23.0383 21.5321C22.8746 22.3224 23.5527 22.953 24.3588 22.9305L33.3052 22.6813C34.0463 22.6606 34.6672 22.0874 34.5182 21.3616C34.3534 20.5583 33.9897 19.7133 33.4799 19.1059C31.3811 16.6052 27.9703 16.475 25.3505 18.0379Z" fill="white"></path><path d="M29.7691 10.667C28.3172 10.0624 27.2236 10.6485 26.7341 11.0283C26.4077 11.2815 25.6207 12.0858 25.5677 13.3176C25.4948 15.0137 26.8433 15.9387 27.3448 16.0951C28.2919 16.3904 29.7865 16.4269 30.8121 15.2707C31.8917 14.0537 31.5562 11.4112 29.7691 10.667Z" fill="white"></path><path d="M10.9966 40.5756C9.57507 41.4236 8.93213 42.8738 8.68437 44.0697C8.52063 44.8601 9.19874 45.4906 10.0048 45.4682L18.9513 45.2189C19.6923 45.1983 20.3132 44.625 20.1643 43.8993C19.9995 43.0959 19.6358 42.251 19.126 41.6436C17.0271 39.1429 13.6163 39.0127 10.9966 40.5756Z" fill="#151417"></path><path d="M15.4152 33.2047C13.9632 32.6001 12.8696 33.1862 12.3801 33.566C12.0538 33.8192 11.2668 34.6235 11.2138 35.8553C11.1408 37.5514 12.4894 38.4764 12.9908 38.6327C13.938 38.9281 15.4326 38.9645 16.4581 37.8084C17.5377 36.5913 17.2022 33.9488 15.4152 33.2047Z" fill="#151417"></path><path d="M39.341 40.5756C37.9195 41.4236 37.2766 42.8738 37.0288 44.0697C36.8651 44.8601 37.5432 45.4906 38.3492 45.4682L47.2957 45.2189C48.0367 45.1983 48.6576 44.625 48.5087 43.8993C48.3439 43.0959 47.9802 42.251 47.4704 41.6436C45.3715 39.1429 41.9608 39.0127 39.341 40.5756Z" fill="#151417"></path><path d="M43.7596 33.2047C42.3077 32.6001 41.214 33.1862 40.7245 33.566C40.3982 33.8192 39.6112 34.6235 39.5582 35.8553C39.4852 37.5514 40.8338 38.4764 41.3352 38.6327C42.2824 38.9281 43.777 38.9645 44.8026 37.8084C45.8821 36.5913 45.5467 33.9488 43.7596 33.2047Z" fill="#151417"></path></svg> 