<svg width="138" height="21" viewBox="0 0 138 21" fill="none" xmlns="http://www.w3.org/2000/svg">
<path d="M73.384 15.224C75.976 15.224 77.784 13.704 78.36 11.576L77.176 11.144C76.712 12.776 75.4 13.992 73.384 13.992C71.224 13.992 69.144 12.408 69.144 9.32C69.144 6.248 71.224 4.664 73.384 4.664C75.32 4.664 76.664 5.688 77.096 7.464L78.344 7.032C77.784 4.856 75.96 3.432 73.384 3.432C70.584 3.432 67.8 5.528 67.8 9.32C67.8 13.112 70.504 15.224 73.384 15.224ZM83.0175 7.112C80.8095 7.112 79.1775 8.808 79.1775 11.16C79.1775 13.528 80.8095 15.224 83.0175 15.224C85.2255 15.224 86.8575 13.528 86.8575 11.16C86.8575 8.808 85.2255 7.112 83.0175 7.112ZM83.0175 8.264C84.3935 8.264 85.5775 9.304 85.5775 11.16C85.5775 13.032 84.3935 14.072 83.0175 14.072C81.6415 14.072 80.4575 13.032 80.4575 11.16C80.4575 9.304 81.6415 8.264 83.0175 8.264ZM89.5985 7.336H88.3505V15H89.6305V10.36C89.6305 9.16 90.3825 8.264 91.5345 8.264C92.7505 8.264 93.3105 9.08 93.3105 10.136V15H94.5905V10.344C94.5905 9.192 95.3585 8.264 96.4945 8.264C97.6945 8.264 98.2545 9.08 98.2545 10.136V15H99.5345V9.992C99.5345 8.072 98.2865 7.112 96.8945 7.112C95.8065 7.112 94.8465 7.592 94.3025 8.68C93.9185 7.672 93.0065 7.112 91.9505 7.112C90.9585 7.112 90.0305 7.624 89.5985 8.424V7.336ZM102.729 18.04V13.816C103.129 14.536 104.009 15.224 105.321 15.224C107.529 15.224 108.841 13.448 108.841 11.16C108.841 8.872 107.609 7.112 105.353 7.112C103.993 7.112 103.097 7.832 102.697 8.616V7.336H101.449V18.04H102.729ZM105.129 14.072C103.657 14.072 102.697 12.856 102.697 11.16C102.697 9.464 103.641 8.264 105.129 8.264C106.617 8.264 107.561 9.464 107.561 11.16C107.561 12.856 106.601 14.072 105.129 14.072ZM111.624 15V3.432H110.344V15H111.624ZM114.925 15V7.336H113.645V15H114.925ZM113.325 4.312C113.325 4.84 113.757 5.272 114.285 5.272C114.813 5.272 115.245 4.84 115.245 4.312C115.245 3.784 114.813 3.352 114.285 3.352C113.757 3.352 113.325 3.784 113.325 4.312ZM116.402 12.968C116.402 14.136 117.346 15.224 118.93 15.224C120.306 15.224 121.138 14.472 121.474 13.848C121.474 14.44 121.538 14.824 121.57 15H122.818C122.77 14.76 122.722 14.36 122.722 13.72V9.848C122.722 8.36 121.81 7.112 119.634 7.112C117.986 7.112 116.706 8.104 116.546 9.56L117.762 9.848C117.874 8.872 118.546 8.2 119.666 8.2C120.866 8.2 121.442 8.856 121.442 9.72C121.442 10.056 121.314 10.296 120.754 10.376L118.69 10.68C117.346 10.872 116.402 11.624 116.402 12.968ZM119.09 14.136C118.21 14.136 117.682 13.528 117.682 12.904C117.682 12.152 118.21 11.736 118.946 11.624L121.442 11.256V11.768C121.442 13.4 120.418 14.136 119.09 14.136ZM125.934 10.488C125.934 9.288 126.622 8.264 127.854 8.264C129.246 8.264 129.758 9.16 129.758 10.28V15H131.038V10.088C131.038 8.424 130.142 7.112 128.302 7.112C127.294 7.112 126.398 7.592 125.902 8.488V7.336H124.654V15H125.934V10.488ZM134.733 4.904H133.533V6.168C133.533 6.888 133.197 7.336 132.413 7.336H131.917V8.488H133.453V12.904C133.453 14.296 134.269 15.08 135.533 15.08C136.029 15.08 136.397 14.984 136.541 14.936V13.848C136.413 13.88 136.125 13.928 135.901 13.928C135.085 13.928 134.733 13.528 134.733 12.728V8.488H136.541V7.336H134.733V4.904Z" fill="white"/>
<path d="M31.76 15V8.936H25.984V11.08H29.392C29.248 11.72 28.464 12.936 26.592 12.936C24.752 12.936 23.184 11.704 23.184 9.336C23.184 6.808 24.992 5.784 26.528 5.784C28.416 5.784 29.168 7.064 29.344 7.768L31.776 6.92C31.28 5.336 29.776 3.416 26.528 3.416C23.328 3.416 20.624 5.768 20.624 9.336C20.624 12.92 23.216 15.24 26.368 15.24C27.984 15.24 29.056 14.568 29.552 13.848L29.712 15H31.76ZM35.953 12.616V6.04H37.425C39.169 6.04 40.593 7.064 40.593 9.336C40.593 11.608 39.169 12.616 37.425 12.616H35.953ZM37.521 15C40.945 15 43.233 12.84 43.233 9.336C43.233 5.832 40.945 3.656 37.537 3.656H33.425V15H37.521ZM47.239 8.744V5.848H48.711C49.671 5.848 50.327 6.392 50.327 7.304C50.327 8.184 49.671 8.744 48.711 8.744H47.239ZM48.967 10.92C51.271 10.92 52.855 9.432 52.855 7.288C52.855 5.176 51.271 3.656 48.967 3.656H44.695V15H47.223V10.92H48.967ZM59.4835 15H62.2675L59.9635 10.408C61.3555 9.912 62.2035 8.744 62.2035 7.208C62.2035 5.192 60.7635 3.656 58.5235 3.656H54.0275V15H56.5555V10.776H57.4515L59.4835 15ZM56.5555 8.6V5.848H58.0435C59.0835 5.848 59.6435 6.376 59.6435 7.224C59.6435 8.024 59.0835 8.6 58.0435 8.6H56.5555Z" fill="white"/>
<circle cx="8" cy="9" r="8" fill="white"/>
<path d="M6.28286 11.7843L4.17772 9.59878C3.94076 9.35278 3.94076 8.95593 4.17772 8.70993C4.41267 8.46602 4.79506 8.46451 5.03182 8.70657C5.03271 8.70748 5.0336 8.7084 5.03449 8.70932L6.7857 10.5223L10.9648 6.18368C11.1995 5.94009 11.5814 5.93859 11.8178 6.18032C11.8194 6.18195 11.821 6.18359 11.8225 6.18524C12.0597 6.43323 12.0591 6.8317 11.821 7.07883L7.28854 11.7843C7.01295 12.0704 6.56441 12.0721 6.2867 11.7882C6.28541 11.7869 6.28414 11.7856 6.28286 11.7843Z" fill="#600DFF"/>
</svg>
