<svg width="157" height="20" viewBox="0 0 157 20" fill="none" xmlns="http://www.w3.org/2000/svg">
<path d="M57.24 8.344L55.928 8.184C55.896 8.04 55.88 7.864 55.88 7.72C55.88 5.944 57.176 4.408 59.4 4.408C61.544 4.408 62.824 5.832 62.824 7.544C62.824 8.904 62.056 9.976 60.872 10.728L58.744 12.088C58.12 12.488 57.544 13.032 57.416 13.784H62.92V15H55.784C55.816 13.4 56.456 12.12 58.12 11.048L59.976 9.848C60.984 9.208 61.48 8.472 61.48 7.56C61.48 6.536 60.744 5.592 59.368 5.592C57.96 5.592 57.192 6.568 57.192 7.848C57.192 8.024 57.208 8.216 57.24 8.344ZM71.2856 4.632V5.912C69.9256 7.112 67.2856 9.768 66.7736 15H65.3976C65.8936 9.304 69.1896 6.392 69.7816 5.848H63.7816V4.632H71.2856ZM79.1025 4.632V5.912C77.7425 7.112 75.1025 9.768 74.5905 15H73.2145C73.7105 9.304 77.0065 6.392 77.5985 5.848H71.5985V4.632H79.1025ZM83.8154 14.04C84.5834 14.04 85.1434 13.752 85.5594 13.304C86.2474 12.584 86.5354 11.384 86.5354 9.816C86.5354 8.248 86.2474 7.048 85.5594 6.328C85.1434 5.88 84.5834 5.592 83.8154 5.592C83.0474 5.592 82.4874 5.88 82.0714 6.328C81.3834 7.048 81.0954 8.248 81.0954 9.816C81.0954 11.384 81.3834 12.584 82.0714 13.304C82.4874 13.752 83.0474 14.04 83.8154 14.04ZM83.8154 15.224C82.4074 15.224 81.3994 14.6 80.7434 13.64C80.0234 12.6 79.7834 11.224 79.7834 9.816C79.7834 8.408 80.0234 7.032 80.7434 5.992C81.3994 5.032 82.4074 4.408 83.8154 4.408C85.2234 4.408 86.2314 5.032 86.8874 5.992C87.6074 7.032 87.8474 8.408 87.8474 9.816C87.8474 11.224 87.6074 12.6 86.8874 13.64C86.2314 14.6 85.2234 15.224 83.8154 15.224ZM92.5083 15H91.1963V7.432H88.6523V6.664C90.0923 6.6 91.0683 5.752 91.3243 4.632H92.5083V15ZM103.207 15.224C100.327 15.224 97.6231 13.112 97.6231 9.32C97.6231 5.528 100.407 3.432 103.207 3.432C105.783 3.432 107.607 4.856 108.167 7.032L106.919 7.464C106.487 5.688 105.143 4.664 103.207 4.664C101.047 4.664 98.9671 6.248 98.9671 9.32C98.9671 12.408 101.047 13.992 103.207 13.992C105.223 13.992 106.535 12.776 106.999 11.144L108.183 11.576C107.607 13.704 105.799 15.224 103.207 15.224ZM110.345 10.424H114.921C114.889 9.208 114.105 8.248 112.649 8.248C111.321 8.248 110.425 9.288 110.345 10.424ZM115.097 12.424L116.201 12.824C115.769 14.152 114.569 15.224 112.793 15.224C110.745 15.224 109.001 13.72 109.001 11.144C109.001 8.728 110.697 7.112 112.633 7.112C114.953 7.112 116.249 8.728 116.249 11.064C116.249 11.224 116.233 11.4 116.217 11.512H110.313V11.576C110.313 13.032 111.417 14.072 112.793 14.072C114.089 14.072 114.793 13.336 115.097 12.424ZM121.817 7.288V8.648C121.609 8.584 121.369 8.568 121.145 8.568C119.865 8.568 118.985 9.304 118.985 11.032V15H117.705V7.336H118.953V8.712C119.449 7.592 120.425 7.224 121.273 7.224C121.481 7.224 121.705 7.256 121.817 7.288ZM124.706 4.904V7.336H126.514V8.488H124.706V12.728C124.706 13.528 125.058 13.928 125.874 13.928C126.098 13.928 126.386 13.88 126.514 13.848V14.936C126.37 14.984 126.002 15.08 125.506 15.08C124.242 15.08 123.426 14.296 123.426 12.904V8.488H121.89V7.336H122.386C123.17 7.336 123.506 6.888 123.506 6.168V4.904H124.706ZM129.072 15H127.792V7.336H129.072V15ZM127.472 4.312C127.472 3.784 127.904 3.352 128.432 3.352C128.96 3.352 129.392 3.784 129.392 4.312C129.392 4.84 128.96 5.272 128.432 5.272C127.904 5.272 127.472 4.84 127.472 4.312ZM137.941 15H136.661V8.488H132.949V15H131.669V8.488H130.165V7.336H131.669V5.912C131.669 4.232 132.725 3.352 134.085 3.352C134.549 3.352 134.853 3.448 134.965 3.512V4.616C134.853 4.568 134.645 4.504 134.277 4.504C133.653 4.504 132.949 4.84 132.949 5.944V7.336H137.941V15ZM136.341 4.312C136.341 3.784 136.773 3.352 137.301 3.352C137.829 3.352 138.261 3.784 138.261 4.312C138.261 4.84 137.829 5.272 137.301 5.272C136.773 5.272 136.341 4.84 136.341 4.312ZM140.773 10.424H145.349C145.317 9.208 144.533 8.248 143.077 8.248C141.749 8.248 140.853 9.288 140.773 10.424ZM145.525 12.424L146.629 12.824C146.197 14.152 144.997 15.224 143.221 15.224C141.173 15.224 139.429 13.72 139.429 11.144C139.429 8.728 141.125 7.112 143.061 7.112C145.381 7.112 146.677 8.728 146.677 11.064C146.677 11.224 146.661 11.4 146.645 11.512H140.741V11.576C140.741 13.032 141.845 14.072 143.221 14.072C144.517 14.072 145.221 13.336 145.525 12.424ZM153.685 13.896V13.688C153.333 14.44 152.501 15.224 151.173 15.224C148.965 15.224 147.621 13.432 147.621 11.16C147.621 8.936 149.029 7.112 151.173 7.112C152.645 7.112 153.397 7.928 153.653 8.568V3.432H154.933V13.56C154.933 14.328 154.981 14.84 155.013 15H153.765C153.733 14.824 153.685 14.392 153.685 13.896ZM151.285 14.072C152.725 14.072 153.685 12.856 153.685 11.16C153.685 9.464 152.741 8.264 151.285 8.264C149.829 8.264 148.901 9.464 148.901 11.16C148.901 12.856 149.845 14.072 151.285 14.072Z" fill="white"/>
<path fill-rule="evenodd" clip-rule="evenodd" d="M29.3087 3.96385C30.9966 2.7126 33.5959 2.7983 35.4526 3.60389L36.2291 4.03237C36.2798 3.90859 36.2756 3.75379 36.2715 3.6053C36.2688 3.50705 36.2662 3.41156 36.2797 3.32965C37.0392 3.29541 37.9675 3.29542 38.7271 3.31251C38.7322 3.7371 38.7402 4.14489 38.7482 4.54545C38.7668 5.48698 38.7846 6.38858 38.7609 7.37458C38.1483 7.40053 37.5067 7.39705 36.9092 7.39381C36.7165 7.39276 36.5283 7.39174 36.3472 7.39174C35.6552 6.27767 34.4399 5.86634 33.2584 5.69495C33.1658 5.6921 33.0682 5.68499 32.9682 5.67771C32.4663 5.64117 31.9054 5.60035 31.638 6.07196C31.6043 6.26051 31.6887 6.41476 31.8236 6.53476L32.1275 6.68901L36.2122 7.90591C37.5794 8.26586 38.9297 9.58564 39.1153 11.0425C39.3011 12.5335 38.6259 13.9219 37.36 14.6418C35.6214 15.5672 33.3596 15.3958 31.6043 14.6418C31.5089 14.5905 31.4135 14.5373 31.3181 14.4841C31.1265 14.3773 30.935 14.2705 30.7434 14.179L30.7096 15.0016L28.1778 15.0187C28.1272 13.6476 28.1441 12.0536 28.1778 10.6654L30.4565 10.6482C30.524 10.7339 30.5789 10.8282 30.6338 10.9225C30.6886 11.0168 30.7435 11.111 30.8109 11.1966C31.9587 12.4307 33.6803 12.7735 35.2669 12.3279L35.2725 12.3247C35.3898 12.2566 35.537 12.1712 35.537 12.0193C35.5708 11.8308 35.3682 11.6765 35.2163 11.6081C34.5082 11.3604 33.7892 11.1425 33.071 10.9249C32.2485 10.6756 31.4273 10.4268 30.6252 10.134C29.5281 9.70548 28.3804 8.79711 28.161 7.56312C27.874 6.26051 28.2116 4.78649 29.3087 3.96385ZM41.9679 3.91238C44.2297 2.60984 47.5717 2.71261 49.7659 4.1524C50.5255 4.68366 51.1501 5.42069 51.4538 6.24335C52.2134 8.36862 52.129 11.1966 50.8799 13.082C50.3397 13.8019 49.614 14.3331 48.8544 14.6589L48.7827 14.691C48.5295 14.8302 48.1603 14.9267 48.0443 14.9503C45.5968 15.6529 42.8456 15.2758 40.9551 13.5619C39.3348 11.9336 39.2167 9.34561 39.6724 7.16887C39.9256 5.84918 40.7357 4.56373 41.9679 3.91238ZM20.0422 3.1411L21.0887 3.12402L27.452 3.1411C27.5026 4.03237 27.4858 5.07791 27.4689 6.05482L25.7979 6.07196L25.7642 6.12344L25.7473 12.1393C26.0627 12.1794 26.4068 12.1785 26.7495 12.1777C26.9937 12.1771 27.2372 12.1765 27.4689 12.1907V15.0187H20.0253C19.9916 14.076 19.9916 13.1506 20.0253 12.1907L21.6963 12.1566L21.7132 11.9165V6.08912C21.3407 6.05475 20.9756 6.05101 20.603 6.04719C20.4185 6.0453 20.2322 6.04339 20.0422 6.03774C20.0253 5.11214 20.0253 4.04953 20.0422 3.1411ZM47.8107 7.66872C47.7789 7.27658 47.7461 6.87366 47.529 6.54936C47.0927 5.98272 46.402 5.87646 45.6933 5.87646C45.0208 5.92963 44.2754 6.10669 44.0028 6.79723C43.6823 7.83262 43.7376 9.02058 43.7908 10.1629C43.7949 10.2513 43.799 10.3393 43.8029 10.427L43.8047 10.4424C43.8769 11.0575 43.9529 11.7052 44.5119 12.0915C45.1842 12.4633 46.1658 12.5518 46.8928 12.2331C47.3472 12.0737 47.638 11.631 47.7288 11.2062C47.8591 10.4699 47.8493 9.64271 47.8401 8.86153C47.8364 8.55299 47.8328 8.25162 47.838 7.96586C47.8269 7.86852 47.8188 7.76897 47.8107 7.66872Z" fill="white"/>
<circle cx="8" cy="9" r="8" fill="white"/>
<path d="M6.28286 11.7843L4.17772 9.59878C3.94076 9.35278 3.94076 8.95593 4.17772 8.70993C4.41267 8.46602 4.79506 8.46451 5.03182 8.70657C5.03271 8.70748 5.0336 8.7084 5.03449 8.70932L6.7857 10.5223L10.9648 6.18368C11.1995 5.94009 11.5814 5.93859 11.8178 6.18032C11.8194 6.18195 11.821 6.18359 11.8225 6.18524C12.0597 6.43323 12.0591 6.8317 11.821 7.07883L7.28854 11.7843C7.01295 12.0704 6.56441 12.0721 6.2867 11.7882C6.28541 11.7869 6.28414 11.7856 6.28286 11.7843Z" fill="#600DFF"/>
</svg>
