<?xml version="1.0" encoding="UTF-8"?> <svg xmlns="http://www.w3.org/2000/svg" width="414" height="24" viewBox="0 0 414 24" fill="none"><path d="M242.552 6.90849C242.735 6.53687 243.265 6.53687 243.448 6.90849L245.235 10.5282C245.308 10.6758 245.448 10.7781 245.611 10.8017L249.606 11.3822C250.016 11.4418 250.18 11.9458 249.883 12.235L246.992 15.0526C246.875 15.1675 246.821 15.333 246.849 15.4952L247.531 19.4736C247.601 19.8821 247.172 20.1935 246.806 20.0007L243.233 18.1223C243.087 18.0457 242.913 18.0457 242.767 18.1223L239.194 20.0007C238.828 20.1935 238.399 19.8821 238.469 19.4736L239.151 15.4951C239.179 15.333 239.125 15.1675 239.008 15.0526L236.117 12.235C235.82 11.9458 235.984 11.4418 236.394 11.3822L240.389 10.8017C240.552 10.7781 240.692 10.6758 240.765 10.5282L242.552 6.90849Z" fill="#FFDE06"></path><path d="M260.552 6.90849C260.735 6.53687 261.265 6.53687 261.448 6.90849L263.235 10.5282C263.308 10.6758 263.448 10.7781 263.611 10.8017L267.606 11.3822C268.016 11.4418 268.18 11.9458 267.883 12.235L264.992 15.0526C264.875 15.1675 264.821 15.333 264.849 15.4952L265.531 19.4736C265.601 19.8821 265.172 20.1935 264.806 20.0007L261.233 18.1223C261.087 18.0457 260.913 18.0457 260.767 18.1223L257.194 20.0007C256.828 20.1935 256.399 19.8821 256.469 19.4736L257.151 15.4951C257.179 15.333 257.125 15.1675 257.008 15.0526L254.117 12.235C253.82 11.9458 253.984 11.4418 254.394 11.3822L258.389 10.8017C258.552 10.7781 258.692 10.6758 258.765 10.5282L260.552 6.90849Z" fill="#FFDE06"></path><path d="M278.552 6.90849C278.735 6.53687 279.265 6.53687 279.448 6.90849L281.235 10.5282C281.308 10.6758 281.448 10.7781 281.611 10.8017L285.606 11.3822C286.016 11.4418 286.18 11.9458 285.883 12.235L282.992 15.0526C282.875 15.1675 282.821 15.333 282.849 15.4952L283.531 19.4736C283.601 19.8821 283.172 20.1935 282.806 20.0007L279.233 18.1223C279.087 18.0457 278.913 18.0457 278.767 18.1223L275.194 20.0007C274.828 20.1935 274.399 19.8821 274.469 19.4736L275.151 15.4951C275.179 15.333 275.125 15.1675 275.008 15.0526L272.117 12.235C271.82 11.9458 271.984 11.4418 272.394 11.3822L276.389 10.8017C276.552 10.7781 276.692 10.6758 276.765 10.5282L278.552 6.90849Z" fill="#FFDE06"></path><path d="M296.552 6.90849C296.735 6.53687 297.265 6.53687 297.448 6.90849L299.235 10.5282C299.308 10.6758 299.448 10.7781 299.611 10.8017L303.606 11.3822C304.016 11.4418 304.18 11.9458 303.883 12.235L300.992 15.0526C300.875 15.1675 300.821 15.333 300.849 15.4952L301.531 19.4736C301.601 19.8821 301.172 20.1935 300.806 20.0007L297.233 18.1223C297.087 18.0457 296.913 18.0457 296.767 18.1223L293.194 20.0007C292.828 20.1935 292.399 19.8821 292.469 19.4736L293.151 15.4951C293.179 15.333 293.125 15.1675 293.008 15.0526L290.117 12.235C289.82 11.9458 289.984 11.4418 290.394 11.3822L294.389 10.8017C294.552 10.7781 294.692 10.6758 294.765 10.5282L296.552 6.90849Z" fill="#FFDE06"></path><path d="M337.971 17V9.212H336.543C336.387 10.028 335.595 10.664 334.455 10.676V11.792H336.327V17H337.971ZM339.302 16.04C339.302 16.616 339.71 17.036 340.298 17.036C340.43 17.036 340.562 17 340.61 16.964C340.586 17.624 340.01 18.14 339.47 18.26V19.028C340.358 18.92 341.582 18.176 341.582 16.412C341.582 15.632 341.138 15.032 340.394 15.032C339.77 15.032 339.302 15.464 339.302 16.04ZM345.628 12.404C344.908 12.404 344.488 11.936 344.488 11.384C344.488 10.868 344.908 10.4 345.628 10.4C346.36 10.4 346.78 10.868 346.78 11.384C346.78 11.936 346.36 12.404 345.628 12.404ZM345.628 15.812C344.776 15.812 344.32 15.284 344.32 14.732C344.32 14.168 344.752 13.628 345.628 13.628C346.504 13.628 346.948 14.168 346.948 14.732C346.948 15.284 346.492 15.812 345.628 15.812ZM345.628 17.18C347.404 17.18 348.568 16.244 348.568 14.9C348.568 14.06 348.016 13.304 347.2 13.004C347.98 12.716 348.412 11.948 348.412 11.264C348.412 9.956 347.248 9.032 345.628 9.032C344.008 9.032 342.844 9.956 342.844 11.264C342.844 11.96 343.288 12.716 344.068 13.004C343.24 13.316 342.688 14.06 342.688 14.9C342.688 16.244 343.852 17.18 345.628 17.18ZM349.469 14.816C349.565 16.04 350.741 17.192 352.433 17.192C354.305 17.192 355.421 15.932 355.421 14.48C355.421 12.812 354.317 11.876 352.757 11.876C352.241 11.876 351.689 12.044 351.353 12.356L351.737 10.64H355.001V9.212H350.609L349.685 13.208C349.853 13.256 351.041 13.664 351.197 13.724C351.449 13.436 351.869 13.196 352.397 13.196C353.117 13.196 353.777 13.616 353.777 14.504C353.777 15.284 353.177 15.776 352.433 15.776C351.605 15.776 351.053 15.188 351.017 14.468L349.469 14.816ZM358.044 13.112C358.044 12.296 358.164 11.6 358.464 11.132C358.704 10.748 359.076 10.496 359.64 10.496C360.216 10.496 360.564 10.748 360.804 11.132C361.116 11.6 361.236 12.296 361.236 13.112C361.236 13.928 361.116 14.624 360.804 15.092C360.564 15.476 360.216 15.728 359.64 15.728C359.076 15.728 358.704 15.476 358.464 15.092C358.164 14.624 358.044 13.928 358.044 13.112ZM356.388 13.112C356.388 14.108 356.544 15.08 357.072 15.884C357.588 16.652 358.428 17.192 359.64 17.192C360.852 17.192 361.692 16.652 362.196 15.884C362.724 15.08 362.892 14.108 362.892 13.112C362.892 12.116 362.724 11.144 362.196 10.34C361.692 9.572 360.852 9.032 359.64 9.032C358.428 9.032 357.588 9.572 357.072 10.34C356.544 11.144 356.388 12.116 356.388 13.112ZM363.802 12.812V14.12H366.07V16.472H367.414V14.12H369.694V12.812H367.414V10.472H366.07V12.812H363.802ZM377.153 11.216C377.069 11.192 376.901 11.168 376.745 11.168C376.109 11.168 375.377 11.444 375.005 12.284V11.252H374.069V17H375.029V14.024C375.029 12.728 375.689 12.176 376.649 12.176C376.817 12.176 376.997 12.188 377.153 12.236V11.216ZM378.771 13.568C378.831 12.716 379.503 11.936 380.499 11.936C381.591 11.936 382.179 12.656 382.203 13.568H378.771ZM382.335 15.068C382.107 15.752 381.579 16.304 380.607 16.304C379.575 16.304 378.747 15.524 378.747 14.432V14.384H383.175C383.187 14.3 383.199 14.168 383.199 14.048C383.199 12.296 382.227 11.084 380.487 11.084C379.035 11.084 377.763 12.296 377.763 14.108C377.763 16.04 379.071 17.168 380.607 17.168C381.939 17.168 382.839 16.364 383.163 15.368L382.335 15.068ZM389.384 11.252H388.352L386.612 15.884L384.884 11.252H383.804L386.12 17H387.092L389.384 11.252ZM391.576 17V11.252H390.616V17H391.576ZM390.376 8.984C390.376 9.38 390.7 9.704 391.096 9.704C391.492 9.704 391.816 9.38 391.816 8.984C391.816 8.588 391.492 8.264 391.096 8.264C390.7 8.264 390.376 8.588 390.376 8.984ZM394.064 13.568C394.124 12.716 394.796 11.936 395.792 11.936C396.884 11.936 397.472 12.656 397.496 13.568H394.064ZM397.628 15.068C397.4 15.752 396.872 16.304 395.9 16.304C394.868 16.304 394.04 15.524 394.04 14.432V14.384H398.468C398.48 14.3 398.492 14.168 398.492 14.048C398.492 12.296 397.52 11.084 395.78 11.084C394.328 11.084 393.056 12.296 393.056 14.108C393.056 16.04 394.364 17.168 395.9 17.168C397.232 17.168 398.132 16.364 398.456 15.368L397.628 15.068ZM403.223 11.252L401.639 15.8L400.235 11.252H399.203L401.111 17H402.131L403.715 12.416L405.323 17H406.331L408.203 11.252H407.183L405.815 15.8L404.219 11.252H403.223ZM408.898 15.488C408.994 16.208 409.678 17.168 411.19 17.168C412.558 17.168 413.266 16.256 413.266 15.428C413.266 14.576 412.714 13.988 411.706 13.76L410.77 13.544C410.266 13.424 410.014 13.172 410.014 12.764C410.014 12.284 410.482 11.9 411.082 11.9C411.994 11.9 412.294 12.536 412.366 12.932L413.218 12.62C413.086 12.032 412.57 11.084 411.082 11.084C409.99 11.084 409.078 11.864 409.078 12.824C409.078 13.652 409.63 14.216 410.506 14.42L411.442 14.636C411.97 14.756 412.318 15.044 412.318 15.476C412.318 15.968 411.886 16.352 411.202 16.352C410.338 16.352 409.846 15.848 409.762 15.188L408.898 15.488Z" fill="white"></path><path d="M225.296 9.72447H222.839C222.907 9.34827 223.145 9.14005 223.626 8.90033L224.079 8.67635C224.888 8.27216 225.318 7.81721 225.318 7.07356C225.325 6.85951 225.279 6.64692 225.182 6.45463C225.085 6.26234 224.941 6.09629 224.762 5.97119C224.379 5.70125 223.914 5.56168 223.441 5.57399C223.044 5.56995 222.655 5.67815 222.32 5.88545C221.998 6.07061 221.74 6.3447 221.579 6.67286L222.298 7.37277C222.573 6.83034 222.974 6.56437 223.501 6.56437C223.945 6.56437 224.22 6.78834 224.22 7.09805C224.22 7.35877 224.087 7.57574 223.574 7.82771L223.285 7.96594C222.654 8.27566 222.206 8.62911 221.964 9.03506C221.695 9.49923 221.565 10.0269 221.586 10.5591V10.7341H225.303L225.296 9.72447Z" fill="white"></path><path d="M224.967 11.8574H220.899L218.866 15.2852H222.934L224.967 18.7148L227 15.2852L224.967 11.8574Z" fill="white"></path><path d="M219.217 17.5722C217.971 17.5722 216.777 17.0905 215.896 16.233C215.015 15.3756 214.52 14.2126 214.52 13C214.52 11.7874 215.015 10.6244 215.896 9.76698C216.777 8.90953 217.971 8.42782 219.217 8.42782L220.826 5.15223C220.296 5.05085 219.757 4.99987 219.217 5C217.92 5.00011 216.641 5.29922 215.485 5.87286C214.329 6.44651 213.33 7.27838 212.567 8.30043C211.805 9.32248 211.303 10.5057 211.1 11.7532C210.898 13.0007 211.002 14.277 211.404 15.4779C211.806 16.6787 212.494 17.7699 213.412 18.6621C214.33 19.5543 215.453 20.2222 216.687 20.6111C217.921 21.0001 219.232 21.0991 220.514 20.8999C221.795 20.7008 223.009 20.2092 224.058 19.4654L222.276 16.4698C221.426 17.1831 220.34 17.5744 219.217 17.5722V17.5722Z" fill="white"></path><path d="M195 5.43164V21.2449" stroke="white" stroke-linejoin="round"></path><path d="M37.576 17V7.074H35.896V14.116L31.388 7.074H29.246V17H30.926V9.482L35.826 17H37.576ZM42.7934 15.754C41.7994 15.754 40.8894 14.998 40.8894 13.584C40.8894 12.17 41.7994 11.442 42.7934 11.442C43.8014 11.442 44.6974 12.17 44.6974 13.584C44.6974 15.012 43.8014 15.754 42.7934 15.754ZM42.7934 9.972C40.7634 9.972 39.2654 11.498 39.2654 13.584C39.2654 15.684 40.7634 17.21 42.7934 17.21C44.8374 17.21 46.3354 15.684 46.3354 13.584C46.3354 11.498 44.8374 9.972 42.7934 9.972ZM54.3728 11.47C55.4088 11.47 55.8708 12.142 56.0248 12.744L57.4808 12.212C57.2008 11.12 56.1928 9.972 54.3588 9.972C52.3988 9.972 50.8728 11.484 50.8728 13.584C50.8728 15.656 52.3988 17.21 54.4008 17.21C56.1928 17.21 57.2148 16.048 57.5368 14.984L56.1088 14.466C55.9548 14.984 55.4648 15.726 54.4008 15.726C53.3788 15.726 52.4968 14.956 52.4968 13.584C52.4968 12.212 53.3788 11.47 54.3728 11.47ZM62.9804 10.14C62.9104 10.126 62.7424 10.098 62.5464 10.098C61.6504 10.098 60.8944 10.532 60.5724 11.274V10.182H58.9904V17H60.6144V13.752C60.6144 12.478 61.1884 11.75 62.4484 11.75C62.6164 11.75 62.7984 11.764 62.9804 11.792V10.14ZM65.4041 12.842C65.4601 12.114 66.0481 11.33 67.0701 11.33C68.1901 11.33 68.7221 12.044 68.7501 12.842H65.4041ZM68.9321 14.62C68.7081 15.292 68.2041 15.81 67.2241 15.81C66.2161 15.81 65.4041 15.068 65.3621 14.032H70.3461C70.3601 14.004 70.3881 13.78 70.3881 13.514C70.3881 11.358 69.1561 9.972 67.0561 9.972C65.3341 9.972 63.7381 11.4 63.7381 13.556C63.7381 15.866 65.3761 17.21 67.2241 17.21C68.8621 17.21 69.9401 16.244 70.3041 15.054L68.9321 14.62ZM73.155 13.57C73.155 12.268 73.939 11.442 75.003 11.442C76.067 11.442 76.795 12.254 76.795 13.556C76.795 14.858 76.053 15.74 74.989 15.74C73.883 15.74 73.155 14.872 73.155 13.57ZM78.363 6.864H76.781V10.98C76.571 10.546 75.969 10 74.779 10C72.861 10 71.531 11.61 71.531 13.57C71.531 15.628 72.847 17.168 74.807 17.168C75.773 17.168 76.487 16.692 76.809 16.118C76.809 16.398 76.851 16.846 76.879 17H78.433C78.419 16.888 78.363 16.37 78.363 15.754V6.864ZM81.9832 17V10.182H80.3732V17H81.9832ZM80.1212 7.788C80.1212 8.376 80.5972 8.838 81.1712 8.838C81.7592 8.838 82.2352 8.376 82.2352 7.788C82.2352 7.2 81.7592 6.724 81.1712 6.724C80.5972 6.724 80.1212 7.2 80.1212 7.788ZM86.1383 8.096H84.6683V9.118C84.6683 9.72 84.3463 10.182 83.6183 10.182H83.2683V11.624H84.5283V15.054C84.5283 16.328 85.3123 17.084 86.5723 17.084C87.1603 17.084 87.4683 16.972 87.5663 16.93V15.586C87.4963 15.6 87.2303 15.642 87.0063 15.642C86.4043 15.642 86.1383 15.39 86.1383 14.788V11.624H87.5523V10.182H86.1383V8.096ZM95.5662 11.47C96.6022 11.47 97.0642 12.142 97.2182 12.744L98.6742 12.212C98.3942 11.12 97.3862 9.972 95.5522 9.972C93.5922 9.972 92.0662 11.484 92.0662 13.584C92.0662 15.656 93.5922 17.21 95.5942 17.21C97.3862 17.21 98.4082 16.048 98.7302 14.984L97.3022 14.466C97.1482 14.984 96.6582 15.726 95.5942 15.726C94.5722 15.726 93.6902 14.956 93.6902 13.584C93.6902 12.212 94.5722 11.47 95.5662 11.47ZM99.7638 15.152C99.7638 16.23 100.646 17.21 102.074 17.21C103.18 17.21 103.852 16.65 104.174 16.132C104.174 16.678 104.23 16.958 104.244 17H105.756C105.742 16.93 105.672 16.524 105.672 15.908V12.52C105.672 11.162 104.874 9.972 102.774 9.972C101.094 9.972 100.03 11.022 99.9038 12.198L101.388 12.534C101.458 11.848 101.934 11.302 102.788 11.302C103.684 11.302 104.076 11.764 104.076 12.338C104.076 12.576 103.964 12.772 103.572 12.828L101.822 13.094C100.66 13.262 99.7638 13.934 99.7638 15.152ZM102.382 15.936C101.738 15.936 101.388 15.516 101.388 15.054C101.388 14.494 101.794 14.214 102.298 14.13L104.076 13.864V14.172C104.076 15.502 103.292 15.936 102.382 15.936ZM111.625 10.14C111.555 10.126 111.387 10.098 111.191 10.098C110.295 10.098 109.539 10.532 109.217 11.274V10.182H107.635V17H109.259V13.752C109.259 12.478 109.833 11.75 111.093 11.75C111.261 11.75 111.443 11.764 111.625 11.792V10.14ZM114.007 13.57C114.007 12.268 114.791 11.442 115.855 11.442C116.919 11.442 117.647 12.254 117.647 13.556C117.647 14.858 116.905 15.74 115.841 15.74C114.735 15.74 114.007 14.872 114.007 13.57ZM119.215 6.864H117.633V10.98C117.423 10.546 116.821 10 115.631 10C113.713 10 112.383 11.61 112.383 13.57C112.383 15.628 113.699 17.168 115.659 17.168C116.625 17.168 117.339 16.692 117.661 16.118C117.661 16.398 117.703 16.846 117.731 17H119.285C119.271 16.888 119.215 16.37 119.215 15.754V6.864ZM128.605 10.14C128.535 10.126 128.367 10.098 128.171 10.098C127.275 10.098 126.519 10.532 126.197 11.274V10.182H124.615V17H126.239V13.752C126.239 12.478 126.813 11.75 128.073 11.75C128.241 11.75 128.423 11.764 128.605 11.792V10.14ZM131.029 12.842C131.085 12.114 131.673 11.33 132.695 11.33C133.815 11.33 134.347 12.044 134.375 12.842H131.029ZM134.557 14.62C134.333 15.292 133.829 15.81 132.849 15.81C131.841 15.81 131.029 15.068 130.987 14.032H135.971C135.985 14.004 136.013 13.78 136.013 13.514C136.013 11.358 134.781 9.972 132.681 9.972C130.959 9.972 129.363 11.4 129.363 13.556C129.363 15.866 131.001 17.21 132.849 17.21C134.487 17.21 135.565 16.244 135.929 15.054L134.557 14.62ZM144.044 19.66V10.182H142.49V11.092C142.252 10.602 141.594 10.014 140.404 10.014C138.416 10.014 137.17 11.61 137.17 13.57C137.17 15.6 138.5 17.168 140.446 17.168C141.398 17.168 142.112 16.79 142.448 16.188V19.66H144.044ZM138.808 13.57C138.808 12.268 139.55 11.456 140.628 11.456C141.692 11.456 142.462 12.268 142.462 13.57C142.462 14.872 141.692 15.74 140.628 15.74C139.564 15.74 138.808 14.872 138.808 13.57ZM150.505 16.244C150.505 16.524 150.533 16.846 150.561 17H152.115C152.087 16.748 152.045 16.314 152.045 15.754V10.182H150.421V14.214C150.421 15.11 149.931 15.74 148.993 15.74C148.013 15.74 147.621 15.026 147.621 14.186V10.182H145.997V14.48C145.997 15.992 146.949 17.196 148.573 17.196C149.371 17.196 150.169 16.86 150.505 16.244ZM155.675 17V10.182H154.065V17H155.675ZM153.813 7.788C153.813 8.376 154.289 8.838 154.863 8.838C155.451 8.838 155.927 8.376 155.927 7.788C155.927 7.2 155.451 6.724 154.863 6.724C154.289 6.724 153.813 7.2 153.813 7.788ZM161.678 10.14C161.608 10.126 161.44 10.098 161.244 10.098C160.348 10.098 159.592 10.532 159.27 11.274V10.182H157.688V17H159.312V13.752C159.312 12.478 159.886 11.75 161.146 11.75C161.314 11.75 161.496 11.764 161.678 11.792V10.14ZM164.101 12.842C164.157 12.114 164.745 11.33 165.767 11.33C166.887 11.33 167.419 12.044 167.447 12.842H164.101ZM167.629 14.62C167.405 15.292 166.901 15.81 165.921 15.81C164.913 15.81 164.101 15.068 164.059 14.032H169.043C169.057 14.004 169.085 13.78 169.085 13.514C169.085 11.358 167.853 9.972 165.753 9.972C164.031 9.972 162.435 11.4 162.435 13.556C162.435 15.866 164.073 17.21 165.921 17.21C167.559 17.21 168.637 16.244 169.001 15.054L167.629 14.62ZM171.852 13.57C171.852 12.268 172.636 11.442 173.7 11.442C174.764 11.442 175.492 12.254 175.492 13.556C175.492 14.858 174.75 15.74 173.686 15.74C172.58 15.74 171.852 14.872 171.852 13.57ZM177.06 6.864H175.478V10.98C175.268 10.546 174.666 10 173.476 10C171.558 10 170.228 11.61 170.228 13.57C170.228 15.628 171.544 17.168 173.504 17.168C174.47 17.168 175.184 16.692 175.506 16.118C175.506 16.398 175.548 16.846 175.576 17H177.13C177.116 16.888 177.06 16.37 177.06 15.754V6.864Z" fill="white"></path><path d="M314.552 6.90849C314.735 6.53687 315.265 6.53687 315.448 6.90849L317.235 10.5282C317.308 10.6758 317.448 10.7781 317.611 10.8017L321.606 11.3822C322.016 11.4418 322.18 11.9458 321.883 12.235L318.992 15.0526C318.875 15.1675 318.821 15.333 318.849 15.4952L319.531 19.4736C319.601 19.8821 319.172 20.1935 318.806 20.0007L315.233 18.1223C315.087 18.0457 314.913 18.0457 314.767 18.1223L311.194 20.0007C310.828 20.1935 310.399 19.8821 310.469 19.4736L311.151 15.4951C311.179 15.333 311.125 15.1675 311.008 15.0526L308.117 12.235C307.82 11.9458 307.984 11.4418 308.394 11.3822L312.389 10.8017C312.552 10.7781 312.692 10.6758 312.765 10.5282L314.552 6.90849Z" fill="#FFDE06"></path><path d="M321.602 11.3814L317.348 10.7632L318.801 15.2353L321.879 12.2343C322.176 11.945 322.012 11.441 321.602 11.3814Z" fill="white"></path><path d="M4.83465 4.69941H19.3228C21.3386 4.69941 21.9475 6.3792 22 7.2191V9.26655V15.0933C22 17.487 20.0052 18.0854 19.0079 18.0854H4.3622C2.72441 18.0854 2.10499 16.5106 2 15.7232V9.26655V7.2191C2 5.07737 3.88976 4.64692 4.83465 4.69941Z" fill="white"></path><path d="M2 7.2191C2 5.07737 3.88976 4.64692 4.83465 4.69941H19.3228C21.3386 4.69941 21.9475 6.3792 22 7.2191M2 7.2191H22M2 7.2191C2 7.77558 2 8.48587 2 9.26655M22 7.2191C22 7.72401 22 8.44318 22 9.26655M22 9.26655C22 11.097 22 13.4423 22 15.0933C22 17.487 20.0052 18.0854 19.0079 18.0854C14.8084 18.0854 6 18.0854 4.3622 18.0854C2.72441 18.0854 2.10499 16.5106 2 15.7232C2 14.2856 2 11.4905 2 9.26655M22 9.26655H2" stroke="#151417" stroke-linecap="round" stroke-linejoin="round"></path><path d="M22 7.2207H2V9.26815H22V7.2207Z" fill="#151417" stroke="#151417" stroke-linecap="round" stroke-linejoin="round"></path><path d="M4.04688 14.9375C4.29884 14.9375 5.89977 14.9375 7.99951 14.9375" stroke="#151417" stroke-linecap="round" stroke-linejoin="round"></path><path d="M16 1L8.5 22" stroke="#151417" stroke-linecap="round" stroke-linejoin="round"></path></svg> 