<?xml version="1.0" encoding="UTF-8"?> <svg xmlns="http://www.w3.org/2000/svg" width="56" height="56" viewBox="0 0 56 56" fill="none"><path d="M10.4737 46.7884L5.36208 12.533C5.1043 10.6194 5.35909 9.95165 7.79653 9.62344C15.2217 8.62364 28.2898 6.99885 28.8203 6.92742C29.3507 6.85599 29.6641 7.01904 29.7545 7.10949C31.2008 8.21468 34.4019 10.5076 35.4156 11.2527C36.4776 12.0333 36.6187 12.1308 36.6487 12.3407C38.0545 22.1755 40.7283 41.2919 40.8298 42.1996C41.026 43.9549 40.9233 44.0581 38.4529 44.4955C29.4463 45.721 14.0929 48.1552 12.9409 48.2796C11.3208 48.4545 10.7307 48.4701 10.4737 46.7884Z" fill="white" stroke="#151417" stroke-linecap="round"></path><path d="M29 7C29.2547 8.78199 29.7405 11.9383 29.7405 11.9383C29.8626 12.3978 30.0993 12.8574 31.0075 12.7351C31.5965 12.6558 34.8103 12.233 36.5 12.0055" stroke="#151417" stroke-linecap="round"></path><path d="M11.4232 17.9582L25.8729 15.8824" stroke="#151417" stroke-linecap="round"></path><path d="M11.4232 21.9582L25.8729 19.8824" stroke="#151417" stroke-linecap="round"></path><path d="M12.4232 25.9582L26.8729 23.8824" stroke="#151417" stroke-linecap="round"></path><circle cx="39" cy="40" r="9" fill="#600DFF"></circle><path d="M41.1298 36.1592C40.2765 35.6973 39.1084 35.2534 38.1077 35.6094C36.4223 36.209 36.1514 38.2477 38.1199 39.0716C39.8293 39.7869 41.3515 39.6762 42.063 40.9872C42.9431 42.6091 40.1344 44.893 37.349 42.6878" stroke="white" stroke-linecap="round"></path><path d="M39.5074 34L39.4661 35.413" stroke="white" stroke-linecap="round"></path><path d="M39.299 44.1958L39.2868 45.6094" stroke="white" stroke-linecap="round"></path><path d="M44.9842 26.8231L44.4155 28.9564" stroke="#151417" stroke-linecap="round"></path><path d="M48.9149 28.4036L47.0757 29.7736" stroke="#151417" stroke-linecap="round"></path><path d="M51.308 32.9514L49.0711 32.5285" stroke="#151417" stroke-linecap="round"></path><path d="M13.4339 32.4042C14.0251 32.8181 15.4878 33.4829 16.6097 32.8312C18.012 32.0166 18.1444 29.8518 17.3996 29.5157C16.6548 29.1797 15.4993 29.4662 15.361 30.4837C15.2227 31.5011 16.2226 33.2509 17.6432 33.2061C19.0637 33.1613 19.923 32.6827 20.5334 31.7167C21.1437 30.7508 21.5313 29.9997 22.4007 30.469C23.2702 30.9382 23.9278 32.018 24.6119 31.3486C25.2959 30.6792 25.2965 30.3478 25.6665 30.726C26.0366 31.1043 26.6019 31.449 26.8759 30.9603C27.095 30.5694 27.2333 30.3396 27.275 30.2735" stroke="#151417" stroke-linecap="round"></path></svg> 