<svg width="72" height="72" viewBox="0 0 72 72" fill="none" xmlns="http://www.w3.org/2000/svg">
<path d="M8.34603 22.7735H4.06211C2.96887 22.7735 3.24425 22.2177 3.42645 21.9398C3.97307 20.9208 5.49271 18.327 5.93001 17.2153C6.3673 16.1037 6.70617 16.8447 6.97948 17.2153C7.5261 18.3269 9.22864 21.137 9.66593 22.0264C10.1032 22.9157 8.80154 22.7735 8.34603 22.7735Z" fill="#151417" stroke="#151417"/>
<path d="M53.383 63.5592L53.383 59.2752C53.383 58.182 53.9388 58.4574 54.2167 58.6396C55.2357 59.1862 57.8295 60.7058 58.9411 61.1431C60.0528 61.5804 59.3118 61.9193 58.9412 62.1926C57.8296 62.7392 55.0194 64.4418 54.1301 64.8791C53.2408 65.3164 53.383 64.0147 53.383 63.5592Z" fill="#151417" stroke="#151417"/>
<path d="M12.3757 32.5857L12.6594 62H20.6041V32.1429C20.6041 30.0172 20.3484 29.0429 18.9016 29.043C17.4829 29.043 15.213 28.6002 13.5107 29.043C12.1546 29.3957 12.3757 31.7 12.3757 32.5857Z" fill="#600DFF"/>
<path d="M12.6594 62L12.1594 62.0048L12.1642 62.5H12.6594V62ZM12.3757 32.5857H11.8757L11.8757 32.5905L12.3757 32.5857ZM13.5107 29.043L13.6366 29.5269L13.5107 29.043ZM18.9016 29.043L18.9017 29.543L18.9016 29.043ZM20.6041 62V62.5H21.1041V62H20.6041ZM13.1594 61.9952L12.8757 32.5809L11.8757 32.5905L12.1594 62.0048L13.1594 61.9952ZM12.8757 32.5857C12.8757 32.0928 12.8224 31.3714 12.9286 30.6917C13.0386 29.988 13.2754 29.6208 13.6366 29.5269L13.3849 28.5591C12.3899 28.8179 12.0591 29.7792 11.9406 30.5373C11.8184 31.3193 11.8757 32.1929 11.8757 32.5857H12.8757ZM13.6366 29.5269C14.4078 29.3263 15.3349 29.3213 16.2836 29.3761C17.1892 29.4285 18.1781 29.543 18.9017 29.543L18.9016 28.543C18.2065 28.543 17.351 28.4361 16.3413 28.3778C15.3749 28.3219 14.3159 28.3169 13.3849 28.5591L13.6366 29.5269ZM18.9017 29.543C19.2106 29.5429 19.4073 29.5954 19.5378 29.6669C19.6603 29.734 19.7606 29.8372 19.8447 30.0124C20.0331 30.4043 20.1041 31.0666 20.1041 32.1429H21.1041C21.1041 31.0935 21.0472 30.2058 20.746 29.5792C20.5855 29.2451 20.3505 28.9719 20.0182 28.7898C19.6939 28.6122 19.3161 28.5429 18.9016 28.543L18.9017 29.543ZM20.1041 32.1429V62H21.1041V32.1429H20.1041ZM20.6041 61.5H12.6594V62.5H20.6041V61.5Z" fill="#151417"/>
<path d="M24.753 25.6764V62.0484H34.341C34.2344 50.7557 33.9722 28.1124 33.9722 25.9889C33.9722 23.773 34.341 22.6655 32.4971 22.665C30.6533 22.6645 27.2006 22.6652 26.351 22.665C24.3842 22.6646 24.753 24.9235 24.753 25.6764Z" fill="white"/>
<path d="M24.753 62.0484H24.253V62.5484H24.753V62.0484ZM26.351 22.665L26.3509 23.165L26.351 22.665ZM32.4971 22.665L32.4973 22.165L32.4971 22.665ZM34.341 62.0484V62.5484H34.8457L34.841 62.0437L34.341 62.0484ZM25.253 62.0484V25.6764H24.253V62.0484H25.253ZM25.253 25.6764C25.253 25.5677 25.2465 25.4359 25.2405 25.3075C25.2342 25.1738 25.2279 25.0315 25.2261 24.8821C25.2224 24.5804 25.238 24.2738 25.3014 24.0018C25.3649 23.7296 25.4678 23.5289 25.6108 23.3968C25.7444 23.2735 25.9613 23.1649 26.3509 23.165L26.3511 22.165C25.7573 22.1649 25.2828 22.3385 24.9324 22.6622C24.5914 22.977 24.4177 23.3881 24.3275 23.7747C24.2373 24.1614 24.2221 24.5607 24.2262 24.8943C24.2282 25.0626 24.2353 25.2203 24.2416 25.3541C24.2481 25.4934 24.253 25.5968 24.253 25.6764H25.253ZM26.3509 23.165C27.2014 23.1652 30.6526 23.1645 32.497 23.165L32.4973 22.165C30.654 22.1645 27.1998 22.1652 26.3511 22.165L26.3509 23.165ZM32.497 23.165C32.9206 23.1651 33.1338 23.2312 33.2431 23.2986C33.3285 23.3512 33.3944 23.4307 33.441 23.6173C33.4928 23.8248 33.5068 24.1126 33.5011 24.5278C33.4957 24.9135 33.4722 25.4383 33.4722 25.9889H34.4722C34.4722 25.4316 34.4948 24.9869 34.501 24.5417C34.5067 24.126 34.4977 23.7214 34.4112 23.3751C34.3195 23.0077 34.132 22.6718 33.7679 22.4473C33.4277 22.2377 32.9956 22.1651 32.4973 22.165L32.497 23.165ZM33.4722 25.9889C33.4722 28.1154 33.7345 50.7654 33.841 62.0531L34.841 62.0437C34.7344 50.7459 34.4722 28.1093 34.4722 25.9889H33.4722ZM34.341 61.5484H24.753V62.5484H34.341V61.5484Z" fill="#151417"/>
<path d="M37.7744 48.3162V61.6465H46.7403C46.7403 57.6968 46.4311 49.5011 46.4311 48.3162C46.4311 47.1078 46.122 46.962 45.1944 46.835C43.0303 46.5388 40.2858 46.835 39.0111 46.835C37.7744 46.835 37.7744 47.8225 37.7744 48.3162Z" fill="#DFCFFF"/>
<path d="M37.7744 61.6465H37.2744V62.1465H37.7744V61.6465ZM39.0111 46.835L39.0111 46.335L39.0111 46.835ZM45.1944 46.835L45.2623 46.3396L45.1944 46.835ZM46.7403 61.6465V62.1465H47.2403V61.6465H46.7403ZM38.2744 61.6465V48.3162H37.2744V61.6465H38.2744ZM38.2744 48.3162C38.2744 48.0508 38.2827 47.8008 38.376 47.6144C38.4156 47.5354 38.468 47.4751 38.5459 47.4302C38.6272 47.3833 38.7681 47.335 39.0111 47.335L39.0111 46.335C38.6357 46.335 38.3129 46.4102 38.0464 46.5639C37.7765 46.7195 37.597 46.9369 37.482 47.1665C37.2661 47.5973 37.2744 48.0878 37.2744 48.3162H38.2744ZM39.0111 47.335C39.6544 47.335 40.7073 47.2594 41.7858 47.2237C42.895 47.1869 44.0878 47.1882 45.1266 47.3304L45.2623 46.3396C44.1369 46.1856 42.8754 46.187 41.7526 46.2242C40.5992 46.2625 39.6425 46.335 39.0111 46.335L39.0111 47.335ZM45.1266 47.3304C45.6223 47.3982 45.7448 47.4583 45.7981 47.5145C45.8431 47.5618 45.9311 47.7129 45.9311 48.3162H46.9311C46.9311 47.7111 46.8645 47.185 46.5231 46.8257C46.19 46.4751 45.6941 46.3988 45.2623 46.3396L45.1266 47.3304ZM45.9311 48.3162C45.9311 48.9182 46.0089 51.2782 46.0859 53.9589C46.1632 56.6509 46.2403 59.68 46.2403 61.6465H47.2403C47.2403 59.6632 47.1628 56.6197 47.0855 53.9302C47.0079 51.2294 46.9311 48.8991 46.9311 48.3162H45.9311ZM46.7403 61.1465H37.7744V62.1465H46.7403V61.1465Z" fill="#DFCFFF"/>
<path d="M6.42558 58.8851L5.92559 58.8886L5.92585 58.9252L5.93141 58.9613L6.42558 58.8851ZM5.94056 18.0011C5.92219 18.0744 5.9134 18.1669 5.90754 18.2391C5.90062 18.3243 5.89441 18.4316 5.88871 18.5578C5.87728 18.8107 5.86729 19.1535 5.85855 19.5745C5.84105 20.4174 5.82831 21.5856 5.81954 23.0013C5.802 25.8334 5.80028 29.6634 5.80833 33.8777C5.82442 42.3068 5.87961 52.278 5.92559 58.8886L6.92557 58.8817C6.87959 52.272 6.82442 42.3026 6.80832 33.8758C6.80028 29.6622 6.802 25.8354 6.81952 23.0075C6.82828 21.5933 6.84098 20.4308 6.85833 19.5953C6.86701 19.1771 6.8768 18.8438 6.88769 18.6029C6.89315 18.4822 6.89873 18.3882 6.90426 18.32C6.91086 18.2387 6.91518 18.2258 6.9106 18.244L5.94056 18.0011ZM5.93141 58.9613C6.0379 59.6523 6.42718 60.6387 7.25226 61.429C8.09316 62.2343 9.35882 62.8082 11.149 62.6891L11.0826 61.6913C9.56194 61.7925 8.57446 61.3106 7.94394 60.7068C7.29759 60.0877 6.99717 59.3114 6.91975 58.809L5.93141 58.9613ZM11.149 62.6891C14.4356 62.4704 42.6388 62.5983 56.3598 62.6902L56.3665 61.6902C42.6816 61.5985 14.4175 61.4694 11.0826 61.6913L11.149 62.6891Z" fill="#151417"/>
<path d="M3.76802 13.367L0.856407 11.0524" stroke="#151417" stroke-linecap="round"/>
<path d="M6.36358 11.5163L6.28036 7.61286" stroke="#151417" stroke-linecap="round"/>
<path d="M10.7923 13.1866L13.3057 10.385" stroke="#151417" stroke-linecap="round"/>
</svg>
