<svg width="20" height="20" fill="none" xmlns="http://www.w3.org/2000/svg"><path fill-rule="evenodd" clip-rule="evenodd" d="M17.563 5.814c.476.52.744 1.228.744 1.964v7.367c0 .737-.268 1.443-.744 1.964a2.435 2.435 0 01-1.796.814H4.232a2.36 2.36 0 01-.972-.211 2.538 2.538 0 01-.825-.603 2.916 2.916 0 01-.744-1.964V7.778c0-.736.268-1.443.744-1.964.236-.258.516-.463.825-.603.308-.14.638-.211.972-.211h11.535c.673 0 1.32.293 1.796.814zM7.447 14.46V8.464A.3.3 0 017.89 8.2l5.57 2.998a.3.3 0 010 .528l-5.57 2.998a.3.3 0 01-.442-.264z" fill="#151417"/></svg>