<svg width="150" height="50" viewBox="0 0 150 50" fill="none" xmlns="http://www.w3.org/2000/svg">
<g clip-path="url(#clip0_2537_48582)">
<path d="M45.4387 21.3188H32.0206V25.3016H41.5369C41.0668 30.8863 36.4214 33.2682 32.0367 33.2682C26.4268 33.2682 21.5314 28.8532 21.5314 22.6649C21.5314 16.6367 26.1979 11.9941 32.0491 11.9941C36.5632 11.9941 39.2232 14.8724 39.2232 14.8724L42.0113 11.9846C42.0113 11.9846 38.4329 8 31.9067 8C23.5962 8 17.1671 15.0157 17.1671 22.5937C17.1671 30.0193 23.2147 37.2599 32.1185 37.2599C39.9494 37.2599 45.6817 31.894 45.6817 23.959C45.6817 22.2852 45.4387 21.3176 45.4387 21.3176V21.3188Z" fill="#4885EF"/>
<path d="M56.4311 18.4348C50.9252 18.4348 46.9794 22.7405 46.9794 27.762C46.9794 32.8577 50.8067 37.2434 56.4957 37.2434C61.6458 37.2434 65.8652 33.306 65.8652 27.8716C65.8652 21.6426 60.9572 18.4348 56.4311 18.4348ZM56.4858 22.1287C59.1932 22.1287 61.759 24.3183 61.759 27.8464C61.759 31.2998 59.2041 33.5518 56.4734 33.5518C53.4726 33.5518 51.1054 31.1478 51.1054 27.819C51.1054 24.5616 53.4433 22.1287 56.4858 22.1287Z" fill="#E12F35"/>
<path d="M76.9869 18.4348C71.481 18.4348 67.5352 22.7405 67.5352 27.762C67.5352 32.8577 71.3625 37.2434 77.0515 37.2434C82.2017 37.2434 86.4208 33.306 86.4208 27.8716C86.421 21.6426 81.513 18.4348 76.9869 18.4348ZM77.0416 22.1287C79.7494 22.1287 82.315 24.3183 82.315 27.8464C82.315 31.2998 79.7601 33.5518 77.0292 33.5518C74.0287 33.5518 71.6614 31.1478 71.6614 27.819C71.6614 24.5616 73.9991 22.1287 77.0416 22.1287Z" fill="#F6C111"/>
<path d="M97.1488 18.4446C92.095 18.4446 88.1226 22.8719 88.1226 27.8413C88.1226 33.5018 92.728 37.2554 97.0617 37.2554C99.7412 37.2554 101.166 36.1916 102.218 34.9704V36.8247C102.218 40.0691 100.249 42.0123 97.2759 42.0123C94.404 42.0123 92.9637 39.8764 92.4631 38.6643L88.8498 40.1754C90.1316 42.8866 92.7121 45.7139 97.3061 45.7139C102.331 45.7139 106.16 42.5482 106.16 35.9087V19.0102H102.218V20.6032C101.006 19.2968 99.3486 18.4448 97.1488 18.4446ZM97.5146 22.1313C99.9922 22.1313 102.537 24.2476 102.537 27.8614C102.537 31.5348 99.9978 33.5592 97.4599 33.5592C94.7655 33.5592 92.2587 31.3711 92.2587 27.8963C92.2587 24.2858 94.8623 22.1313 97.5146 22.1313Z" fill="#4885EF"/>
<path d="M123.687 18.4221C118.92 18.4221 114.917 22.216 114.917 27.8139C114.917 33.7375 119.379 37.2505 124.145 37.2505C128.123 37.2505 130.564 35.0737 132.021 33.1234L128.771 30.9602C127.928 32.2693 126.518 33.549 124.165 33.549C121.521 33.549 120.306 32.1013 119.554 30.6988L132.16 25.4665L131.506 23.9331C130.288 20.9304 127.447 18.4225 123.687 18.4225L123.687 18.4221ZM123.851 22.039C125.569 22.039 126.805 22.9525 127.33 24.0477L118.912 27.5676C118.549 24.8425 121.129 22.039 123.851 22.039Z" fill="#DB3237"/>
<path d="M108.907 36.6923H113.048V8.9729H108.907V36.6923Z" fill="#3CBB54"/>
</g>
<defs>
<clipPath id="clip0_2537_48582">
<rect width="119.423" height="45.8182" fill="white" transform="translate(15)"/>
</clipPath>
</defs>
</svg>
