<?xml version="1.0" encoding="UTF-8"?> <svg xmlns="http://www.w3.org/2000/svg" width="150" height="50" viewBox="0 0 150 50" fill="none"><g clip-path="url(#clip0_2537_48522)"><path d="M32.0957 29.5528H36.5071V32.3295C36.5071 33.7178 36.5071 35.1285 38.6568 35.1285C40.8288 35.1285 40.8288 33.6954 40.8288 31.5681C40.8288 29.8663 40.493 29.1497 39.3285 28.366L35.1187 25.5445C32.8795 24.0218 32.2525 22.3423 32.2525 19.9015C32.2525 18.0206 32.4316 16.2292 33.9767 14.9304C34.8724 14.1914 36.4847 13.4973 38.8135 13.4973C41.3887 13.4973 44.9267 14.5497 44.9267 18.6699V21.0436H40.5377V19.3193C40.5377 18.1549 40.5377 16.8785 38.5896 16.8785C37.4028 16.8785 36.5519 17.3264 36.5519 19.2522C36.5519 21.2675 36.9997 21.693 37.9402 22.3423L42.2844 25.2982C43.1353 25.9028 44.0534 26.7537 44.5684 27.6494C45.2178 28.7466 45.2178 29.4856 45.2178 31.4338C45.2178 33.5834 45.2178 34.9046 44.4341 36.1586C43.1129 38.3083 40.3586 38.5322 38.7239 38.5322C34.9396 38.5322 32.0509 37.0991 32.0509 33.0684V29.5528H32.0957Z" fill="#233D43"></path><path d="M50.0994 13.9675H61.7212V17.6399H54.5107V23.2828H61.2957V26.9328H54.5107V34.3H62.0347V38.0172H50.0994V13.9675Z" fill="#233D43"></path><path d="M71.1932 13.9899H66.8043V37.9948H71.1932V13.9899Z" fill="#233D43"></path><path d="M75.8957 29.5528H80.307V32.3295C80.307 33.7178 80.307 35.1285 82.4567 35.1285C84.6288 35.1285 84.6288 33.6954 84.6288 31.5681C84.6288 29.8663 84.2929 29.1497 83.1285 28.366L78.9187 25.5445C76.6794 24.0218 76.0524 22.3423 76.0524 19.9015C76.0524 18.0206 76.2316 16.2292 77.7767 14.9304C78.6724 14.1914 80.307 13.4973 82.6135 13.4973C85.211 13.4973 88.7267 14.5497 88.7267 18.6699V21.0436H84.3377V19.3193C84.3377 18.1549 84.3377 16.8785 82.3895 16.8785C81.2027 16.8785 80.3518 17.3264 80.3518 19.2522C80.3518 21.2675 80.7997 21.693 81.7402 22.3423L86.0843 25.2982C86.9352 25.9028 87.8534 26.7537 88.3684 27.6494C89.0178 28.7466 89.0178 29.4856 89.0178 31.4338C89.0178 33.5834 89.0178 34.9046 88.234 36.1586C86.9129 38.3083 84.1586 38.5322 82.5239 38.5322C78.7395 38.5322 75.8509 37.0991 75.8509 33.0684V29.5528H75.8957Z" fill="#233D43"></path><path d="M93.8994 13.9899H101.087L103.931 30.8067L106.753 13.9899H113.874V38.0172H109.485L109.888 17.192L106.014 38.0172H101.871L97.9077 17.192L98.266 38.0172H93.8994V13.9899Z" fill="#233D43"></path><path d="M123.032 13.9899H118.643V37.9948H123.032V13.9899Z" fill="#233D43"></path><path d="M136.49 22.7678V19.7C136.49 17.9086 136.177 16.8785 134.251 16.8785C132.325 16.8785 132.213 18.4012 132.213 19.4985V32.3742C132.213 33.8074 132.46 35.0838 134.43 35.0838C136.513 35.0838 136.513 33.5834 136.513 32.1279V28.993H140.902V32.3966C140.902 34.3448 140.902 38.5098 134.363 38.5098C133.109 38.5098 131.094 38.2859 129.705 37.3678C127.802 36.1138 127.802 34.2328 127.802 32.9117V19.8568C127.802 17.9086 127.914 16.5874 128.989 15.4006C130.713 13.5196 133.445 13.4973 134.363 13.4973C140.902 13.4973 140.902 17.3712 140.902 19.073V22.7902H136.49V22.7678Z" fill="#233D43"></path><path d="M14.2488 21.6034H21.9966C21.9966 17.3488 18.5258 13.9003 14.2488 13.9003C9.97178 13.9003 6.52332 17.3488 6.52332 21.6034C6.52332 25.858 9.99417 29.3065 14.2488 29.3065V21.6034Z" fill="#233D43"></path><path d="M15.7491 30.8515H8.00122C8.00122 35.1061 11.4721 38.5546 15.7491 38.5546C20.0261 38.5546 23.4745 35.1061 23.4745 30.8515C23.4745 26.5969 20.0037 23.1484 15.7491 23.1484V30.8515Z" fill="#E95517"></path></g><defs><clipPath id="clip0_2537_48522"><rect width="150" height="50" fill="white"></rect></clipPath></defs></svg> 