<svg width="150" height="50" viewBox="0 0 150 50" fill="none" xmlns="http://www.w3.org/2000/svg">
<g clip-path="url(#clip0_2537_48591)">
<g clip-path="url(#clip1_2537_48591)">
<path d="M16.7623 18.8147H16.7374V26.4449H16.7623C18.3502 26.4449 19.873 27.0757 20.9958 28.1985C22.1186 29.3213 22.7494 30.8441 22.7494 32.432C22.7494 34.0199 22.1186 35.5427 20.9958 36.6655C19.873 37.7883 18.3502 38.4191 16.7623 38.4191H16.7374V46.0466H16.7623C18.5502 46.0466 20.3206 45.6944 21.9724 45.0102C23.6241 44.326 25.125 43.3232 26.3892 42.059C27.6535 40.7947 28.6563 39.2939 29.3405 37.6421C30.0247 35.9903 30.3768 34.2199 30.3768 32.432C30.3768 30.6441 30.0247 28.8738 29.3405 27.222C28.6563 25.5702 27.6535 24.0693 26.3892 22.8051C25.125 21.5408 23.6241 20.538 21.9724 19.8538C20.3206 19.1696 18.5502 18.8175 16.7623 18.8175V18.8147Z" fill="#151417"/>
<path d="M13.4346 36.2291H13.4594V28.6072H13.4346C11.8467 28.6072 10.3239 27.9764 9.20106 26.8536C8.07826 25.7308 7.44748 24.208 7.44748 22.6201C7.44748 21.0322 8.07826 19.5094 9.20106 18.3866C10.3239 17.2638 11.8467 16.633 13.4346 16.633H13.4594V9H13.4346C9.82377 9 6.36085 10.4344 3.80762 12.9876C1.25439 15.5408 -0.179993 19.0038 -0.179993 22.6146C-0.179993 26.2254 1.25439 29.6883 3.80762 32.2415C6.36085 34.7947 9.82377 36.2291 13.4346 36.2291V36.2291Z" fill="#FECC0D"/>
<path d="M53.4332 18.8699H57.8324V36.2015H53.4332V18.8699Z" fill="#151417"/>
<path d="M57.4601 13.1991C57.7029 13.5625 57.8324 13.9896 57.8324 14.4265C57.8324 15.0125 57.5997 15.5744 57.1854 15.9887C56.771 16.403 56.2091 16.6358 55.6232 16.6358C55.1862 16.6358 54.7591 16.5062 54.3958 16.2635C54.0325 16.0207 53.7493 15.6757 53.5821 15.272C53.4149 14.8683 53.3711 14.4241 53.4564 13.9955C53.5416 13.567 53.752 13.1733 54.061 12.8644C54.37 12.5554 54.7636 12.345 55.1922 12.2597C55.6207 12.1745 56.0649 12.2182 56.4686 12.3855C56.8723 12.5527 57.2173 12.8358 57.4601 13.1991Z" fill="#FFDE06"/>
<path d="M86.1938 18.7567C91.1812 18.7567 94.5779 22.4986 94.5779 27.9721V28.9414H82.1509C82.427 31.0568 84.1254 32.8214 86.967 32.8214C88.5246 32.8214 90.361 32.2001 91.4353 31.1645L93.3684 34.0061C91.7114 35.5305 89.0714 36.3286 86.4644 36.3286C81.3721 36.3286 77.528 32.8987 77.528 27.5275C77.5335 22.6726 81.1015 18.7567 86.1938 18.7567ZM82.0708 25.9644H90.3168C90.2119 24.371 89.1045 22.2556 86.1938 22.2556C83.4571 22.2556 82.2779 24.2992 82.0708 25.9644Z" fill="#151417"/>
<path d="M108.828 25.7903C108.828 23.4679 107.613 22.6725 105.743 22.6725C104.998 22.6807 104.265 22.8636 103.603 23.2066C102.941 23.5495 102.369 24.0429 101.932 24.647V36.2291H97.5328V18.8588H101.932V21.3442C102.665 20.5149 103.569 19.8542 104.581 19.4076C105.594 18.9609 106.691 18.7388 107.798 18.7566C111.47 18.7566 113.238 20.8361 113.238 24.092V36.2291H108.828V25.7903Z" fill="#151417"/>
<path d="M141.616 18.7567C146.603 18.7567 150 22.4986 150 27.9721V28.9414H137.573C137.849 31.0568 139.547 32.8214 142.389 32.8214C143.947 32.8214 145.783 32.2001 146.857 31.1645L148.79 34.0061C147.133 35.5305 144.493 36.3286 141.886 36.3286C136.794 36.3286 132.95 32.8987 132.95 27.5275C132.956 22.6726 136.518 18.7567 141.616 18.7567ZM137.493 25.9644H145.739C145.631 24.371 144.527 22.2556 141.616 22.2556C138.879 22.2556 137.7 24.2992 137.493 25.9644V25.9644Z" fill="#151417"/>
<path d="M37.6702 31.3355C38.529 31.7912 40.984 32.8378 43.0497 32.8378C44.7287 32.8378 45.6566 32.3767 45.6566 31.3355C45.6566 30.1591 44.552 29.6455 42.6465 29.2644C39.769 28.712 35.8668 27.7206 35.8668 23.7412C35.8668 20.9355 37.7641 18.8284 43.0469 18.8284C45.4027 18.8361 47.7098 19.4987 49.7106 20.7421L47.9349 23.7246C46.5034 22.7241 44.8017 22.1819 43.0552 22.1699C41.3679 22.1699 40.429 22.7581 40.4317 23.7274C40.4317 24.8017 41.3955 25.1772 43.0359 25.4202C45.9328 25.8511 50.216 27.1877 50.216 31.3466C50.216 34.3843 47.6753 36.2373 43.0359 36.2373C40.128 36.2373 37.2614 35.3619 35.8558 34.4202L37.6702 31.3355Z" fill="#151417"/>
<path d="M62.5519 31.3355C63.408 31.7912 65.8658 32.8378 67.9315 32.8378C69.6078 32.8378 70.5357 32.3767 70.5357 31.3355C70.5357 30.1591 69.431 29.6455 67.5255 29.2644C64.6507 28.712 60.7459 27.7206 60.7459 23.7412C60.7459 20.9355 62.6431 18.8284 67.926 18.8284C70.2818 18.8351 72.5892 19.4978 74.5896 20.7421L72.814 23.7246C71.3826 22.7238 69.6808 22.1816 67.9342 22.1699C66.2469 22.1699 65.308 22.7581 65.3107 23.7274C65.3107 24.8017 66.2745 25.1772 67.9177 25.4202C70.8118 25.8511 75.0978 27.1877 75.0978 31.3466C75.0978 34.3843 72.5599 36.2373 67.9177 36.2373C65.007 36.2373 62.1432 35.3619 60.7376 34.4202L62.5519 31.3355Z" fill="#151417"/>
<path d="M117.971 31.3355C118.83 31.7912 121.285 32.8378 123.354 32.8378C125.03 32.8378 125.958 32.3767 125.958 31.3355C125.958 30.1591 124.853 29.6455 122.948 29.2644C120.073 28.712 116.168 27.7206 116.168 23.7412C116.168 20.9355 118.065 18.8284 123.348 18.8284C125.704 18.8351 128.011 19.4978 130.012 20.7421L128.236 23.7246C126.805 22.7238 125.103 22.1816 123.356 22.1699C121.669 22.1699 120.73 22.7581 120.733 23.7274C120.733 24.8017 121.697 25.1772 123.337 25.4202C126.234 25.8511 130.517 27.1877 130.517 31.3466C130.517 34.3843 127.979 36.2373 123.337 36.2373C120.429 36.2373 117.563 35.3619 116.157 34.4202L117.971 31.3355Z" fill="#151417"/>
</g>
</g>
<defs>
<clipPath id="clip0_2537_48591">
<rect width="150" height="50" fill="white"/>
</clipPath>
<clipPath id="clip1_2537_48591">
<rect width="150.18" height="37.0438" fill="white" transform="translate(-0.179993 9)"/>
</clipPath>
</defs>
</svg>
