<svg width="150" height="50" viewBox="0 0 150 50" fill="none" xmlns="http://www.w3.org/2000/svg">
<path fill-rule="evenodd" clip-rule="evenodd" d="M26.5027 18.7275L30.5152 29.7374L34.7196 18.7275H40.6878L30.4821 44.2231H24.5791L27.5978 36.3229L20.3427 18.7275H26.5027ZM89.5404 18.3371C94.9295 18.3371 98.8593 22.4989 98.8593 28.1951C98.8593 33.8914 94.9295 38.0541 89.5404 38.0541C87.5517 38.0541 85.8774 37.53 84.5992 36.5196L84.5165 36.4527L84.4454 36.3946V44.2173H78.6942V18.7275H83.7796V20.6331L83.8088 20.6001C85.0616 19.178 86.9569 18.3914 89.299 18.34L89.4227 18.3381L89.5404 18.3371ZM51.1631 18.3371C57.0973 18.3371 61.3035 22.4175 61.3035 28.1951C61.3035 33.9485 57.0836 38.0541 51.1631 38.0541C45.2095 38.0541 40.9827 33.9543 40.9827 28.1951C40.9827 22.4117 45.1949 18.3371 51.1631 18.3371ZM70.8852 14.5328V18.7275H75.6162V23.6711H70.8852V30.4949C70.8852 32.0217 71.6299 32.8616 72.9869 32.9129L73.0531 32.9139L73.1203 32.9149C74.0402 32.9149 74.7372 32.6746 75.3612 32.0779L75.4196 32.0207L75.5743 31.8628H75.6172V37.3159L75.441 37.4002C74.4938 37.8507 73.9107 38.0541 72.2967 38.0541C67.7371 38.0541 65.2334 35.5838 65.136 30.9706L65.1341 30.8301V30.6897L65.1331 23.6711H63.0519V18.7275H65.2898V14.5328H70.8852ZM111.427 18.3371C117.361 18.3371 121.567 22.4175 121.567 28.1951C121.567 33.9485 117.347 38.0541 111.427 38.0541C105.473 38.0541 101.246 33.9543 101.246 28.1951C101.246 22.4117 105.459 18.3371 111.427 18.3371ZM126.255 31.7814C127.996 31.7814 129.406 33.1861 129.406 34.9173C129.406 36.6494 127.995 38.0541 126.255 38.0541C124.515 38.0541 123.104 36.6494 123.104 34.9173C123.104 33.1851 124.516 31.7814 126.255 31.7814ZM88.6789 23.4763C86.0876 23.4763 84.3276 25.3848 84.3276 28.1951C84.3276 31.0064 86.0876 32.9149 88.6789 32.9149C91.3034 32.9149 93.0692 31.0122 93.0692 28.1951C93.0692 25.379 91.3034 23.4763 88.6789 23.4763ZM51.1621 23.4763C48.563 23.4763 46.7728 25.3945 46.7728 28.1951C46.7728 30.9967 48.563 32.9149 51.1631 32.9149C53.7291 32.9149 55.5144 30.9909 55.5144 28.1951C55.5144 25.4003 53.7281 23.4763 51.1621 23.4763ZM111.427 23.4763C108.827 23.4763 107.036 25.3945 107.036 28.1951C107.036 30.9967 108.827 32.9149 111.427 32.9149C113.993 32.9149 115.778 30.9909 115.778 28.1951C115.778 25.4003 113.993 23.4763 111.427 23.4763Z" fill="#0042E4"/>
</svg>
