<svg width="150" height="50" viewBox="0 0 150 50" fill="none" xmlns="http://www.w3.org/2000/svg">
<path d="M99.0918 35.766C101.032 35.8132 102.902 35.0816 104.305 33.7127L106.877 36.5212C105.17 38.2912 102.809 39.6129 99.1385 39.6129C92.8263 39.6129 88.7584 35.3884 88.7584 29.677C88.7584 24.0129 93.0367 19.7412 98.554 19.7412C104.82 19.7412 108.35 24.5557 108.046 31.2111H93.2705C93.7848 33.9959 95.7252 35.766 99.0918 35.766ZM103.58 28.0486C103.183 25.4762 101.663 23.5645 98.6008 23.5645C95.7486 23.5645 93.7848 25.193 93.2705 28.0486H103.58ZM2 35.5536L13.3854 23.8713H2.25717V20.2132H18.6456V23.9657L7.28359 35.6244H18.8093V39.2825H2V35.5536ZM31.5741 35.766C33.5145 35.8132 35.3848 35.0816 36.7875 33.7127L39.3592 36.5212C37.6525 38.2912 35.2913 39.6129 31.6208 39.6129C25.3319 39.6129 21.2407 35.3884 21.2407 29.677C21.2407 24.0129 25.519 19.7412 31.0363 19.7412C37.3018 19.7412 40.832 24.5557 40.5281 31.2111H25.7528C26.2905 33.9959 28.2075 35.766 31.5741 35.766ZM36.0862 28.0486C35.6887 25.4762 34.1691 23.5645 31.1065 23.5645C28.2543 23.5645 26.2905 25.193 25.7761 28.0486H36.0862ZM65.1225 29.7006C65.1225 23.5881 69.6346 19.7884 74.6143 19.7884C77.1158 19.7884 79.5004 20.8977 80.9031 22.6441V11.3867H84.9243V39.2353H80.9031V36.592C79.4536 38.4564 77.069 39.6129 74.5675 39.6129C69.7515 39.6129 65.1225 35.766 65.1225 29.7006ZM81.1369 29.6534C81.1369 26.255 78.5886 23.4701 75.152 23.4701C71.7854 23.4701 69.167 26.1842 69.167 29.6534C69.167 33.1227 71.7854 35.8604 75.152 35.8604C78.5886 35.884 81.1369 33.0991 81.1369 29.6534ZM110.664 35.176L114.311 33.2643C115.293 35.0344 117.163 36.0964 119.174 36.0492C121.442 36.0492 122.634 34.8692 122.634 33.5239C122.634 31.9899 120.437 31.6595 118.052 31.1639C114.826 30.4795 111.482 29.4174 111.482 25.4762C111.482 22.4553 114.335 19.6704 118.8 19.7176C122.33 19.7176 124.949 21.1337 126.421 23.4229L123.032 25.311C122.167 23.9657 120.67 23.1397 118.777 23.1397C116.602 23.1397 115.504 24.2017 115.504 25.429C115.504 26.7978 117.257 27.1754 119.992 27.789C123.102 28.4734 126.632 29.5118 126.632 33.4767C126.632 36.12 124.364 39.6601 118.964 39.6129C115.036 39.6129 112.254 38.008 110.664 35.176ZM137.55 30.7627L134.37 34.2791V39.2353H130.349V11.3867H134.37V29.6062L142.903 20.166H147.79L140.402 28.3318L148 39.2353H143.441L137.55 30.7627ZM52.9656 19.7648C48.1729 19.7648 44.1752 22.9037 44.1752 28.0722V39.2353H48.2898V28.615C48.2898 25.4762 50.0666 23.6117 53.1058 23.6117C56.1451 23.6117 57.6647 25.4762 57.6647 28.615V39.2353H61.756V28.0958C61.756 22.9037 57.7582 19.7648 52.9656 19.7648Z" fill="#03363D"/>
</svg>
